<?xml version="1.0" encoding="utf-8"?>
<!-- Generator: Adobe Illustrator 24.1.1, SVG Export Plug-In . SVG Version: 6.00 Build 0)  -->
<svg version="1.1" id="Layer_1" xmlns="http://www.w3.org/2000/svg" xmlns:xlink="http://www.w3.org/1999/xlink" x="0px" y="0px"
	 viewBox="0 0 263 250" style="enable-background:new 0 0 263 250;" xml:space="preserve">
<style type="text/css">
	.st0{fill:#9BD2A5;}
	.st1{fill:#E4E8F9;enable-background:new    ;}
	.st2{fill:none;stroke:#263238;stroke-width:0.25;stroke-linecap:round;stroke-linejoin:round;stroke-miterlimit:10;}
	.st3{opacity:0.3;}
	.st4{fill:none;stroke:#000000;stroke-width:0.25;stroke-miterlimit:10;}
	.st5{fill:none;stroke:#000000;stroke-width:0.25;stroke-linecap:round;stroke-linejoin:round;stroke-miterlimit:10;}
	.st6{fill:none;stroke:#000000;stroke-width:0.25;stroke-miterlimit:10.0001;}
	.st7{fill:#A3B5F7;stroke:#034B68;stroke-width:0.25;stroke-miterlimit:10;}
	.st8{fill:#FFD648;stroke:#000000;stroke-width:0.25;stroke-miterlimit:10;}
	.st9{fill:#FFFFFF;stroke:#263238;stroke-width:0.25;stroke-linecap:round;stroke-linejoin:round;stroke-miterlimit:10;}
	.st10{fill:#263238;stroke:#263238;stroke-width:0.25;stroke-linecap:round;stroke-linejoin:round;stroke-miterlimit:10;}
	.st11{fill:#263238;}
	.st12{fill:#161616;stroke:#263238;stroke-width:0.25;stroke-linecap:round;stroke-linejoin:round;stroke-miterlimit:10;}
	.st13{fill:#EAEAEA;stroke:#263238;stroke-width:0.25;stroke-linecap:round;stroke-linejoin:round;stroke-miterlimit:10;}
	.st14{fill:#082984;stroke:#263238;stroke-width:0.25;stroke-linecap:round;stroke-linejoin:round;stroke-miterlimit:10;}
	.st15{fill:#F6461D;stroke:#02050F;stroke-width:0.25;stroke-miterlimit:10;}
	.st16{fill:none;stroke:#0E31AE;stroke-width:0.25;stroke-linecap:round;stroke-linejoin:round;stroke-miterlimit:10;}
	.st17{fill:#0E31AE;stroke:#263238;stroke-width:0.25;stroke-linecap:round;stroke-linejoin:round;stroke-miterlimit:10;}
</style>
<g>
	<path class="st0" d="M147.8,242.5c9.3-0.3,18.4-2.5,27.4-7.3c52.5-28.1,90.2-95.9,63.8-153.5c-12.2-26.6-36.6-54.6-67.8-56.5
		c-25.3-1.5-49.8,11-71.2,23.1C86.6,55.9,73.5,65,59.3,70.9c-18.5,7.7-41.1,19.4-41.6,42.4c-0.7,31.3,19.1,59.1,38.7,81.8
		c21.3,24.6,49.9,45.2,83.3,47.3C142.4,242.5,145.1,242.6,147.8,242.5z"/>
	<path class="st1" d="M147.8,242.5c9.3-0.3,18.4-2.5,27.4-7.3c52.5-28.1,90.2-95.9,63.8-153.5c-12.2-26.6-36.6-54.6-67.8-56.5
		c-25.3-1.5-49.8,11-71.2,23.1C86.6,55.9,73.5,65,59.3,70.9c-18.5,7.7-41.1,19.4-41.6,42.4c-0.7,31.3,19.1,59.1,38.7,81.8
		c21.3,24.6,49.9,45.2,83.3,47.3C142.4,242.5,145.1,242.6,147.8,242.5z"/>
</g>
<line class="st2" x1="22.7" y1="241.4" x2="244.2" y2="241.4"/>
<g class="st3">
	<path class="st4" d="M91.8,27.3c0,0-0.8-5.8-6-6.8s-7,2.4-7.6,5.6s-3,2.2-5.4,1.4s-5.6,1-7,4s-1.4,3.4-5.4,3
		c-4-0.4-5.2-0.2-6.4,2.2s-1.1,2.1-1.1,2.1h50.8c0,0,0.3-5.3-2.1-7.1s-5.8,0.2-7.6-0.8C92.2,29.9,91.8,27.3,91.8,27.3z"/>
</g>
<g class="st3">
	<path class="st4" d="M193.3,42.4c0,0-0.4-3-3.1-3.5c-2.7-0.5-3.6,1.2-3.9,2.9c-0.3,1.6-1.5,1.1-2.8,0.7s-2.9,0.5-3.6,2
		c-0.7,1.5-0.7,1.7-2.8,1.5s-2.7-0.1-3.3,1.1s-0.6,1.1-0.6,1.1h26c0,0,0.2-2.7-1.1-3.6c-1.2-0.9-3,0.1-3.9-0.4
		C193.5,43.8,193.3,42.4,193.3,42.4z"/>
</g>
<g class="st3">
	<path class="st4" d="M91.6,82.8c0,0-0.4-3-3.1-3.5s-3.6,1.2-3.9,2.9c-0.3,1.6-1.5,1.1-2.8,0.7c-1.2-0.4-2.9,0.5-3.6,2
		s-0.7,1.7-2.8,1.5s-2.7-0.1-3.3,1.1c-0.6,1.2-0.6,1.1-0.6,1.1h26c0,0,0.2-2.7-1.1-3.6c-1.2-0.9-3,0.1-3.9-0.4
		C91.9,84.1,91.6,82.8,91.6,82.8z"/>
</g>
<g class="st3">
	<path class="st4" d="M229.3,111.1c0,0-0.4-3-3.1-3.5c-2.7-0.5-3.6,1.2-3.9,2.9c-0.3,1.6-1.5,1.1-2.8,0.7s-2.9,0.5-3.6,2
		c-0.7,1.5-0.7,1.7-2.8,1.5s-2.7-0.1-3.3,1.1s-0.6,1.1-0.6,1.1h26c0,0,0.2-2.7-1.1-3.6c-1.2-0.9-3,0.1-3.9-0.4
		C229.5,112.4,229.3,111.1,229.3,111.1z"/>
</g>
<g class="st3">
	<path class="st4" d="M55.9,114.1c0,0-0.8-5.5-5.7-6.4S43.6,110,43,113c-0.6,3-2.8,2.1-5.1,1.3c-2.3-0.8-5.3,0.9-6.6,3.8
		c-1.3,2.8-1.3,3.2-5.1,2.8c-3.8-0.4-4.9-0.2-6,2.1c-1.1,2.3-1,2-1,2h47.9c0,0,0.3-5-2-6.7c-2.3-1.7-5.5,0.2-7.2-0.8
		C56.3,116.5,55.9,114.1,55.9,114.1z"/>
</g>
<g>
	<g class="st3">
		<rect x="197.9" y="73.7" class="st5" width="27.9" height="28.7"/>
		<rect x="200.3" y="78.2" class="st5" width="23.1" height="3.6"/>
		<g>
			<rect x="200.3" y="87.1" class="st5" width="4" height="4"/>
			<rect x="206.8" y="87.1" class="st5" width="4" height="4"/>
			<rect x="213.2" y="87.1" class="st5" width="4" height="4"/>
			<rect x="219.7" y="87.1" class="st5" width="4" height="4"/>
		</g>
		<g>
			<rect x="200.3" y="94.2" class="st5" width="4" height="4"/>
			<rect x="206.8" y="94.2" class="st5" width="4" height="4"/>
			<rect x="213.2" y="94.2" class="st5" width="4" height="4"/>
			<rect x="219.7" y="94.2" class="st5" width="4" height="4"/>
		</g>
		<polyline class="st5" points="201.8,73.7 201.8,69.2 204.3,69.2 204.3,73.6 		"/>
		<polyline class="st5" points="220.2,73.7 220.2,69.2 222.7,69.2 222.7,73.6 		"/>
		<polyline class="st5" points="210.4,73.7 210.4,69.2 212.9,69.2 212.9,73.6 		"/>
	</g>
	<g class="st3">
		<g>
			<rect x="24.1" y="80.6" class="st4" width="6.2" height="16.2"/>
			<rect x="31.9" y="81.8" class="st4" width="6.2" height="14.9"/>
			<rect x="39.8" y="78.1" class="st4" width="6.2" height="18.6"/>
			<rect x="47.6" y="68.2" class="st4" width="6.2" height="28.6"/>
		</g>
	</g>
	<g class="st3">
		<g>
			<ellipse class="st6" cx="133.7" cy="134" rx="11.7" ry="11.7"/>
			<path class="st4" d="M143.9,139.8c1-1.7,1.5-3.7,1.5-5.8c0-6.5-5.3-11.7-11.7-11.7V134L143.9,139.8z"/>
		</g>
		<polyline class="st4" points="141.6,127.2 147.8,121.6 156.9,121.6 		"/>
		<line class="st4" x1="151" y1="124.6" x2="156.4" y2="124.6"/>
		<line class="st4" x1="151" y1="126.2" x2="156.4" y2="126.2"/>
		<line class="st4" x1="151" y1="127.8" x2="156.4" y2="127.8"/>
	</g>
</g>
<g>
	<g>
		<rect x="113" y="63.2" class="st7" width="7.9" height="16.2"/>
		<rect x="122.9" y="64.4" class="st7" width="7.9" height="14.9"/>
		<rect x="132.9" y="60.7" class="st7" width="7.9" height="18.6"/>
		<rect x="142.8" y="50.7" class="st7" width="7.9" height="28.6"/>
		<polyline class="st2" points="115.1,58.6 126.2,61.4 137,56.3 146.1,41.2 		"/>
		<polyline class="st2" points="141.6,42.2 147.4,39.1 147.2,45 		"/>
	</g>
	<circle class="st7" cx="126.2" cy="61.4" r="1.1"/>
	<path class="st7" d="M138,56.1c0-0.6-0.5-1.1-1.1-1.1s-1.1,0.5-1.1,1.1s0.5,1.1,1.1,1.1C137.5,57.3,138,56.7,138,56.1z"/>
	<path class="st7" d="M118.3,59c0-0.6-0.5-1.1-1.1-1.1s-1.1,0.5-1.1,1.1s0.5,1.1,1.1,1.1S118.3,59.6,118.3,59z"/>
	<path class="st7" d="M148.2,39.5c0-0.6-0.5-1.1-1.1-1.1s-1.1,0.5-1.1,1.1s0.5,1.1,1.1,1.1C147.7,40.7,148.2,40.2,148.2,39.5z"/>
</g>
<g>
	<path class="st8" d="M24.5,202.7c1.3,0.6,4.5,0.5,4.5,0.5s-0.7-2.1-0.7-2.2c-0.7-1.5-2.9-3.9-4.7-3.6c-1.3,0.2-2,1.5-1.7,2.7
		C22.1,201.3,23.4,202.2,24.5,202.7z"/>
	<path class="st8" d="M25.6,211.9c1.4,0.2,4.2-0.6,4.4-0.7c0.5,1.6,1,3.2,1.7,4.8c0.4,0.9,0.8,1.8,1.3,2.7c-0.3-0.4-0.5-0.7-0.5-0.8
		c-1.1-1.2-3.8-3-5.5-2.3c-1.2,0.5-1.6,2-1,3.1s2.1,1.7,3.3,1.9c1.2,0.2,3.7-0.5,4.3-0.7c0.2,0.3,0.3,0.7,0.5,1
		c0.8,1.6,1.7,3.3,2.4,4.9c0.3,0.6,0.5,1.2,0.8,1.7c-0.2-0.3-0.4-0.6-0.5-0.7c-1.1-1.2-3.8-3-5.5-2.3c-1.2,0.5-1.6,2-1,3.1
		s2.1,1.7,3.3,1.9s3.4-0.4,4.2-0.6c0.2,0.6,0.5,1.2,0.7,1.8c0.1,0.4,0.3,0.8,0.4,1.2c0.1,0.4,0.2,0.8,0.3,1.2
		c0.2,0.8,0.4,1.6,0.5,2.3c0.1,0.5,0.2,1,0.3,1.5c-0.3-0.6-0.8-1.7-0.9-1.8c-0.9-1.4-3.3-3.5-5.1-3.1c-1.3,0.3-1.8,1.7-1.4,2.9
		c0.4,1.2,1.8,2,3,2.3c1.3,0.4,4.1,0,4.5,0c0.2,0.8,0.3,1.7,0.5,2.5c0.1,0.6,0.2,1.1,0.3,1.7H42c-0.1-0.6-0.2-1.2-0.4-1.9
		c-0.2-0.9-0.4-1.8-0.6-2.7c0.2-0.1,1.4-0.6,2.5-1.2c0.9,1,3.3,2.2,3.6,2.3c-0.3,0.8-0.6,1.6-1,2.3c-0.2,0.4-0.3,0.7-0.5,1.1H47
		c0.1-0.2,0.2-0.5,0.3-0.7c0.3-0.8,0.7-1.7,1-2.6c0.3,0.1,3.1,0.6,4.5,0.3c1.2-0.3,2.6-0.9,3.1-2.1c0.5-1.1,0.1-2.6-1.2-3
		c-1.7-0.6-4.4,1.4-5.3,2.7c-0.1,0.1-0.6,1-0.9,1.6c0.1-0.4,0.3-0.7,0.4-1.1c0.3-0.8,0.5-1.5,0.8-2.3c0.1-0.4,0.2-0.8,0.4-1.2
		c0.1-0.4,0.2-0.8,0.3-1.3c0.2-1,0.4-2,0.6-3c0.7,0.2,3,1.1,4.2,1s2.7-0.5,3.4-1.6s0.4-2.5-0.7-3.1c-1.6-0.8-4.5,0.7-5.7,1.9
		c-0.1,0.1-0.8,1-1.2,1.5c0.1-0.6,0.2-1.2,0.3-1.9c0.2-1.8,0.4-3.6,0.6-5.5c0.1-0.6,0.1-1.1,0.2-1.7c0.2,0.1,3,1.1,4.4,1
		c1.2-0.1,2.7-0.5,3.4-1.6s0.4-2.5-0.7-3.1c-1.6-0.8-4.5,0.7-5.7,1.9c-0.1,0.1-1.1,1.4-1.4,1.8c0.1-1.2,0.3-2.5,0.5-3.7
		c0.3-1.7,0.6-3.3,1-4.8c0.1,0,3,1.1,4.4,1c1.2-0.1,2.7-0.5,3.4-1.6s0.4-2.5-0.7-3.1c-1.6-0.8-4.5,0.7-5.7,1.9
		c-0.1,0.1-1.2,1.5-1.4,1.8c0-0.1,0-0.2,0.1-0.3c0.5-1.6,1.2-3.2,1.9-4.5c0.4-0.8,0.9-1.6,1.3-2.3c0.5,0.3,2.9,1.4,4.2,1.5
		c1.2,0,2.8-0.2,3.6-1.2s0.7-2.5-0.4-3.2c-1.5-1-4.6,0.2-5.8,1.2c-0.1,0.1-0.7,0.7-1.2,1.2c0.2-0.3,0.4-0.7,0.6-1
		c0.8-1.1,1.5-2.2,2.2-3c0.4-0.5,0.8-0.9,1.1-1.4c0.6,0,3.2-0.1,4.3-0.6s2.4-1.5,2.6-2.7c0.3-1.2-0.5-2.5-1.8-2.7
		c-1.8-0.2-4,2.3-4.6,3.8c-0.1,0.1-0.7,2.2-0.7,2.2l0,0c-0.3,0.4-0.7,0.8-1.1,1.3c-0.7,0.9-1.5,1.9-2.3,3s-1.6,2.4-2.4,3.8
		c-0.8,1.4-1.5,2.9-2,4.6c0,0,0,0,0,0.1c0-0.5,0-2,0-2.1c-0.2-1.6-1.6-4.6-3.4-4.9c-1.3-0.2-2.4,0.8-2.5,2c-0.1,1.3,0.8,2.6,1.7,3.4
		c1,0.9,3.9,1.8,4.1,1.9c-0.5,1.6-0.9,3.2-1.2,4.9c-0.2,1-0.3,2-0.5,3c0-0.5,0-0.9,0-0.9c-0.2-1.6-1.6-4.6-3.4-4.9
		c-1.3-0.2-2.4,0.8-2.5,2c-0.1,1.3,0.8,2.6,1.7,3.4c0.9,0.8,3.3,1.6,4,1.8c0,0.4-0.1,0.8-0.1,1.1c-0.2,1.8-0.4,3.7-0.7,5.4
		c-0.1,0.6-0.2,1.2-0.3,1.9c0-0.4,0-0.8,0-0.8c-0.2-1.6-1.6-4.6-3.4-4.9c-1.3-0.2-2.4,0.8-2.5,2c-0.1,1.3,0.8,2.6,1.7,3.4
		c0.9,0.8,3.1,1.5,3.8,1.8c-0.1,0.6-0.3,1.3-0.4,1.9c-0.1,0.4-0.2,0.8-0.3,1.2s-0.3,0.8-0.4,1.2c-0.3,0.8-0.6,1.5-0.8,2.3
		c-0.2,0.5-0.4,1-0.6,1.5c0.1-0.6,0.3-1.9,0.3-2c0-1.1-0.4-2.8-1.1-4.1c0-0.2,0-0.3,0-0.5c-0.2-1.2-1.4-2.2-2.6-1.8
		c-1.8,0.5-2.9,3.6-3,5.2c0,0.1,0.1,1.1,0.1,1.8c-0.1-0.4-0.2-0.8-0.3-1.1c-0.2-0.8-0.4-1.5-0.6-2.4c-0.1-0.4-0.2-0.8-0.4-1.2
		c-0.1-0.4-0.3-0.8-0.4-1.2c-0.3-1-0.7-1.9-1.2-2.8c0.7-0.2,3.1-0.8,4.1-1.5s2-1.9,2-3.2s-1-2.3-2.3-2.2c-1.8,0.2-3.4,3.1-3.7,4.7
		c0,0.1-0.1,1.3-0.2,1.9c-0.3-0.6-0.5-1.1-0.8-1.7c-0.8-1.6-1.7-3.3-2.5-4.9c-0.3-0.5-0.5-1-0.8-1.5c0.2-0.1,3.1-0.7,4.2-1.6
		c1-0.7,2-1.9,2-3.2s-1-2.3-2.3-2.2c-1.8,0.2-3.4,3.1-3.7,4.7c0,0.1-0.2,1.8-0.2,2.2c-0.6-1.1-1.1-2.2-1.6-3.3
		c-0.7-1.5-1.3-3.1-1.8-4.6c0.1,0,3.1-0.7,4.2-1.6c1-0.7,2-1.9,2-3.2s-1-2.3-2.3-2.2c-1.8,0.2-3.4,3.1-3.7,4.7
		c0,0.1-0.2,1.9-0.2,2.3c0-0.1-0.1-0.2-0.1-0.3c-0.5-1.6-0.7-3.3-0.9-4.8c-0.1-0.9-0.1-1.8-0.2-2.6c0.6-0.1,3.2-0.4,4.3-1.1
		c1-0.6,2.2-1.7,2.3-3s-0.8-2.4-2.1-2.4c-1.8,0-3.7,2.7-4.2,4.2c0,0.1-0.2,1-0.3,1.6c0-0.4,0-0.8,0-1.1c0-1.4,0.1-2.6,0.2-3.8
		c0.1-0.6,0.1-1.2,0.2-1.7c0.5-0.4,2.6-1.8,3.3-2.9c0.6-1,1.1-2.5,0.7-3.7c-0.5-1.2-1.8-1.8-3-1.2c-1.6,0.8-2,4.1-1.8,5.7
		c0,0.1,0.6,2.3,0.7,2.2l0,0c-0.1,0.5-0.1,1.1-0.2,1.7c-0.1,1.1-0.2,2.4-0.3,3.8c0,1.4,0,2.9,0.1,4.5s0.4,3.2,0.8,4.9c0,0,0,0,0,0.1
		c-0.3-0.5-1.1-1.7-1.2-1.8c-1.1-1.2-3.8-3-5.5-2.3c-1.2,0.5-1.6,2-1,3.1C22.9,211.2,24.4,211.8,25.6,211.9z"/>
	<path class="st8" d="M56.8,203.4c0,0,0.6-2.1,0.6-2.3c0.2-1.6-0.3-4.9-1.9-5.6c-1.2-0.6-2.5,0.1-2.9,1.3s0.1,2.7,0.8,3.7
		C54.1,201.7,56.8,203.4,56.8,203.4z"/>
</g>
<g>
	<path class="st8" d="M196.8,202.7c1.3,0.6,4.5,0.5,4.5,0.5s-0.7-2.1-0.7-2.2c-0.7-1.5-2.9-3.9-4.7-3.6c-1.3,0.2-2,1.5-1.7,2.7
		C194.4,201.3,195.7,202.2,196.8,202.7z"/>
	<path class="st8" d="M197.9,211.9c1.4,0.2,4.2-0.6,4.4-0.7c0.5,1.6,1,3.2,1.7,4.8c0.4,0.9,0.8,1.8,1.3,2.7
		c-0.3-0.4-0.5-0.7-0.5-0.8c-1.1-1.2-3.8-3-5.5-2.3c-1.2,0.5-1.6,2-1,3.1s2.1,1.7,3.3,1.9s3.7-0.5,4.3-0.7c0.2,0.3,0.3,0.7,0.5,1
		c0.8,1.6,1.7,3.3,2.4,4.9c0.3,0.6,0.5,1.2,0.8,1.7c-0.2-0.3-0.4-0.6-0.5-0.7c-1.1-1.2-3.8-3-5.5-2.3c-1.2,0.5-1.6,2-1,3.1
		s2.1,1.7,3.3,1.9s3.4-0.4,4.2-0.6c0.2,0.6,0.5,1.2,0.7,1.8c0.1,0.4,0.3,0.8,0.4,1.2c0.1,0.4,0.2,0.8,0.3,1.2
		c0.2,0.8,0.4,1.6,0.5,2.3c0.1,0.5,0.2,1,0.3,1.5c-0.3-0.6-0.8-1.7-0.9-1.8c-0.9-1.4-3.3-3.5-5.1-3.1c-1.3,0.3-1.8,1.7-1.4,2.9
		c0.4,1.2,1.8,2,3,2.3c1.3,0.4,4.1,0,4.5,0c0.2,0.8,0.3,1.7,0.5,2.5c0.1,0.6,0.2,1.1,0.3,1.7h1.1c-0.1-0.6-0.2-1.2-0.4-1.9
		c-0.2-0.9-0.4-1.8-0.6-2.7c0.2-0.1,1.4-0.6,2.5-1.2c0.9,1,3.3,2.2,3.6,2.3c-0.3,0.8-0.6,1.6-1,2.3c-0.2,0.4-0.3,0.7-0.5,1.1h1.2
		c0.1-0.2,0.2-0.5,0.3-0.7c0.3-0.8,0.7-1.7,1-2.6c0.3,0.1,3.1,0.6,4.5,0.3c1.2-0.3,2.6-0.9,3.1-2.1c0.5-1.1,0.1-2.6-1.2-3
		c-1.7-0.6-4.4,1.4-5.3,2.7c-0.1,0.1-0.6,1-0.9,1.6c0.1-0.4,0.3-0.7,0.4-1.1c0.3-0.8,0.5-1.5,0.8-2.3c0.1-0.4,0.2-0.8,0.4-1.2
		c0.1-0.4,0.2-0.8,0.3-1.3c0.2-1,0.4-2,0.6-3c0.7,0.2,3,1.1,4.2,1s2.7-0.5,3.4-1.6s0.4-2.5-0.7-3.1c-1.6-0.8-4.5,0.7-5.7,1.9
		c-0.1,0.1-0.8,1-1.2,1.5c0.1-0.6,0.2-1.2,0.3-1.9c0.2-1.8,0.4-3.6,0.6-5.5c0.1-0.6,0.1-1.1,0.2-1.7c0.2,0.1,3,1.1,4.4,1
		c1.2-0.1,2.7-0.5,3.4-1.6s0.4-2.5-0.7-3.1c-1.6-0.8-4.5,0.7-5.7,1.9c-0.1,0.1-1.1,1.4-1.4,1.8c0.1-1.2,0.3-2.5,0.5-3.7
		c0.3-1.7,0.6-3.3,1-4.8c0.1,0,3,1.1,4.4,1c1.2-0.1,2.7-0.5,3.4-1.6s0.4-2.5-0.7-3.1c-1.6-0.8-4.5,0.7-5.7,1.9
		c-0.1,0.1-1.2,1.5-1.4,1.8c0-0.1,0-0.2,0.1-0.3c0.5-1.6,1.2-3.2,1.9-4.5c0.4-0.8,0.9-1.6,1.3-2.3c0.5,0.3,2.9,1.4,4.2,1.5
		c1.2,0,2.8-0.2,3.6-1.2s0.7-2.5-0.4-3.2c-1.5-1-4.6,0.2-5.8,1.2c-0.1,0.1-0.7,0.7-1.2,1.2c0.2-0.3,0.4-0.7,0.6-1
		c0.8-1.1,1.5-2.2,2.2-3c0.4-0.5,0.8-0.9,1.1-1.4c0.6,0,3.2-0.1,4.3-0.6s2.4-1.5,2.6-2.7c0.3-1.2-0.5-2.5-1.8-2.7
		c-1.8-0.2-4,2.3-4.6,3.8c-0.1,0.1-0.7,2.2-0.7,2.2l0,0c-0.3,0.4-0.7,0.8-1.1,1.3c-0.7,0.9-1.5,1.9-2.3,3s-1.6,2.4-2.4,3.8
		c-0.8,1.4-1.5,2.9-2,4.6c0,0,0,0,0,0.1c0-0.5,0-2,0-2.1c-0.2-1.6-1.6-4.6-3.4-4.9c-1.3-0.2-2.4,0.8-2.5,2c-0.1,1.3,0.8,2.6,1.7,3.4
		c1,0.9,3.9,1.8,4.1,1.9c-0.5,1.6-0.9,3.2-1.2,4.9c-0.2,1-0.3,2-0.5,3c0-0.5,0-0.9,0-0.9c-0.2-1.6-1.6-4.6-3.4-4.9
		c-1.3-0.2-2.4,0.8-2.5,2c-0.1,1.3,0.8,2.6,1.7,3.4c0.9,0.8,3.3,1.6,4,1.8c0,0.4-0.1,0.8-0.1,1.1c-0.2,1.8-0.4,3.7-0.7,5.4
		c-0.1,0.6-0.2,1.2-0.3,1.9c0-0.4,0-0.8,0-0.8c-0.2-1.6-1.6-4.6-3.4-4.9c-1.3-0.2-2.4,0.8-2.5,2c-0.1,1.3,0.8,2.6,1.7,3.4
		c0.9,0.8,3.1,1.5,3.8,1.8c-0.1,0.6-0.3,1.3-0.4,1.9c-0.1,0.4-0.2,0.8-0.3,1.2s-0.3,0.8-0.4,1.2c-0.3,0.8-0.6,1.5-0.8,2.3
		c-0.2,0.5-0.4,1-0.6,1.5c0.1-0.6,0.3-1.9,0.3-2c0-1.1-0.4-2.8-1.1-4.1c0-0.2,0-0.3,0-0.5c-0.2-1.2-1.4-2.2-2.6-1.8
		c-1.8,0.5-2.9,3.6-3,5.2c0,0.1,0.1,1.1,0.1,1.8c-0.1-0.4-0.2-0.8-0.3-1.1c-0.2-0.8-0.4-1.5-0.6-2.4c-0.1-0.4-0.2-0.8-0.4-1.2
		c-0.1-0.4-0.3-0.8-0.4-1.2c-0.3-1-0.7-1.9-1.2-2.8c0.7-0.2,3.1-0.8,4.1-1.5s2-1.9,2-3.2s-1-2.3-2.3-2.2c-1.8,0.2-3.4,3.1-3.7,4.7
		c0,0.1-0.1,1.3-0.2,1.9c-0.3-0.6-0.5-1.1-0.8-1.7c-0.8-1.6-1.7-3.3-2.5-4.9c-0.3-0.5-0.5-1-0.8-1.5c0.2-0.1,3.1-0.7,4.2-1.6
		c1-0.7,2-1.9,2-3.2s-1-2.3-2.3-2.2c-1.8,0.2-3.4,3.1-3.7,4.7c0,0.1-0.2,1.8-0.2,2.2c-0.6-1.1-1.1-2.2-1.6-3.3
		c-0.7-1.5-1.3-3.1-1.8-4.6c0.1,0,3.1-0.7,4.2-1.6c1-0.7,2-1.9,2-3.2s-1-2.3-2.3-2.2c-1.8,0.2-3.4,3.1-3.7,4.7
		c0,0.1-0.2,1.9-0.2,2.3c0-0.1-0.1-0.2-0.1-0.3c-0.5-1.6-0.7-3.3-0.9-4.8c-0.1-0.9-0.1-1.8-0.2-2.6c0.6-0.1,3.2-0.4,4.3-1.1
		c1-0.6,2.2-1.7,2.3-3s-0.8-2.4-2.1-2.4c-1.8,0-3.7,2.7-4.2,4.2c0,0.1-0.2,1-0.3,1.6c0-0.4,0-0.8,0-1.1c0-1.4,0.1-2.6,0.2-3.8
		c0.1-0.6,0.1-1.2,0.2-1.7c0.5-0.4,2.6-1.8,3.3-2.9c0.6-1,1.1-2.5,0.7-3.7c-0.5-1.2-1.8-1.8-3-1.2c-1.6,0.8-2,4.1-1.8,5.7
		c0,0.1,0.6,2.3,0.7,2.2l0,0c-0.1,0.5-0.1,1.1-0.2,1.7c-0.1,1.1-0.2,2.4-0.3,3.8c0,1.4,0,2.9,0.1,4.5s0.4,3.2,0.8,4.9c0,0,0,0,0,0.1
		c-0.3-0.5-1.1-1.7-1.2-1.8c-1.1-1.2-3.8-3-5.5-2.3c-1.2,0.5-1.6,2-1,3.1C195.2,211.2,196.7,211.8,197.9,211.9z"/>
	<path class="st8" d="M229.1,203.4c0,0,0.6-2.1,0.6-2.3c0.2-1.6-0.3-4.9-1.9-5.6c-1.2-0.6-2.5,0.1-2.9,1.3s0.1,2.7,0.8,3.7
		C226.4,201.7,229.1,203.4,229.1,203.4z"/>
</g>
<g>
	<g>
		<path class="st9" d="M211.1,241.2H101.7c-3.1,0-5.6-2.5-5.6-5.6v-61.7c0-2.9,2.4-5.3,5.3-5.3h110c2.9,0,5.3,2.4,5.3,5.3v61.7
			C216.7,238.7,214.2,241.2,211.1,241.2z"/>
		<path class="st10" d="M169.2,157.4h-25.7c-1.7,0-3,1.4-3,3v10h3.6c-0.2-0.4-0.3-0.9-0.3-1.4v-4.8c0-1.9,1.5-3.4,3.4-3.4h18.5
			c1.9,0,3.4,1.5,3.4,3.4v4.8c0,0.5-0.1,1-0.3,1.4h3.6v-10C172.3,158.8,170.9,157.4,169.2,157.4z"/>
		<g>
			<path class="st9" d="M96.1,186.2l60.3,18.7l60.3-18.2v-15.5c0-1.4-1.2-2.6-2.6-2.6H98.7c-1.4,0-2.6,1.2-2.6,2.6V186.2z"/>
			<polyline class="st2" points="193.4,191.7 215,185.2 215,171.1 			"/>
			<line class="st2" x1="161.4" y1="201.3" x2="191" y2="192.4"/>
			<line class="st2" x1="135.2" y1="196.4" x2="104.1" y2="186.7"/>
			<line class="st2" x1="151" y1="201.3" x2="137.9" y2="197.2"/>
		</g>
		<rect x="152.5" y="199.5" class="st10" width="7.8" height="10.8"/>
	</g>
	<g>
		<line class="st2" x1="197.4" y1="239.2" x2="193.3" y2="239.2"/>
		<path class="st2" d="M214.3,203v33.1c0,1.7-1.4,3.1-3.1,3.1h-11.8"/>
		<line class="st2" x1="214.3" y1="195.2" x2="214.3" y2="199.5"/>
	</g>
</g>
<g>
	<g>
		<path class="st9" d="M173.2,198.8c0,0,1.6,12.1,2.6,16.4c1,4.4,4.9,20.1,4.9,21.6c0.1,1.5-3.6,4.8-5.2,5.7
			c-1.6,0.9,0.4,1.6,2.1,1.4c1.6-0.2,4.2-1.2,4.6-1.5c0.3-0.3,0.8-0.6,1.1-0.8c0.1-0.1,0.2-0.1,0.2-0.1l-0.1,0.9l1.9-0.4
			c0,0,0.2-2.8-0.2-4.4c-0.3-1.6-0.5-3-0.5-3s-0.5-25.2-0.6-27.3s-0.2-4.9-0.2-4.9L173.2,198.8z"/>
		<path class="st10" d="M177.6,244.1c1.6-0.2,4.2-1.2,4.6-1.5c0.3-0.3,0.8-0.6,1.1-0.8c0.1-0.1,0.2-0.1,0.2-0.1l-0.1,0.9l1.9-0.4
			c0,0,0.2-2.8-0.2-4.4c-1.3,1.7-4.9,3.7-5.9,3.9s-1.5-0.3-1.5-0.3h-0.2c-0.8,0.7-1.5,1.2-2,1.5
			C173.9,243.6,175.9,244.2,177.6,244.1z"/>
	</g>
	<g>
		<path class="st9" d="M187.1,202c0,0,0.8,13,2.1,16.4c1.3,3.5,2.6,17.8,2.6,17.8s-0.8,3.2-1.5,5c-1,2.6-0.2,4.7,1.3,4.5
			s3.4-3,3.5-5.2c0.1-2.1,0.5-4.8,0.5-4.8s1.5-13.8,1.9-18.5c0.3-4.7-0.6-10.3-0.6-10.8s0.4-6.4,0.4-6.4l-10.3,1.4L187.1,202z"/>
		<path class="st10" d="M195.2,239.1c-0.8,1.3-1.9,2.9-3.1,3c-1,0-1.3-1-1.4-1.9c-0.1,0.4-0.3,0.8-0.4,1.1c-1,2.6-0.2,4.7,1.3,4.5
			s3.4-3,3.5-5.2C195.1,240.1,195.1,239.6,195.2,239.1z"/>
	</g>
	<path class="st10" d="M172.3,158.4c0,0-3.3,5.9-4.6,13.9s4.4,27.2,4.4,27.2s4.6,4,12.8,4.1s12.6-1.6,12.6-1.6s4-20.5,3.1-29.4
		s-6.6-14.8-6.6-14.8l-20.7-0.9L172.3,158.4z"/>
	<g>
		<path class="st9" d="M158.2,158.4c0,0-4.2,1-4.9,1.2s-2.3,1.2-2.6,1.8s-1.6,2.4-1.5,3.8c0,1.4,0.1,2,0.5,2s0.9-1.2,1.3-1.4
			c0.4-0.1,3.4-1.2,3.9-1.2s1.5-0.1,2.7-0.6c1.2-0.6,2.6-1.9,2.6-1.9l-1.2-3.9L158.2,158.4z"/>
		<path class="st9" d="M154.5,160.2c0,0-1.9,1-2.1,1.3c-0.2,0.3-2.8,3.9-2,3.9s3-2.4,3-2.4s2.1-0.1,2.9-0.1c0.8,0,1.5-1,1.5-1"/>
	</g>
	<g>
		<path class="st8" d="M184.3,122.4c0,0-11.6,4.1-12,5.5s-4.3,23.3-4.3,23.3l-9.9,7l1.7,5.3l11.1-4.4l-3.3,11.8
			c0,0,6.4,3.2,13.5,3.5c7.1,0.4,15-2.1,16.1-2.4c1.1-0.3,4.1-1.5,4.1-1.5l-3.7-21.3c0,0,4.3-17.1,4.4-18.5c0.1-1.4,0.6-5.1,0.6-5.6
			s-9.8-2.7-9.8-2.7L184.3,122.4z"/>
		<line class="st8" x1="177.2" y1="169.2" x2="176.7" y2="171.8"/>
		<polyline class="st8" points="179.4,124.9 179.7,140.7 177,144.7 179.1,159.4 177.6,167.4 		"/>
		<path class="st8" d="M178.5,143.9c0,0,11.4-10.8,14.8-14.1c3.4-3.4,5-5.7,5-5.7"/>
		<path class="st8" d="M174.4,132c0,0-2.8,8.3-2.1,10.2c0.7,2,1.4,8.6,1.4,8.6l-2.8,8.3"/>
	</g>
	<g>
		<g>
			<path class="st9" d="M184.9,105.8c0,0-2.2,1.4-2.5,2.4s-0.5,2-1.2,2.5s-2.3,0.3-2.2,0.9s1.1,2,1.1,2s-0.5,4.3-0.5,5.3
				s1.4,1.5,2.1,1.5c0.6,0,1.6-0.2,1.6-0.2l0.3,3.2l-3.3,16.7l12.5-17.4l-0.8-2l0.3-2.7c0,0,1.1-3.1,0.1-6.3c-0.9-3.3-2.7-4.9-4.4-6
				C186.3,104.3,184.9,105.8,184.9,105.8z"/>
			<polygon class="st10" points="183.4,120.1 185.4,119.3 183.7,122.5 			"/>
			<path class="st11" d="M182.8,110.7c-0.1,0.4-0.3,0.7-0.5,0.6s-0.2-0.4-0.1-0.8c0.1-0.4,0.3-0.7,0.5-0.6
				C182.9,110,182.9,110.3,182.8,110.7z"/>
			<path class="st2" d="M182.6,108.8c0,0,0.9-0.8,1,0.5"/>
			<path class="st2" d="M180.3,115.5c0,0,0.7,0.1,1.3-0.6"/>
		</g>
		<polygon class="st2" points="182.6,129.1 180.4,139.9 187.8,129.6 		"/>
		<path class="st10" d="M193.2,100.4c0,0-1.7-3.5-5.2-3.5s-5.9,3.1-5.8,5.5c0.1,2.4,3,3.7,3.6,4.1c0.5,0.4-1.5,1.6-0.5,3.6
			c1,1.9,2.6,2.9,2.6,2.9s1.6-1.9,3-0.5s0.1,2.9-0.9,3.4c-1,0.6-1.8,0.6-1.8,0.6s1.3,0.9,2.4,2c1.1,1.1,3.3,0.1,4-0.7
			s1.1-1.6,2.6-1.9c1.4-0.3,4.5-2.4,4.6-6.1s-1.1-6.1-3.8-7.9C195.2,100.2,193.2,100.4,193.2,100.4z"/>
	</g>
	<g>
		<path class="st9" d="M197.7,162.7l-1.7,2.2c0,0-2.9,1.5-2.9,2s-1.2,2.3-1.3,2.5s0.4,2.6,0.6,2.9c0.1,0.3,0,1.4,1,1.6
			c1,0.2,1.6-0.5,1.9-0.5c0.3,0,1.7,0.2,2.6-0.2c0.8-0.4,1.7-5.4,1.8-6s1.6-2.6,1.6-2.6L197.7,162.7z"/>
		<path class="st2" d="M192.1,169.7c0,0,0.1,0.1,0.4,0.7c0.2,0.6-0.1,1.9-0.1,1.9"/>
	</g>
	<path class="st8" d="M198.1,134.2c0,0-1.5,3.5-1.3,4s5.5,9.9,5.5,9.9l-5,14.8l4.4,2.8c0,0,8.6-18.8,8.9-19.3
		c0.3-0.5-6.3-18.6-6.3-18.6s-0.4-2.6-1.5-2.7s-3-0.7-3-0.7"/>
</g>
<g>
	<g>
		<path class="st12" d="M118.9,234.8c0,0,4.5,2.5,5.9,2.9s4.1,0.9,4.8,0.9s1.1,0.3,1.1,0.9c0,0.7-0.6,1.5-0.8,1.7
			c-0.3,0.2-7.2,1.6-8.9,1.6c-1.8,0-7.6,2.1-9.1,1.9c-1.5-0.2-2.1-0.7-2.3-1.4c-0.2-0.8,0.3-4.1,0.3-4.1L118.9,234.8z"/>
		<path class="st13" d="M129.9,241.3c0.3-0.2,0.8-1,0.8-1.7c0-0.4-0.1-0.6-0.4-0.8c-0.5,0.7-1.2,1.7-1.8,1.8
			c-0.9,0.2-10.4,1.9-12.9,2.1c-1.7,0.1-4.6,0.4-6.1,0.5c0,0.1,0,0.1,0,0.2c0.2,0.8,0.8,1.2,2.3,1.4s7.3-1.9,9.1-1.9
			C122.8,242.9,129.6,241.5,129.9,241.3z"/>
	</g>
	<g>
		<path class="st12" d="M74.2,238c0,0-0.1,0.9,0.3,2.3c0.4,1.3,2,3.5,1.9,4.6s-0.6,1.5-3.6,1.3s-6.2-0.2-7.3-2.4
			c-1.1-2.3,1.5-6.3,1.5-6.3L74.2,238z"/>
		<path class="st13" d="M76.4,244.9c0-0.2,0-0.4-0.1-0.7c-0.4,0.4-0.9,0.9-1.8,1.1c-1.6,0.3-4.9,0.3-7-0.8c-0.9-0.4-1.7-1-2.3-1.5
			c0,0.2,0.1,0.5,0.2,0.7c1.1,2.3,4.3,2.3,7.3,2.4C75.8,246.4,76.3,246,76.4,244.9z"/>
	</g>
	<path class="st14" d="M69.6,163.2l3.8,41.3l-5.6,26.6l-1.1,2.7v3.7c0,0,0.3-0.2,2.1,0.6c1.8,0.8,4.8,0,4.8,0l0.6-0.2l1.6-4.6
		l0.3-3.4c0,0,9.8-27.2,10.3-29.3s1.5-19.8,1.5-19.8l-0.2-4.5l14.7,26.5l6.2,30.1l-1,1.8l2.1,5.1l9.5-5l-0.6-3l-1.4-2.7
		c0,0-3.2-33.2-3.7-33.8s-14.1-32-14.1-32l-1.8-7.1L69.6,163.2z"/>
	<path class="st9" d="M97.4,116.6l3.9,10.9l-14.9-8.8l5.2,17.2c0,0,18.8,1,19.3-0.3c0.4-0.9-5.5-13.7-8.7-20.7L97.4,116.6z"/>
	<line class="st2" x1="98.6" y1="119.1" x2="103.5" y2="117.5"/>
	<path class="st9" d="M62.3,122.5l-11.9,11.1l15.8,22.7c0,0,0.8,5.6,2,6.7c1.1,1.1,2,1,2.5,1s25-5.6,26.8-6.2c1.8-0.7,2.3-2,2-3.3
		s-3.9-6.2-3.9-6.2l-9-29.7H75.5l-9.6,2.3L62.3,122.5z"/>
	<polygon class="st15" points="70.3,126.9 74.6,130.1 77.4,157.9 83,161.7 85.2,155.6 76,129.8 75.4,123 72.3,121.9 	"/>
	<path class="st9" d="M63.8,116.6c0,0-1.3,1-1.6,2.9c-0.3,1.8-0.5,3.5-0.5,3.5l5.7,8.1c0,0,3.3-4.3,3.5-4.6c0.3-0.3,0.9-0.4,0.9-0.4
		s1.9-1.2,2.3-1.7s1.1-1.2,3.3-0.7c2.2,0.5,3.9,1,3.9,1s-2.7-5.4-4.1-7c-1.5-1.6-3.9-1.9-5-1.9s-6,1-6,1L63.8,116.6z"/>
	<g>
		<path class="st9" d="M68.7,98c0,0,4.5,5.3,5.4,5.3s3.2-0.3,3.2,0.8s-0.3,1.7-0.3,1.7s2,5.6,2.4,7.2c0.5,1.7-3.6,2.6-3.6,2.6
			l-2,0.6c0,0,0.9,7.2,0.3,8.6s-2.3,1.7-2.3,1.7l-7.8-8.6l-0.2-2c0,0-8.3-7.4-8.1-8.4S68.7,98,68.7,98z"/>
		<path class="st11" d="M71.5,103.9c0.3,0.4,0.4,0.8,0.2,0.9c-0.2,0.1-0.5-0.1-0.8-0.5s-0.4-0.8-0.2-0.9S71.3,103.5,71.5,103.9z"/>
		<path class="st10" d="M69.1,103.1c0,0,0.8-1,2.4-0.9"/>
		<line class="st2" x1="77.9" y1="109.2" x2="76.6" y2="109.8"/>
	</g>
	<path class="st10" d="M76.9,105.6c0,0-3.7,2.6-3.9,3.6c-0.2,1,0.3,3.5,0.3,3.5s-3.2-0.4-4.1-0.4s-5-4.5-4.6-5s2.1-2.2,1.8-3
		c-0.3-0.9-2.6-1.2-1-2.7s8.9-4.1,9.2-5.6c0.3-1.6-4.8-1.8-5.8-0.9c-1,1-1.6,1.3-1.6,1.3s0.5-3.5-2.7-2.1c-3.2,1.4-6.7,4.3-8.6,8.3
		c-1.8,4-3,4.2-0.9,6.3c2.2,2.1,6.9,6.7,7.9,6.8c1,0.2,1.5,0.9,1.5,0.2s-1.9-3.2-1.5-4.2s0.8-1.6,1.6-0.4c0.9,1.1,2.2,3.6,3.8,4.4
		c1.6,0.8,5.5,0.2,5.5,0.2s5.2-1.2,5.9-2.4c0.7-1.2-0.4-3.1-0.9-3.4s-0.8-0.2-1,0.6c-0.2,0.8-1.5,1.6-1.8,0.7s-1-2.4-0.5-2.7
		c0.5-0.3,1.7-0.6,1.7-1.6C77.7,106,77.5,105.5,76.9,105.6z"/>
	<path class="st9" d="M65.7,111.2c0,0-1.8-1.9-3.1-1.8s-1.8,1.2-0.3,3s3.3,1.9,3.8,1.3s0-1.7,0-1.7"/>
	<g>
		<g>
			<line class="st16" x1="91.7" y1="115.4" x2="50.5" y2="172.7"/>
			<line class="st16" x1="113.5" y1="85.1" x2="91.7" y2="115.4"/>
		</g>
		<path class="st17" d="M134.2,22.1c-19.8,0-35.8,16-35.8,35.8s16,35.8,35.8,35.8s35.8-16,35.8-35.8S153.9,22.1,134.2,22.1z
			 M134.2,88.7c-17.1,0-30.9-13.8-30.9-30.9s13.8-30.9,30.9-30.9s30.9,13.8,30.9,30.9S151.2,88.7,134.2,88.7z"/>
	</g>
	<g>
		<g>
			<g>
				<path class="st9" d="M97.4,116.6l4.8-1.8c-1.3-2.7-2.2-4.6-2.2-4.6s4.4-4.9,4.4-5.9s-1.5-3.9-2.6-4.6s-2.8,2-3.1,2.8
					c-0.3,0.8,0.5,4.6,0.5,4.6l-3.4,4.9L97.4,116.6z"/>
			</g>
			<line class="st2" x1="99.2" y1="101.9" x2="100.7" y2="106.4"/>
			<line class="st2" x1="100.2" y1="100.3" x2="102.3" y2="105.3"/>
			<line class="st2" x1="101.5" y1="99.6" x2="103.7" y2="104.5"/>
		</g>
	</g>
	<g>
		<path class="st9" d="M50.4,133.6c0,0,2.4,33.9,3.5,34.6c1.1,0.6,4.6-1.8,4.6-1.8l3.2-16.5L50.4,133.6z"/>
		<g>
			<path class="st9" d="M54.4,158.7l14.6-13l-0.1-3.8l3.4-2.9c0,0,0.7-2.1,1.1-1.2c0.4,0.9,0.7,1.4,0.3,2c-0.4,0.6-1.5,2-1.5,2
				l4.9-0.9c0,0,1.2,0.8,0.8,1.4c-0.4,0.6-1.4,1.2-1.4,1.2l-0.6,1.4c0,0-0.4,1.8-0.9,2.5c-0.6,0.8-3.5,1.6-3.5,1.6
				s-10.7,15.8-12.1,17.8s-3.6,4.4-5.2,4.2c-1.6-0.2-1.6-9.2-1.6-9.2"/>
			<path class="st9" d="M77.1,140.7l-4.9,0.9c0,0,1.1-1.4,1.5-2s0.1-1.1-0.3-2s-1.1,1.2-1.1,1.2l-3.4,2.9l0.1,3.8l-2.1,1.9l3.4,3
				c0.7-1,1.1-1.7,1.1-1.7s2.9-0.8,3.5-1.6s0.9-2.5,0.9-2.5l0.6-1.4c0,0,1-0.5,1.4-1.2C78.3,141.5,77.1,140.7,77.1,140.7z"/>
			<line class="st2" x1="65.2" y1="149.2" x2="68.9" y2="152.4"/>
		</g>
	</g>
</g>
</svg>
