<?xml version="1.0" encoding="utf-8"?>
<!-- Generator: Adobe Illustrator 24.1.1, SVG Export Plug-In . SVG Version: 6.00 Build 0)  -->
<svg version="1.1" id="Layer_1" xmlns="http://www.w3.org/2000/svg" xmlns:xlink="http://www.w3.org/1999/xlink" x="0px" y="0px"
	 viewBox="0 0 263 250" style="enable-background:new 0 0 263 250;" xml:space="preserve">
<style type="text/css">
	.st0{fill:#9BD2A5;}
	.st1{fill:#E4E8F9;}
	.st2{fill:none;stroke:#263238;stroke-width:0.25;stroke-miterlimit:10;}
	.st3{opacity:0.3;}
	.st4{fill:none;stroke:#000000;stroke-width:0.25;stroke-linecap:round;stroke-linejoin:round;stroke-miterlimit:10;}
	.st5{opacity:0.3;enable-background:new    ;}
	
		.st6{opacity:0.3;fill:none;stroke:#000000;stroke-width:0.25;stroke-linecap:round;stroke-linejoin:round;stroke-miterlimit:10;enable-background:new    ;}
	.st7{fill:none;stroke:#918E8E;stroke-width:0.25;stroke-miterlimit:10;}
	.st8{fill:#F7D169;stroke:#000000;stroke-width:0.25;stroke-miterlimit:10;}
	.st9{fill:none;stroke:#263238;stroke-width:0.25;stroke-linecap:round;stroke-miterlimit:10;}
	.st10{fill:#F6461D;}
	.st11{fill:#263238;stroke:#263238;stroke-width:0.25;stroke-linecap:round;stroke-linejoin:round;stroke-miterlimit:10;}
	.st12{fill:#FFFFFF;stroke:#263238;stroke-width:0.25;stroke-linecap:round;stroke-linejoin:round;stroke-miterlimit:10;}
	.st13{fill:#CBC9C9;stroke:#263238;stroke-width:0.25;stroke-linecap:round;stroke-linejoin:round;stroke-miterlimit:10;}
	.st14{fill:#9F9B9B;stroke:#263238;stroke-width:0.25;stroke-linecap:round;stroke-linejoin:round;stroke-miterlimit:10;}
	.st15{fill:#A3B5F7;}
	.st16{fill:#0E31AE;}
	.st17{fill:#EAEF35;stroke:#263238;stroke-width:0.25;stroke-linecap:round;stroke-linejoin:round;stroke-miterlimit:10;}
	.st18{fill:none;stroke:#263238;stroke-width:0.25;stroke-linecap:round;stroke-linejoin:round;stroke-miterlimit:10;}
	.st19{enable-background:new    ;}
	.st20{fill:#010101;}
	.st21{fill:none;stroke:#EFEFEF;stroke-width:0.25;stroke-linecap:round;stroke-linejoin:round;stroke-miterlimit:10;}
	.st22{fill:#263238;}
</style>
<g>
	<path class="st0" d="M234.7,67.2c-0.7-1.2-1.5-2.5-2.3-3.7c-10.7-15.9-29.2-26.8-47.4-31.7c-8-2.2-16.2-3.3-24.4-3.6
		C106.6,26.5,85.1,69,67.3,80S22,109.8,23.8,149.1c1.8,39.4,30.2,76.4,85.1,78.7s58.6-22.4,89.2-31.6c20.3-6.1,34.7-26.5,41.8-45.4
		C249.5,125.1,249.1,91.6,234.7,67.2z"/>
	<path class="st1" d="M234.7,67.2c-0.7-1.2-1.5-2.5-2.3-3.7c-10.7-15.9-29.2-26.8-47.4-31.7c-8-2.2-16.2-3.3-24.4-3.6
		C106.6,26.5,85.1,69,67.3,80S22,109.8,23.8,149.1c1.8,39.4,30.2,76.4,85.1,78.7s58.6-22.4,89.2-31.6c20.3-6.1,34.7-26.5,41.8-45.4
		C249.5,125.1,249.1,91.6,234.7,67.2z"/>
</g>
<g>
	<line class="st2" x1="160.4" y1="234.8" x2="237.4" y2="234.8"/>
	<line class="st2" x1="36.3" y1="234.8" x2="154.5" y2="234.8"/>
	<line class="st2" x1="24.5" y1="234.8" x2="32.9" y2="234.8"/>
</g>
<g>
	<g class="st3">
		<g>
			<polyline class="st4" points="105.9,196.2 95.8,196.2 95.8,172.3 111.6,172.3 113.8,175.4 113.8,177.4 			"/>
			<polygon class="st4" points="111.6,172.3 111.6,175.7 113.8,175.7 			"/>
		</g>
		<line class="st4" x1="98.6" y1="179.1" x2="103.9" y2="179.1"/>
		<line class="st4" x1="98.6" y1="182.5" x2="103.9" y2="182.5"/>
		<line class="st4" x1="98.6" y1="185.9" x2="103.9" y2="185.9"/>
		<line class="st4" x1="98.6" y1="189.3" x2="103.9" y2="189.3"/>
	</g>
	<rect x="103.9" y="178.8" class="st5" width="2" height="17.2"/>
	<g class="st3">
		<g>
			<polygon class="st4" points="123.8,201.7 106.1,201.7 106.1,177.8 121.6,177.8 123.8,180.9 			"/>
			<polygon class="st4" points="121.6,177.8 121.6,181.2 123.8,181.2 			"/>
		</g>
		<line class="st4" x1="108.6" y1="184.6" x2="121.2" y2="184.6"/>
		<line class="st4" x1="108.6" y1="188" x2="121.2" y2="188"/>
		<line class="st4" x1="108.6" y1="191.4" x2="121.2" y2="191.4"/>
		<line class="st4" x1="108.6" y1="194.8" x2="121.2" y2="194.8"/>
	</g>
</g>
<polygon class="st6" points="68.2,36.2 67.3,33.8 57.2,33.8 57.2,36.2 57.2,48.3 57.2,50.7 78.5,50.7 78.5,36.2 "/>
<polygon class="st6" points="43.6,36.2 42.8,33.8 32.7,33.8 32.7,36.2 32.7,48.3 32.7,50.7 54,50.7 54,36.2 "/>
<polygon class="st6" points="202.8,160.8 201.9,158.3 191.8,158.3 191.8,160.8 191.8,172.8 191.8,175.3 213.1,175.3 213.1,160.8 "/>
<polygon class="st6" points="178.2,160.8 177.4,158.3 167.3,158.3 167.3,160.8 167.3,172.8 167.3,175.3 188.6,175.3 188.6,160.8 "/>
<polygon class="st6" points="43.6,58.9 42.8,56.5 32.7,56.5 32.7,58.9 32.7,71 32.7,73.4 54,73.4 54,58.9 "/>
<g>
	<g>
		<rect x="218.4" y="78.8" class="st7" width="24.4" height="4.9"/>
		<rect x="218.4" y="84.9" class="st7" width="24.4" height="4.9"/>
		<rect x="218.4" y="91" class="st7" width="24.4" height="4.9"/>
		<rect x="218.4" y="97.1" class="st7" width="24.4" height="4.9"/>
		<rect x="218.4" y="103.2" class="st7" width="24.4" height="4.9"/>
		<path class="st7" d="M235.6,81.4c0-0.5-0.4-0.9-0.9-0.9s-0.9,0.4-0.9,0.9s0.4,0.9,0.9,0.9C235.2,82.3,235.6,81.9,235.6,81.4z"/>
		<path class="st7" d="M238.7,81.4c0-0.5-0.4-0.9-0.9-0.9s-0.9,0.4-0.9,0.9s0.4,0.9,0.9,0.9S238.7,81.9,238.7,81.4z"/>
		<circle class="st7" cx="234.7" cy="87.3" r="0.9"/>
		<circle class="st7" cx="237.8" cy="87.3" r="0.9"/>
		<circle class="st7" cx="234.7" cy="93.3" r="0.9"/>
		<circle class="st7" cx="237.8" cy="93.3" r="0.9"/>
		<path class="st7" d="M235.6,99.3c0-0.5-0.4-0.9-0.9-0.9s-0.9,0.4-0.9,0.9s0.4,0.9,0.9,0.9C235.2,100.2,235.6,99.8,235.6,99.3z"/>
		<path class="st7" d="M238.7,99.3c0-0.5-0.4-0.9-0.9-0.9s-0.9,0.4-0.9,0.9s0.4,0.9,0.9,0.9C238.3,100.2,238.7,99.8,238.7,99.3z"/>
		<circle class="st7" cx="234.7" cy="105.2" r="0.9"/>
		<circle class="st7" cx="237.8" cy="105.2" r="0.9"/>
	</g>
	<polyline class="st7" points="229.4,78.6 229.4,26.4 153.2,26.4 153.2,183.9 229,183.9 229,108.4 	"/>
</g>
<g>
	<g>
		<ellipse class="st8" cx="198" cy="194.2" rx="4.9" ry="12.7"/>
		<ellipse transform="matrix(0.3028 -0.9531 0.9531 0.3028 -30.333 328.6129)" class="st8" cx="209.4" cy="185" rx="9.1" ry="4"/>
		<path class="st8" d="M177.5,215.1c-4.9-0.8-8.7-3.3-8.3-5.4c0.4-2.2,4.7-3.2,9.6-2.4c4.9,0.8,8.7,3.3,8.3,5.4
			C186.7,214.9,182.4,216,177.5,215.1z"/>
		<ellipse transform="matrix(0.71 -0.7042 0.7042 0.71 -78.6094 208.8917)" class="st8" cx="214.3" cy="199.9" rx="10.5" ry="4.9"/>
		
			<ellipse transform="matrix(0.8234 -0.5675 0.5675 0.8234 -78.2111 139.3216)" class="st8" cx="184.7" cy="195.3" rx="5.6" ry="12.7"/>
		<line class="st9" x1="198.4" y1="206.3" x2="198.8" y2="223.8"/>
		<line class="st9" x1="197.9" y1="189.4" x2="198.4" y2="206.3"/>
		<line class="st9" x1="198" y1="186.7" x2="197.9" y2="188"/>
		<path class="st9" d="M191.9,204.9c2.4,5.1,4.4,11.3,4.8,18.4"/>
		<path class="st9" d="M183.5,192.2c2.3,2.6,5.6,7,8.3,12.8"/>
		<path class="st9" d="M180.9,189.4c0,0,0.5,0.5,1.3,1.3"/>
		<path class="st9" d="M207.1,206.7c-2.8,3.9-5.7,9-7.9,15.6"/>
		<path class="st9" d="M212.7,200.3c-1.7,1.6-3.6,3.7-5.6,6.4"/>
		<path class="st9" d="M218.7,195.8c0,0-1.7,0.9-4.3,3"/>
		<path class="st9" d="M206.9,192.6c-2.7,8.5-6.3,21-8,31.8"/>
		<path class="st9" d="M208.5,187.6c-0.5,1.4-1,3.1-1.6,5"/>
		<path class="st9" d="M210.2,182.7c0,0-0.5,1.3-1.2,3.5"/>
		<path class="st9" d="M186.8,211.6c3.4,1.3,6.6,3.7,8.2,8.4"/>
		<path class="st9" d="M180.6,210.3c1.8,0.1,4,0.4,6.2,1.3"/>
		<path class="st9" d="M176.6,210.4c0,0,0.6-0.1,1.6-0.1"/>
		<path class="st8" d="M219.8,215.1c4.9-0.8,8.7-3.3,8.3-5.4c-0.4-2.2-4.7-3.2-9.6-2.4c-4.9,0.8-8.7,3.3-8.3,5.4
			C210.5,214.9,214.9,216,219.8,215.1z"/>
		<path class="st9" d="M210.5,211.5c-3.4,1.3-6.7,3.7-8.3,8.4"/>
		<path class="st9" d="M217.2,210.3c-1.9,0.1-4.3,0.4-6.6,1.2"/>
		<path class="st9" d="M220.7,210.4c0,0-0.4-0.1-1.1-0.1"/>
	</g>
	<g>
		<path class="st10" d="M210.5,234.8c1.5-3,2.3-6.5,2.3-10c0-2.2-0.3-4.2-0.9-6.1H186c-0.6,1.9-0.9,4-0.9,6.1c0,3.5,0.8,7,2.3,10
			H210.5z"/>
		<g>
			<path class="st1" d="M185.3,221.6c-0.1,0.5-0.1,0.9-0.2,1.4h27.5c0-0.5-0.1-1-0.2-1.4H185.3z"/>
			<path class="st1" d="M212.4,228.9c0.1-0.5,0.2-1,0.2-1.4h-27.4c0.1,0.5,0.1,1,0.2,1.4H212.4z"/>
		</g>
		<path class="st1" d="M188.4,224.9c0,0.6-0.5,1.1-1.1,1.1s-1.1-0.5-1.1-1.1s0.5-1.1,1.1-1.1S188.4,224.3,188.4,224.9z"/>
		<path class="st1" d="M194,224.9c0,0.6-0.5,1.1-1.1,1.1s-1.1-0.5-1.1-1.1s0.5-1.1,1.1-1.1C193.5,223.8,194,224.3,194,224.9z"/>
		<path class="st1" d="M199.5,224.9c0,0.6-0.5,1.1-1.1,1.1s-1.1-0.5-1.1-1.1s0.5-1.1,1.1-1.1S199.5,224.3,199.5,224.9z"/>
		<path class="st1" d="M205.1,224.9c0,0.6-0.5,1.1-1.1,1.1s-1.1-0.5-1.1-1.1s0.5-1.1,1.1-1.1S205.1,224.3,205.1,224.9z"/>
		<path class="st1" d="M210.7,224.9c0,0.6-0.5,1.1-1.1,1.1s-1.1-0.5-1.1-1.1s0.5-1.1,1.1-1.1C210.2,223.8,210.7,224.3,210.7,224.9z"
			/>
	</g>
</g>
<g>
	<rect x="97.1" y="35.3" class="st11" width="118.8" height="120.3"/>
	<g>
		<rect x="93.1" y="32.8" class="st12" width="121.1" height="120.5"/>
		<g>
			<rect x="210.9" y="32.8" class="st13" width="3.2" height="120.5"/>
			<rect x="210.9" y="49.5" class="st14" width="3.2" height="24.3"/>
		</g>
		<g>
			<rect x="132.5" y="32.8" class="st13" width="3.2" height="120.5"/>
			<rect x="132.5" y="49.5" class="st14" width="3.2" height="49.3"/>
		</g>
		<rect x="93.1" y="32.8" class="st12" width="39.5" height="120.5"/>
		<rect x="93.1" y="32.8" class="st13" width="121.1" height="10.8"/>
		<rect x="93.9" y="71.6" class="st15" width="37.9" height="20.4"/>
		<g>
			<rect x="93.1" y="32.8" class="st16" width="121.1" height="5.7"/>
			<path class="st12" d="M201.6,35.8c0-0.7-0.6-1.3-1.3-1.3s-1.3,0.6-1.3,1.3s0.6,1.3,1.3,1.3C201,37.2,201.6,36.6,201.6,35.8z"/>
			<path class="st12" d="M205.7,35.8c0-0.7-0.6-1.3-1.3-1.3s-1.3,0.6-1.3,1.3s0.6,1.3,1.3,1.3C205.1,37.2,205.7,36.6,205.7,35.8z"/>
			<path class="st12" d="M209.7,35.8c0-0.7-0.6-1.3-1.3-1.3s-1.3,0.6-1.3,1.3s0.6,1.3,1.3,1.3C209.1,37.2,209.7,36.6,209.7,35.8z"/>
		</g>
		<g>
			<polygon class="st12" points="113.9,55.1 113.2,52.9 104,52.9 104,55.1 104,66 104,68.2 123.2,68.2 123.2,55.1 			"/>
			<rect x="104.9" y="56.4" class="st12" width="17.5" height="9.6"/>
			<rect x="104" y="58.5" class="st12" width="19.2" height="9.6"/>
		</g>
		<g>
			<polygon class="st12" points="113.9,99.8 113.2,97.6 104,97.6 104,99.8 104,110.7 104,112.9 123.2,112.9 123.2,99.8 			"/>
			<rect x="104.9" y="101.1" class="st12" width="17.5" height="9.6"/>
			<rect x="104" y="103.2" class="st12" width="19.2" height="9.6"/>
		</g>
		<g>
			<polygon class="st12" points="113.9,122.6 113.2,120.4 104,120.4 104,122.6 104,133.5 104,135.7 123.2,135.7 123.2,122.6 			"/>
			<rect x="104.9" y="123.9" class="st12" width="17.5" height="9.6"/>
			<rect x="104" y="126" class="st12" width="19.2" height="9.6"/>
		</g>
		<g>
			<polygon class="st17" points="113.9,76.4 113.2,74.2 104,74.2 104,76.4 104,87.3 104,89.5 123.2,89.5 123.2,76.4 			"/>
			<rect x="104.9" y="77.7" class="st12" width="17.5" height="9.6"/>
			<rect x="104" y="79.8" class="st17" width="19.2" height="9.6"/>
		</g>
		<g>
			<g>
				<rect x="139.9" y="53.9" class="st12" width="17.7" height="22.7"/>
				<line class="st18" x1="142.3" y1="58.4" x2="155.1" y2="58.4"/>
				<line class="st18" x1="142.3" y1="62.4" x2="155.1" y2="62.4"/>
				<line class="st18" x1="142.3" y1="66.3" x2="155.1" y2="66.3"/>
				<line class="st18" x1="142.3" y1="70.3" x2="155.1" y2="70.3"/>
			</g>
			<g>
				<rect x="163.3" y="53.9" class="st12" width="17.7" height="22.7"/>
				<line class="st18" x1="165.7" y1="58.4" x2="178.5" y2="58.4"/>
				<line class="st18" x1="165.7" y1="62.4" x2="178.5" y2="62.4"/>
				<line class="st18" x1="165.7" y1="66.3" x2="178.5" y2="66.3"/>
				<line class="st18" x1="165.7" y1="70.3" x2="178.5" y2="70.3"/>
			</g>
			<g>
				<rect x="186.7" y="53.9" class="st12" width="17.7" height="22.7"/>
				<line class="st18" x1="189.1" y1="58.4" x2="201.9" y2="58.4"/>
				<line class="st18" x1="189.1" y1="62.4" x2="201.9" y2="62.4"/>
				<line class="st18" x1="189.1" y1="66.3" x2="201.9" y2="66.3"/>
				<line class="st18" x1="189.1" y1="70.3" x2="201.9" y2="70.3"/>
			</g>
			<line class="st18" x1="140.5" y1="81.5" x2="156.9" y2="81.5"/>
			<line class="st18" x1="164.1" y1="81.5" x2="180.5" y2="81.5"/>
			<line class="st18" x1="187.7" y1="81.5" x2="204.2" y2="81.5"/>
		</g>
		<g>
			<g>
				<rect x="139.9" y="87.7" class="st12" width="17.7" height="22.7"/>
				<line class="st18" x1="142.3" y1="92.2" x2="155.1" y2="92.2"/>
				<line class="st18" x1="142.3" y1="96.2" x2="155.1" y2="96.2"/>
				<line class="st18" x1="142.3" y1="100.1" x2="155.1" y2="100.1"/>
				<line class="st18" x1="142.3" y1="104.1" x2="155.1" y2="104.1"/>
			</g>
			<g>
				<rect x="163.3" y="87.7" class="st12" width="17.7" height="22.7"/>
				<line class="st18" x1="165.7" y1="92.2" x2="178.5" y2="92.2"/>
				<line class="st18" x1="165.7" y1="96.2" x2="178.5" y2="96.2"/>
				<line class="st18" x1="165.7" y1="100.1" x2="178.5" y2="100.1"/>
				<line class="st18" x1="165.7" y1="104.1" x2="178.5" y2="104.1"/>
			</g>
			<g>
				<rect x="186.7" y="87.7" class="st12" width="17.7" height="22.7"/>
				<line class="st18" x1="189.1" y1="92.2" x2="201.9" y2="92.2"/>
				<line class="st18" x1="189.1" y1="96.2" x2="201.9" y2="96.2"/>
				<line class="st18" x1="189.1" y1="100.1" x2="201.9" y2="100.1"/>
				<line class="st18" x1="189.1" y1="104.1" x2="201.9" y2="104.1"/>
			</g>
			<line class="st18" x1="140.5" y1="115.3" x2="156.9" y2="115.3"/>
			<line class="st18" x1="164.1" y1="115.3" x2="180.5" y2="115.3"/>
			<line class="st18" x1="187.7" y1="115.3" x2="204.2" y2="115.3"/>
		</g>
		<g>
			<g>
				<rect x="139.9" y="121.5" class="st12" width="17.7" height="22.7"/>
				<line class="st18" x1="142.3" y1="126" x2="155.1" y2="126"/>
				<line class="st18" x1="142.3" y1="130" x2="155.1" y2="130"/>
				<line class="st18" x1="142.3" y1="133.9" x2="155.1" y2="133.9"/>
				<line class="st18" x1="142.3" y1="137.9" x2="155.1" y2="137.9"/>
			</g>
			<g>
				<rect x="163.3" y="121.5" class="st12" width="17.7" height="22.7"/>
				<line class="st18" x1="165.7" y1="126" x2="178.5" y2="126"/>
				<line class="st18" x1="165.7" y1="130" x2="178.5" y2="130"/>
				<line class="st18" x1="165.7" y1="133.9" x2="178.5" y2="133.9"/>
				<line class="st18" x1="165.7" y1="137.9" x2="178.5" y2="137.9"/>
			</g>
			<g>
				<rect x="186.7" y="121.5" class="st12" width="17.7" height="22.7"/>
				<line class="st18" x1="189.1" y1="126" x2="201.9" y2="126"/>
				<line class="st18" x1="189.1" y1="130" x2="201.9" y2="130"/>
				<line class="st18" x1="189.1" y1="133.9" x2="201.9" y2="133.9"/>
				<line class="st18" x1="189.1" y1="137.9" x2="201.9" y2="137.9"/>
			</g>
			<line class="st18" x1="140.5" y1="149.1" x2="156.9" y2="149.1"/>
			<line class="st18" x1="164.1" y1="149.1" x2="180.5" y2="149.1"/>
			<line class="st18" x1="187.7" y1="149.1" x2="204.2" y2="149.1"/>
		</g>
		<rect x="114.6" y="39.8" class="st12" width="50.7" height="2.3"/>
		<rect x="168.7" y="39.8" class="st12" width="15.3" height="2.3"/>
		<g class="st19">
			<path class="st20" d="M140.5,46.3h0.5v3.3h1.6V50h-2.1V46.3z"/>
			<path class="st20" d="M143.7,46.6c0,0.2-0.1,0.3-0.3,0.3s-0.3-0.1-0.3-0.3s0.1-0.3,0.3-0.3C143.6,46.3,143.7,46.4,143.7,46.6z
				 M143.1,50v-2.7h0.5V50H143.1z"/>
			<path class="st20" d="M144.4,48.1c0-0.3,0-0.5,0-0.7h0.4v0.4l0,0c0.1-0.3,0.4-0.5,0.8-0.5c0.4,0,0.6,0.2,0.8,0.5l0,0
				c0.1-0.1,0.2-0.3,0.3-0.3c0.2-0.1,0.3-0.2,0.6-0.2c0.4,0,0.9,0.2,0.9,1.2V50h-0.5v-1.5c0-0.5-0.2-0.8-0.6-0.8
				c-0.3,0-0.5,0.2-0.6,0.4c0,0.1,0,0.2,0,0.2V50H146v-1.6c0-0.4-0.2-0.7-0.6-0.7c-0.3,0-0.5,0.2-0.6,0.5c0,0.1,0,0.2,0,0.2V50h-0.5
				v-1.9H144.4z"/>
			<path class="st20" d="M150.6,50v-0.3l0,0c-0.2,0.2-0.4,0.4-0.8,0.4c-0.5,0-0.8-0.4-0.8-0.8c0-0.6,0.6-1,1.6-1v-0.1
				c0-0.2-0.1-0.6-0.6-0.6c-0.3,0-0.5,0.1-0.7,0.2l-0.1-0.3c0.2-0.1,0.5-0.2,0.9-0.2c0.8,0,1,0.6,1,1.1v1c0,0.2,0,0.5,0,0.6
				C151.1,50,150.6,50,150.6,50z M150.5,48.7c-0.5,0-1.1,0.1-1.1,0.6c0,0.3,0.2,0.5,0.5,0.5s0.6-0.2,0.6-0.5c0,0,0-0.1,0-0.2V48.7z"
				/>
			<path class="st20" d="M153.4,46.7h-1.1v-0.4h2.8v0.4H154V50h-0.5L153.4,46.7L153.4,46.7z"/>
			<path class="st20" d="M156.6,50v-0.3l0,0c-0.2,0.2-0.4,0.4-0.8,0.4c-0.5,0-0.8-0.4-0.8-0.8c0-0.6,0.6-1,1.6-1v-0.1
				c0-0.2-0.1-0.6-0.6-0.6c-0.3,0-0.5,0.1-0.7,0.2l-0.1-0.3c0.2-0.1,0.5-0.2,0.9-0.2c0.8,0,1,0.6,1,1.1v1c0,0.2,0,0.5,0,0.6
				C157.1,50,156.6,50,156.6,50z M156.5,48.7c-0.5,0-1.1,0.1-1.1,0.6c0,0.3,0.2,0.5,0.5,0.5s0.6-0.2,0.6-0.5c0,0,0-0.1,0-0.2V48.7z"
				/>
			<path class="st20" d="M157.8,46.1h0.5v1.7l0,0c0.1-0.1,0.2-0.3,0.4-0.3c0.1-0.1,0.3-0.1,0.5-0.1c0.4,0,0.9,0.2,0.9,1.1V50h-0.5
				v-1.5c0-0.4-0.2-0.8-0.6-0.8c-0.3,0-0.6,0.2-0.7,0.5c0,0.1,0,0.1,0,0.2V50h-0.5L157.8,46.1L157.8,46.1z"/>
			<path class="st20" d="M163.1,49.3c0,0.3,0,0.5,0,0.7h-0.4v-0.4l0,0c-0.1,0.2-0.4,0.5-0.9,0.5c-0.4,0-0.9-0.2-0.9-1.2v-1.6h0.5
				v1.5c0,0.5,0.2,0.9,0.6,0.9c0.3,0,0.6-0.2,0.6-0.4c0-0.1,0-0.2,0-0.3v-1.6h0.5L163.1,49.3L163.1,49.3z"/>
			<path class="st20" d="M163.8,47.4c0.5,0,0.5,0,0.5,0l0,0.4l0,0c0.1-0.3,0.4-0.5,0.9-0.5c0.4,0,0.9,0.2,0.9,1.1V50h-0.5v-1.5
				c0-0.4-0.2-0.8-0.6-0.8c-0.3,0-0.6,0.2-0.7,0.5c0,0.1,0,0.1,0,0.2V50h-0.5v-1.9L163.8,47.4z"/>
			<path class="st20" d="M168.5,50v-0.3l0,0c-0.1,0.2-0.4,0.4-0.8,0.4c-0.5,0-0.8-0.4-0.8-0.8c0-0.6,0.6-1,1.6-1v-0.1
				c0-0.2-0.1-0.6-0.6-0.6c-0.3,0-0.5,0.1-0.7,0.2l-0.1-0.3c0.2-0.1,0.5-0.2,0.9-0.2c0.8,0,1,0.6,1,1.1v1c0,0.2,0,0.5,0,0.6
				C169,50,168.5,50,168.5,50z M168.4,48.7c-0.5,0-1.1,0.1-1.1,0.6c0,0.3,0.2,0.5,0.5,0.5c0.4,0,0.6-0.2,0.7-0.5c0,0,0-0.1,0-0.2
				L168.4,48.7L168.4,48.7z"/>
			<path class="st20" d="M169.6,47.4C169.6,47.1,169.6,47.6,169.6,47.4l0.5,0v0.4l0,0c0.1-0.3,0.4-0.5,0.9-0.5
				c0.4,0,0.9,0.2,0.9,1.1V50h-0.5v-1.5c0-0.4-0.2-0.8-0.6-0.8c-0.3,0-0.6,0.2-0.7,0.5c0,0.1,0,0.1,0,0.2V50h-0.5v-1.9L169.6,47.4z"
				/>
		</g>
	</g>
</g>
<g>
	<path class="st12" d="M94,108.8l13.3-15.7c0,0,0.1-3.6-0.1-4.3c-0.3-0.7,0.7-3.5,0.9-4.4c0.3-0.9-0.5-2.5,0.4-2.5s1.2,2.5,1.2,2.9
		s0,0.4,0,0.4s2.3-5.6,2.5-6.1c0.3-0.5,1.1-1.1,1.3,0c0.3,1.1-1.3,5-1.3,5s1.2-0.3,1.9,0.7c0.7,0.9,1.2,0.5,1.5,1.2s0.4,1.2,0.4,1.2
		s1.7,0.8,1.9,1.3c0.1,0.5-2.8,0.4-2.8,0.4s-2.8,4.5-3.9,5s-2,1.3-2,1.3s-8,17.9-9.4,20.3c-1.5,2.4-6.1,0.8-6.1,0.8L94,108.8z"/>
	<path class="st12" d="M45.6,174.9l1.9,11.6c0,0-4.8,10.9-3.5,16.5s5.7,23.4,5.7,23.4s-0.7,7.2-0.3,7.8c0.4,0.7,3.5,0.5,4.3,0.3
		c0.8-0.3,1.9-0.8,1.9-2.9c0-2.1-1.2-5.6-1.2-7c0-1.5-0.1-17.1,2.4-27c2.5-9.8,2-18.5,2-19.1S45.6,174.9,45.6,174.9z"/>
	<g>
		<path class="st11" d="M49.5,229.6c-0.1,2-0.2,4.2,0,4.5c0.4,0.7,3.5,0.5,4.3,0.3c0.8-0.3,1.9-0.8,1.9-2.9c0-0.7-0.1-1.6-0.3-2.5
			C52.9,230.3,50.8,230,49.5,229.6z"/>
		<path class="st12" d="M53.7,234.4c0.6-0.2,1.3-0.5,1.6-1.4c-2.1,0.4-4.5,0.3-6,0.2c0,0.5,0,0.8,0.1,0.9
			C49.9,234.8,52.9,234.6,53.7,234.4z"/>
	</g>
	<g>
		<path class="st12" d="M72.3,176.7l4,7c0,0,0.3,9.6,3.6,17.3c3.3,7.7,12.2,23.9,12.4,24.4c0.1,0.5,0,2.7,0,4.6c0,2,0.3,3.9,1.1,4
			c0.8,0.1,3.5,0.8,6.8,1.3s4.5-0.3,4.8-0.9c0.3-0.7-2.8-2.8-4.3-4.5s-3.7-4.6-4.6-7.7c-0.9-3.1-3.5-23.4-4.8-27.5s-3.3-12-3.3-12
			l-1.3-9.6L72.3,176.7z"/>
		<g>
			<path class="st11" d="M104.9,234.5c0.1-0.3-0.3-0.8-1-1.4c-2,1-5.1-1.3-7.6-3.2c-1.6-1.3-3.1-1.2-4-1c0,0.4,0,0.8,0,1.2
				c0,2,0.3,3.9,1.1,4c0.8,0.1,3.5,0.8,6.8,1.3C103.4,236,104.6,235.2,104.9,234.5z"/>
			<path class="st12" d="M104.5,235c-2.1,0.8-4.3-0.7-6.9-1.7c-2-0.8-4-1-5.2-1.1c0.1,1.1,0.4,1.9,0.9,1.9c0.8,0.1,3.5,0.8,6.8,1.3
				C102.6,235.8,103.9,235.5,104.5,235z"/>
		</g>
	</g>
	<g>
		<path class="st16" d="M51.9,128.2c0,0-7.2,9.8-8.1,17.3c-0.9,7.4,0.7,31.4,0.7,31.4s3.1,2.4,15.9,3.3c12.9,0.9,27.5-5.3,27.5-5.3
			s-4-22.7-6.2-29.5c-2.3-6.8-7.4-16.7-7.4-16.7L51.9,128.2z"/>
		<path class="st21" d="M58.7,156.3c3.7,3.6,9.6,8.8,14.2,11.5"/>
		<path class="st21" d="M54.9,152.6c0,0,0.6,0.7,1.7,1.7"/>
		<path class="st21" d="M62.6,162c0,0,7.1,6.2,9.9,7.7"/>
	</g>
	<g>
		<path class="st12" d="M53.9,92.1c0,0-10.6,6.4-10.1,7.6s8.1,28.6,8.1,28.6s2.5,1.6,10.4,1.6c7.8,0,12-1.2,12-1.2l5-16.5l12.5,5.6
			c0,0,0.9-3.9,0.9-5.3c0-1.5-0.9-4.6-0.9-4.6s-12.6-10-13.9-11c-1.3-1.1-8.2-3.9-8.2-3.9L53.9,92.1z"/>
		<path class="st18" d="M65.3,116.4c0.5,0.7,1,1.2,1.6,1.7"/>
		<path class="st18" d="M59.7,105.2c0,0,1.9,5.5,4.6,9.7"/>
		<path class="st18" d="M61.4,114.1c0,0,3.1,4.6,5.4,6.4"/>
		<line class="st18" x1="79.2" y1="112.1" x2="74.6" y2="110.3"/>
	</g>
	<g>
		<path class="st12" d="M73.3,69.2c0,0,0.5,3.7,1.2,5.7s2.5,2.3,2.5,3.3c0,1.1-2.3,3.2-2.3,3.2s-0.9,5.8-1.9,6.5
			c-0.9,0.7-4.6-0.9-4.6-0.9l-0.9,4.1L60.5,91c0,0,0.4-4.3-0.5-6.6c-0.9-2.4-1.7-4.1-1.7-4.1s-2.4-7.8,4.1-10.4
			C68.9,67.4,73.3,69.2,73.3,69.2z"/>
		<path class="st11" d="M68.4,77.6c0,0,0.1-0.8,1.5-2c1.3-1.2,0.8-2.7,0.9-4.4c0.1-1.7,1.5-1.3,2.3-1.2c0.8,0.1,2.9-1.2,0-4.9
			c-2.9-3.7-12.2-3.6-15-1.6s-7.6,4.8-4,11.7c3.6,6.9,5.6,9.2,6.9,10c1.3,0.8,4.8-1.7,5.6-2.4C67.3,82.1,68.4,77.6,68.4,77.6z"/>
		<path class="st11" d="M59.4,66.2c0,0-1.1,3.7-3.6,4.9s-7,2-8.6-0.5s-1.6-9.2,2.7-11c4.3-1.9,8.1,0.5,9,2.8
			C59.8,64.6,59.4,66.2,59.4,66.2z"/>
		<path class="st12" d="M69.4,78.7c0,0-2.4-4.9-2.4-2.3c0,2.7,0.4,5.3,0.8,5.7c0.4,0.4,1.5-0.5,1.5-0.5"/>
		<path class="st22" d="M73.8,75.8c0,0.5-0.1,0.9-0.3,0.9s-0.3-0.4-0.3-0.9s0.1-0.9,0.3-0.9S73.8,75.4,73.8,75.8z"/>
		<path class="st18" d="M72.9,74.2c0,0,0.2-1,1-0.6"/>
	</g>
	<polygon class="st12" points="70.9,93.3 52.9,92.8 56.4,89.3 69.4,90 	"/>
	<path class="st12" d="M39.1,125c0,0-2.4,2.5-2.7,7.8s-1.6,21.1-1.6,22.9c0,1.7,0,7.6,0.4,8.4c0.4,0.8,3.1,2,3.1,2l-0.1-2.3v-3.2
		c0,0,0.7,2.3,1.2,1.7c0.5-0.5-0.1-2.7-0.1-3.5s0.3-2.9,0-4.4s-1.1-3.6-1.1-3.6s4.3-12.4,5.2-15.4c0.9-3.1,1.6-6.8,1.6-6.8L39.1,125
		z"/>
	<g>
		<polygon class="st12" points="43.8,99.7 39.1,125 45.8,128.5 49.6,120 		"/>
		<g>
			<polyline class="st18" points="45.6,113.4 49.6,120 43.8,113.9 			"/>
			<line class="st18" x1="43.8" y1="110.4" x2="44.9" y2="112.2"/>
		</g>
	</g>
	<polygon class="st12" points="39.3,120.1 48.6,125.2 45.6,129.9 38.3,126 	"/>
	<polygon class="st12" points="91.2,106.7 88.5,118.5 95.2,118.5 94.5,108.4 	"/>
</g>
</svg>
