<?xml version="1.0" encoding="utf-8"?>
<!-- Generator: Adobe Illustrator 24.1.1, SVG Export Plug-In . SVG Version: 6.00 Build 0)  -->
<svg version="1.1" id="Layer_1" xmlns="http://www.w3.org/2000/svg" xmlns:xlink="http://www.w3.org/1999/xlink" x="0px" y="0px"
	 viewBox="0 0 500 500" style="enable-background:new 0 0 500 500;" xml:space="preserve">
<style type="text/css">
	.st0{opacity:0.16;fill:#00AEEF;}
	.st1{opacity:0.43;fill:#CFE5ED;}
	.st2{fill:#AAC6CE;}
	.st3{fill:#86B1BB;}
	.st4{fill:#AA3624;}
	.st5{fill:#2E3192;}
	.st6{fill:#CFE5ED;}
	.st7{fill:none;stroke:#3F8CCB;stroke-miterlimit:10;}
	.st8{fill:#D1D3D4;stroke:#262262;stroke-miterlimit:10;}
	.st9{fill:#1E394C;}
	.st10{fill:#FFFFFF;}
	.st11{fill:#35658D;}
	.st12{fill:#6EB7E5;}
	.st13{opacity:0.25;fill:#35658D;}
	.st14{fill:#F4C88F;}
	.st15{fill:#0F2A3F;}
	.st16{fill:#F1F2F2;}
	.st17{fill:#E6E7E8;}
	.st18{fill:#EA9349;}
	.st19{fill:#80A9B2;}
	.st20{fill:#F1BF75;}
	.st21{opacity:0.67;fill:#EA9349;}
	.st22{fill:#F7D169;}
	.st23{fill:#DDBB65;}
	.st24{opacity:0.29;fill:#35658D;}
	.st25{fill:#BBA160;}
	.st26{fill:#3F8CCB;}
	.st27{fill:#2174AB;}
	.st28{fill:#1B3651;}
</style>
<g>
	<path class="st0" d="M118,467.1h263.9c58.8-40.5,97.3-107.4,97.3-183.1c0-123.7-102.6-241.8-229.2-241.8
		C123.3,42.3,20.7,160.3,20.7,284C20.7,359.7,59.2,426.6,118,467.1z"/>
	<ellipse class="st1" cx="249.9" cy="467.8" rx="241.6" ry="9.5"/>
	<g>
		<rect x="160.1" y="353.2" class="st2" width="11" height="105.1"/>
		<rect x="160.1" y="353.2" class="st3" width="11" height="14.8"/>
		<path class="st2" d="M217.4,458.3H117.2c-1.3,0-2.3,1.1-2.3,2.3v7.3h104.9v-7.3C219.8,459.4,218.7,458.3,217.4,458.3z"/>
		<path class="st4" d="M139.5,353.3h76.2c-27.7-10-17-103.7-11.9-139.2c1-7.2-4.5-13.6-11.8-13.6l-50.7,0
			c-10.4,0-19.2,7.7-20.6,17.9c-4.5,32.3-11.5,99.2,2.4,125.2C126.4,349.6,132.7,353.3,139.5,353.3z"/>
	</g>
	<g>
		
			<ellipse transform="matrix(0.9759 -0.2181 0.2181 0.9759 -17.7709 23.4577)" class="st5" cx="97.4" cy="92.2" rx="53.4" ry="53.4"/>
		<circle class="st6" cx="97.4" cy="92.2" r="43.6"/>
		<path class="st7" d="M97.4,60.8"/>
		<g>
			<g>
				<path class="st8" d="M85,107.1c-0.7,0-1.4-0.3-1.9-0.8c-1.1-1.1-1.1-2.8,0-3.8l11.4-11.4V61.2c0-1.5,1.2-2.7,2.7-2.7
					c1.5,0,2.7,1.2,2.7,2.7v31c0,0.7-0.3,1.4-0.8,1.9l-12.2,12.2C86.4,106.8,85.7,107.1,85,107.1z"/>
			</g>
			<path class="st9" d="M103.1,91.4c0-3.4-2.8-6.2-6.2-6.2c-3.4,0-6.2,2.8-6.2,6.2c0,3.4,2.8,6.2,6.2,6.2
				C100.3,97.7,103.1,94.9,103.1,91.4z"/>
		</g>
	</g>
	<g>
		<path class="st10" d="M401.4,141.9h-91.1c-4.7,0-8.5,3.8-8.5,8.5v41c0,4.7,3.8,8.5,8.5,8.5h6.4v9.9c0,1.4,1.6,2.1,2.7,1.2
			l12.3-11.1h69.8c4.7,0,8.5-3.8,8.5-8.5v-41C409.8,145.7,406,141.9,401.4,141.9z"/>
		<g>
			<circle class="st11" cx="333.6" cy="171.5" r="3.7"/>
			<circle class="st11" cx="356.6" cy="171.5" r="3.7"/>
			<circle class="st11" cx="377.9" cy="171.5" r="3.7"/>
		</g>
	</g>
	<g>
		<g>
			<path class="st12" d="M103,252.2c0-10-7.1-20.1-15.8-20.1c-8.8,0-15.8,10.1-15.8,20.1c0,10,7.1,18.2,15.8,18.2
				C95.9,270.4,103,262.2,103,252.2z"/>
			<path class="st13" d="M87.2,232.1c-1.4,0-2.8,0.3-4.1,0.8c6.8,2.5,11.8,10.9,11.8,19.3c0,8.4-5,15.5-11.8,17.6
				c1.3,0.4,2.7,0.6,4.1,0.6c8.8,0,15.8-8.1,15.8-18.2C103,242.2,95.9,232.1,87.2,232.1z"/>
		</g>
		<g>
			<path class="st6" d="M69.1,264.1l2.8,25.7c0.4,3.2,3.1,5.6,6.3,5.6h16.4c3.2,0,6-2.4,6.3-5.6l2.8-25.7c0.2-1.4-0.9-2.6-2.3-2.6
				h-30C70.1,261.5,69,262.7,69.1,264.1z"/>
			<path class="st2" d="M71.5,265.3h30c0.9,0,1.7,0.6,2.1,1.3l0.3-2.5c0.2-1.4-0.9-2.6-2.3-2.6h-30c-1.4,0-2.5,1.2-2.3,2.6l0.3,2.5
				C69.8,265.9,70.5,265.3,71.5,265.3z"/>
			<path class="st2" d="M101.5,261.5H91.1c1.4,0,2.5,1.2,2.3,2.6l-2.8,25.7c-0.4,3.2-3.1,5.6-6.3,5.6h10.4c3.2,0,6-2.4,6.3-5.6
				l2.8-25.7C104,262.7,102.9,261.5,101.5,261.5z"/>
		</g>
	</g>
	<g>
		<g>
			<g>
				<polygon class="st14" points="232.8,442.8 231.7,450.2 237.4,457.5 251.7,450.4 253.2,443.6 235.4,440.9 				"/>
				<path class="st9" d="M244.4,466.7l1.5-1.8c0.3-0.3,0.8-0.3,1.1,0l1.5,1.7c0.6,0.7,1.5,1.1,2.4,1.1l33.3-0.6
					c0.6-0.7,0.8-1.8,0.1-2.5c-4.9-4.9-31.2-13.4-32.5-14.2c-1.3-0.7-9.3,5.5-20-0.2c0,0-1.7,8.3-2,13.7c-0.1,2.2,1.6,4.1,3.8,4
					l8.5-0.1C242.9,467.8,243.8,467.4,244.4,466.7z"/>
				<path class="st9" d="M171.6,317.2c0,0-13.8,15.3,11.5,31.9c17.8,11.7,31.8,8.1,42.9,15.2c2.6,1.7,4.6,4.1,4.8,7.2l0.6,71.5
					l1.3,0.7c6.7,3.3,14.6,3.4,21.4,0.2l0,0l10.1-81.6c0.4-5.6-2.7-10.4-6.2-14.8c-19.4-24.6-53.7-33-62.4-34.4
					C184.4,311.3,171.6,317.2,171.6,317.2z"/>
			</g>
			<g>
				<polygon class="st14" points="177.7,442.8 176.5,450.2 182.1,457.5 196.5,450.7 198.1,443.9 180.3,441 				"/>
				<path class="st9" d="M188.9,466.9l1.5-1.8c0.3-0.3,0.8-0.3,1.1,0l1.5,1.8c0.6,0.7,1.5,1.1,2.4,1.1l33.3-0.1
					c0.6-0.6,0.8-1.8,0.1-2.5c-4.8-5-31-13.9-32.3-14.6c-1.3-0.7-9.4,5.4-20-0.5c0,0-1.8,8.3-2.2,13.7c-0.1,2.2,1.6,4.1,3.8,4.1
					l8.5,0C187.5,468,188.3,467.6,188.9,466.9z"/>
				<path class="st9" d="M129.6,303.9c0,0-16.8,18.7,7.5,39.8c17,14.8,32.3,8.5,43,17.5c2.5,2.1,4.2,5,4,8.3l-7.7,72.7l0.6,0.4
					c6.7,4.3,15.1,4.9,22.4,1.5l0,0l19-76.6c1.2-5.9-1.3-11.3-4.3-16.4c-16.8-28.7-43.2-45.8-52.2-48.5
					C150.1,298.9,129.6,303.9,129.6,303.9z"/>
			</g>
			<path class="st15" d="M222.1,362.3c-1.3-0.5-2.6-1-3.9-1.4c-0.7-3.4-2.4-6.7-4.3-9.9c-8.3-14.2-19-25.6-28.8-33.8
				c6.1-1,9.2-2.3,10.8-4c3.3,0.5,10.1,2.1,18.2,4.9C222.4,331.9,222.4,354.3,222.1,362.3z"/>
		</g>
		<path class="st16" d="M174.7,205c0,0-24.2-3.2-34.2,15.6c-10,18.8-25.1,92.7-11.9,94.9c5.8,1,21.3,4.9,38.5,3.6
			c23.6-1.7,28.7-3.9,30.4-8.4l15-68.8c0.4-9.5-3.9-18.6-11.4-24.3C189,208.6,174.7,205,174.7,205z"/>
		<path class="st17" d="M212.4,235.9c0,0,0.3,41.4,13.3,44c13,2.5,47.7,1.7,47.7,1.7v13.2H199L212.4,235.9z"/>
		<path class="st18" d="M194.4,217.1l2.9-14.7l-19-14.5l-3.6,17.3C174.6,205.3,180.6,231.7,194.4,217.1z"/>
		<path class="st9" d="M218.6,174.5c0,0-9.9,4.8-24.5-4c0,0-3.4,6.1-13.1,11.5c0,0-5.1-8.5-8-2.1c-0.9,1.9-1.3,3.7-1.3,5.2
			c-9.1-11.8-2.7-27.4,5.8-35.8c8.1-8,25.6-4.8,36.5-0.4c11.6,4.7,13.7-3.5,13.7-3.5C242.3,166.1,218.6,174.5,218.6,174.5z"/>
		<path class="st14" d="M181,182c0,0-5.1-8.5-8-2.1c-3.5,7.7,0.5,12.6,5.3,12.6c0,0,3.8,20.1,22.3,18.7
			c18.5-1.4,21.1-31.1,18.1-36.6c0,0-10,4.8-24.5-4C194.1,170.5,190.7,176.6,181,182z"/>
		<g>
			<path class="st6" d="M341.1,229H264c-3.8,0-7.1,2.7-7.8,6.4l-10.3,50.3h93.5l9.6-47.1C350,233.7,346.2,229,341.1,229z"/>
			<path class="st19" d="M341.5,285.8H209.2c-0.8,0-1.4,0.6-1.4,1.4v6c0,0.8,0.6,1.4,1.4,1.4h132.3c0.8,0,1.4-0.6,1.4-1.4v-6
				C342.9,286.4,342.2,285.8,341.5,285.8z"/>
			<path class="st2" d="M339.1,285.8h-94.2c2.1,0,3.8,1.7,3.8,3.8v1.2c0,2.1-1.7,3.8-3.8,3.8h94.2c2.1,0,3.8-1.7,3.8-3.8v-1.2
				C342.9,287.5,341.2,285.8,339.1,285.8z"/>
		</g>
		<path class="st16" d="M215.7,283.1c-15-1.7-57.1-6-64.4-6.8c-9.1-0.9,10.7-37.7,12.9-50.2c2.2-12.6-7.4-13-7.4-13
			c-5.4-0.7-11.3,0-16.3,7.6c-10.3,15.6-21.7,61.1-15.7,72.3c0.7,1.3,2.1,2.1,3.6,2.1h87.3V283.1z"/>
		<path class="st17" d="M215.7,283.1c0,0-54.2-3.7-65.9-5.3c-9.1-1.2,9.8-38.9,12-51.4c2.2-12.6-7.5-12-7.5-12c-2.4-0.3-6,0-8.5,0.8
			c3.6-2.4,7.4-2.5,11-2.1c0,0,9.6,0.5,7.4,13c-2.2,12.6-19.2,48.5-13.4,49.9C157.8,277.7,200.7,281.3,215.7,283.1z"/>
		<path class="st20" d="M215.7,295.3h20.2c1.5,0,2.4-1.7,1.6-3c-1.9-2.9-4.9-7-7.1-7.7c-1.3-0.4-11.1,0-14.8,0.3V295.3z"/>
		<path class="st21" d="M218.6,174.5c0,0-1.7,0.8-4.6,1.1c-0.2,1.4-0.7,4-0.9,6.5c-0.3,3.6,1.4,14.6,0.3,14.7
			c-1.1,0.1-3.4-0.1-3.4-0.1s-1.7,15.9-17.6,13.4c-0.2,0-0.3,0-0.4-0.1c2.4,0.9,5.2,1.3,8.5,1.1C219,209.7,221.6,180,218.6,174.5z"
			/>
	</g>
	<g>
		<g>
			<path class="st22" d="M450.6,406c0,0,25.4-12.6,18.5-31.7c-6.9-19.1-11.2-19.9,2-30.7c13.2-10.8,32.3-37.8,8.1-39.8
				c-24.2-2-23,30.1-43.1,34.6C416,342.8,405,427,450.6,406z"/>
			<path class="st13" d="M430.6,407.9c4.9,2.3,11.4,2,20-1.9c0,0,25.4-12.6,18.5-31.7c-6.9-19.1-11.2-19.9,2-30.7
				c13.2-10.8,32.3-37.8,8.1-39.8c-2.4-0.2-4.5-0.1-6.4,0.3c6.8,2.8,13.6,8.4,4.8,18.8c-14.6,17.3-22.4,23.4-20.7,34.6
				C458.6,368.4,457.6,393.2,430.6,407.9z"/>
		</g>
		<g>
			<path class="st23" d="M407.5,405.4c0,0-22.4-0.8-21.1-16.9c1.2-16.1,1.8-16.7-12.2-21.8c-24.8-8.9-5.2-56.6,15-26.6
				c14,20.8,20.1,16.1,29.3,17.7C427.6,359.5,447.5,412.5,407.5,405.4z"/>
			<path class="st24" d="M418.4,357.9c-9.1-1.6-15.2,3-29.3-17.7c-10.6-15.7-21-10.1-25,0.1c6-1.8,15-2.9,16.1,6.8
				c1.5,12.6,30.9,33.2,30.3,58.8c0.4,0,0.8,0.1,1.1,0.1c4.3-11.3,9.9-25.9,14.8-38.4C423.9,362.2,420.8,358.3,418.4,357.9z"/>
		</g>
		<g>
			<path class="st22" d="M412.6,404.7c0,0-27.8-27.1-18.3-31.7c9.5-4.6,28.1,10.4,17.7-5.8c-10.4-16.2-22.4-41.3-8.1-37.4
				c14.3,4,15.4,8.3,13.6-10.5c-2.3-24.3,11.3-36.9,24.1-29c12.8,7.9-11,61.6-2.1,55.8c8.8-5.8,16.2-10.7,18-3.7
				c1.8,7-25.3,34.6-15.2,29.9c12.5-5.8,14.3,4.6,10.4,11C448.6,389.8,432.2,427.9,412.6,404.7z"/>
			<path class="st25" d="M452.6,383.4c4-6.4,2.1-16.8-10.4-11c-10.1,4.7,17.1-22.9,15.2-29.9c-1.8-7-9.1-2.1-18,3.7
				c-8.8,5.8,14.9-47.9,2.1-55.8c-6-3.7-12.1-2.9-16.7,1.4c6.6,1.6,11.9,7,8.3,21.4c-7.8,30.5-12.5,55.9,1.7,48.5
				c13.4-7-15.6,25.3-15.9,48.7C435.7,419.8,449.1,389,452.6,383.4z"/>
		</g>
		<g>
			<path class="st6" d="M393.4,407.9l5.4,48.6c0.7,6.1,5.8,10.7,11.9,10.7h31c6.1,0,11.3-4.6,11.9-10.7l5.4-48.6
				c0.3-2.6-1.8-5-4.4-5h-56.7C395.2,402.9,393.1,405.2,393.4,407.9z"/>
			<path class="st2" d="M454.6,402.9h-19.7c2.7,0,4.7,2.3,4.4,5l-5.4,48.6c-0.7,6.1-5.8,10.7-11.9,10.7h19.7
				c6.1,0,11.3-4.6,11.9-10.7l5.4-48.6C459.3,405.2,457.2,402.9,454.6,402.9z"/>
		</g>
	</g>
	<g>
		<g>
			<path class="st26" d="M398.6,295.1H57.7c-1.4,0-2.5,1.1-2.5,2.5v10.7c0,1.4,1.1,2.5,2.5,2.5h340.9c1.4,0,2.5-1.1,2.5-2.5v-10.7
				C401,296.2,399.9,295.1,398.6,295.1z"/>
			<path class="st27" d="M394.3,295.1H61.9c-3.7,0-6.8,3-6.8,6.8v2.2c0,0.7,0.1,1.4,0.3,2c0.9-2.7,3.4-4.7,6.4-4.7h332.4
				c3,0,5.5,2,6.4,4.7c0.2-0.6,0.3-1.3,0.3-2v-2.2C401,298.1,398,295.1,394.3,295.1z"/>
		</g>
		<g>
			<g>
				<g>
					<polygon class="st11" points="167,467.4 155.9,467.4 78.6,310.9 89.7,310.9 					"/>
				</g>
			</g>
			<g>
				<g>
					<polygon class="st11" points="44.7,467.4 55.8,467.4 133.1,310.9 122,310.9 					"/>
				</g>
			</g>
			<g>
				<g>
					<polygon class="st11" points="406.2,467.4 395.1,467.4 317.9,310.9 329,310.9 					"/>
				</g>
			</g>
			<g>
				<g>
					<polygon class="st11" points="283.9,467.4 295.1,467.4 372.3,310.9 361.2,310.9 					"/>
				</g>
			</g>
			<g>
				<g>
					<polygon class="st28" points="92.8,317.1 89.7,310.9 78.6,310.9 81.6,317.1 					"/>
				</g>
			</g>
			<g>
				<g>
					<polygon class="st28" points="130,317.1 133.1,310.9 122,310.9 118.9,317.1 					"/>
				</g>
			</g>
			<g>
				<g>
					<polygon class="st28" points="332,317.1 329,310.9 317.9,310.9 320.9,317.1 					"/>
				</g>
			</g>
			<g>
				<g>
					<polygon class="st28" points="369.3,317.1 372.3,310.9 361.2,310.9 358.2,317.1 					"/>
				</g>
			</g>
		</g>
	</g>
</g>
</svg>
