<?xml version="1.0" encoding="utf-8"?>
<!-- Generator: Adobe Illustrator 24.1.1, SVG Export Plug-In . SVG Version: 6.00 Build 0)  -->
<svg version="1.1" id="Layer_1" xmlns="http://www.w3.org/2000/svg" xmlns:xlink="http://www.w3.org/1999/xlink" x="0px" y="0px"
	 viewBox="0 0 480 480" style="enable-background:new 0 0 480 480;" xml:space="preserve">
<style type="text/css">
	.st0{fill:#F2F2F2;}
	.st1{fill:none;}
	.st2{fill:#F8A298;}
	.st3{clip-path:url(#SVGID_2_);}
	.st4{clip-path:url(#SVGID_4_);}
	.st5{clip-path:url(#SVGID_8_);}
	.st6{clip-path:url(#SVGID_10_);}
	.st7{fill:#1B1464;}
	.st8{fill:#FFFFFF;}
</style>
<path class="st0" d="M363,469.2h-232c-59,0-106.9-47.9-106.9-106.9v-232c0-59,47.9-106.9,106.9-106.9h232
	c59,0,106.9,47.9,106.9,106.9v232C469.9,421.4,422.1,469.2,363,469.2z"/>
<path class="st7" d="M357.1,462.3h-232c-59,0-106.9-47.9-106.9-106.9v-232c0-59,47.9-106.9,106.9-106.9h232
	c59,0,106.9,47.9,106.9,106.9v232C464,414.4,416.1,462.3,357.1,462.3z"/>
<g>
	<g>
		<path class="st8" d="M188.5,127.7C188.5,127.7,188.5,127.7,188.5,127.7l75.1,99.2c-0.1-0.4-0.3-0.8-0.6-1.1L188.5,127.7z"/>
		<path class="st8" d="M394.2,228.9C394.3,228.9,394.3,228.9,394.2,228.9C394.3,228.9,394.3,228.9,394.2,228.9l-127-0.4
			c-0.2,0-0.3,0.1-0.5,0.1c0.1,0,0.3,0.1,0.4,0.1L394.2,228.9z"/>
	</g>
	<g>
		<g>
			<path class="st8" d="M400.8,225.6l-3.8-4.9c0-0.1-0.1-0.1-0.2-0.2L322.7,122c-0.8-1.1-2.2-1.7-3.6-1.7l-120.4,0.4l-6.7,0
				c-5.6-0.1-11,2.5-14.4,7l-77.3,98c-1.3,1.6-1.3,3.9,0,5.5l72,92.3l6.9,9.3c2.3,3.1,5.9,4.9,9.8,4.9l45.6-0.3l84.6-0.1
				c1.4,0,2.7-0.7,3.6-1.8l73.7-97.4l1.3-1.7l3-3.8C402.3,230.3,402.3,227.5,400.8,225.6z M215.6,134l96.1-0.3
				c1.1,0,2.1,0.5,2.7,1.3l56.8,75.5c1.7,2.2,0.1,5.4-2.7,5.4l-96.2-0.1c-1.1,0-2.1-0.5-2.7-1.3l-56.8-75.1
				C211.2,137.2,212.8,134,215.6,134z M191.8,310.4c-1.4,1.8-4.1,1.9-5.6,0l-62.1-79.6c-1-1.3-1-3.1,0-4.3l62.1-78.7
				c1.4-1.8,4.2-1.8,5.5,0.1l59.8,78.8c0.9,1.2,1,3,0,4.2L191.8,310.4z M378.3,246.5l-60.7,80.2c-0.7,0.9-1.7,1.4-2.9,1.4L212,328.3
				c-3,0-4.7-3.4-2.9-5.8l60.7-80.6c0.7-0.9,1.8-1.4,2.9-1.4l102.7,0.3C378.4,240.7,380.1,244.1,378.3,246.5z"/>
		</g>
	</g>
	<g>
		<g>
			<path class="st8" d="M209.4,223.1l-66.6-87.7c-4.9-6.4-14.5-6.5-19.5-0.2l-69.1,87.6c-3.5,4.5-3.5,10.8,0,15.2l69.1,88.6
				c5,6.4,14.7,6.3,19.6-0.2l66.6-88.4C212.7,233.6,212.7,227.5,209.4,223.1z M188.9,236.9l-49.3,65.5c-3.6,4.8-10.8,4.9-14.5,0.1
				l-51.2-65.6c-2.6-3.3-2.6-8,0-11.3l51.2-64.9c3.7-4.7,10.8-4.6,14.5,0.1l49.3,65C191.3,229.1,191.3,233.6,188.9,236.9z"/>
		</g>
	</g>
	<g>
		<g>
			<path class="st8" d="M389.1,286l-101.6-0.3c-4.6,0-9,2.1-11.7,5.8l-59.7,79.3c-7.3,9.7-0.4,23.5,11.7,23.5l101.6-0.1
				c4.6,0,8.9-2.2,11.7-5.8l59.7-78.9C408.1,299.9,401.2,286,389.1,286z M381.2,316.2l-46.5,61.5c-2.2,2.8-5.5,4.5-9.1,4.5
				l-79.2,0.1c-9.4,0-14.8-10.8-9.1-18.3l46.6-61.8c2.2-2.9,5.6-4.6,9.2-4.5l79.2,0.2C381.6,297.9,386.9,308.7,381.2,316.2z"/>
		</g>
	</g>
	<g>
		<g>
			<path class="st8" d="M419.2,167.5l-67-89c-1.9-2.5-4.8-3.9-7.9-3.9l-113.6,0.3c-8.1,0-12.7,9.3-7.8,15.8l66.9,88.5
				c1.9,2.5,4.8,3.9,7.8,3.9l113.6,0.2C419.5,183.3,424.1,174,419.2,167.5z M388.2,168l-83.2-0.1c-2.3,0-4.4-1.1-5.7-2.9l-49-64.8
				c-3.6-4.7-0.2-11.5,5.7-11.6l83.2-0.3c2.3,0,4.4,1.1,5.8,2.9l49.1,65.2C397.5,161.2,394.1,168,388.2,168z"/>
		</g>
	</g>
</g>
</svg>
