<?xml version="1.0" encoding="utf-8"?>
<!-- Generator: Adobe Illustrator 24.1.1, SVG Export Plug-In . SVG Version: 6.00 Build 0)  -->
<svg version="1.1" id="Layer_1" xmlns="http://www.w3.org/2000/svg" xmlns:xlink="http://www.w3.org/1999/xlink" x="0px" y="0px"
	 viewBox="0 0 263 250" style="enable-background:new 0 0 263 250;" xml:space="preserve">
<style type="text/css">
	.st0{fill:#9BD2A5;}
	.st1{fill:#E4E8F9;enable-background:new    ;}
	.st2{fill:#FFD648;stroke:#263238;stroke-width:0.25;stroke-miterlimit:10;}
	.st3{fill:none;stroke:#FFFFFF;stroke-width:0.25;stroke-linecap:round;stroke-linejoin:round;stroke-miterlimit:10;}
	.st4{opacity:0.3;}
	.st5{fill:none;stroke:#000000;stroke-width:0.5;stroke-linecap:round;stroke-linejoin:round;stroke-miterlimit:10;}
	.st6{fill:none;stroke:#FCFCFC;stroke-width:0.5;stroke-linecap:round;stroke-linejoin:round;stroke-miterlimit:10;}
	.st7{fill:#FFFFFF;stroke:#263238;stroke-width:0.25;stroke-linecap:round;stroke-linejoin:round;stroke-miterlimit:10;}
	.st8{fill:#0E31AE;stroke:#263238;stroke-width:0.25;stroke-linecap:round;stroke-linejoin:round;stroke-miterlimit:10;}
	
		.st9{fill:none;stroke:#263238;stroke-width:0.25;stroke-linecap:round;stroke-linejoin:round;stroke-miterlimit:10;stroke-dasharray:3;}
	.st10{fill:none;stroke:#263238;stroke-width:0.25;stroke-linecap:round;stroke-linejoin:round;stroke-miterlimit:10;}
	.st11{fill:#A3B5F7;}
	.st12{fill:#263238;stroke:#263238;stroke-width:0.25;stroke-linecap:round;stroke-linejoin:round;stroke-miterlimit:10;}
	.st13{fill:#CACACC;stroke:#263238;stroke-width:0.25;stroke-linecap:round;stroke-linejoin:round;stroke-miterlimit:10;}
	.st14{fill:#D33211;stroke:#263238;stroke-width:0.25;stroke-miterlimit:10;}
	.st15{fill:#FFFFFF;}
</style>
<g>
	<path class="st0" d="M242.4,122.6c-0.2-0.4-0.3-0.8-0.5-1.2c-5.8-15.1,0.1-30.7,1.5-46.1c4.3-49.2-52.7-74.4-94.4-66.9
		c-11.3,2-22.5,7.1-31.5,14.2c-8.7,6.9-15.9,15.7-26,20.5c-23,11-55.2,11.8-58.5,43.3c-1.8,17.2,10.1,32,8.2,48.9
		C39,154.8,25,171.9,27,192.3c1.9,18.9,18.6,35.6,35.4,42.5c12.5,5.2,26.5,6.6,39.8,4.6c13.7-2.1,24.8-9.3,36.1-16.9
		c12.3-8.2,23.7-13.3,38.4-14.6c10.4-0.9,20.9-0.7,31.3-1.5c13.7-1,28.7-4.8,37.3-16.3c10.3-13.8,11.4-35.8,6.2-51.8
		C249.5,132.5,244.9,128.1,242.4,122.6z"/>
	<path class="st1" d="M242.4,122.6c-0.2-0.4-0.3-0.8-0.5-1.2c-5.8-15.1,0.1-30.7,1.5-46.1c4.3-49.2-52.7-74.4-94.4-66.9
		c-11.3,2-22.5,7.1-31.5,14.2c-8.7,6.9-15.9,15.7-26,20.5c-23,11-55.2,11.8-58.5,43.3c-1.8,17.2,10.1,32,8.2,48.9
		C39,154.8,25,171.9,27,192.3c1.9,18.9,18.6,35.6,35.4,42.5c12.5,5.2,26.5,6.6,39.8,4.6c13.7-2.1,24.8-9.3,36.1-16.9
		c12.3-8.2,23.7-13.3,38.4-14.6c10.4-0.9,20.9-0.7,31.3-1.5c13.7-1,28.7-4.8,37.3-16.3c10.3-13.8,11.4-35.8,6.2-51.8
		C249.5,132.5,244.9,128.1,242.4,122.6z"/>
</g>
<g>
	<path class="st2" d="M59.8,98.9c1,1.4,2.7,1.5,4.5,2c0.4,0.1,1.9,0.4,2.4,0.7c-1.2,0.1-2.4,0.1-3.5,0.3c-1.3-0.3-2.9-0.7-4.1-0.9
		c-1.8-0.3-4.3-0.5-4.6,1.3c-0.3,1.3,0.8,2,2.1,2.1c1.6,0.1,2.8-0.7,4.4-1.4c0.3-0.1,1.6-0.8,2.2-0.9c0.1,0,0.5-0.1,0.6-0.1l0,0l0,0
		c0.9-0.1,1.7-0.2,2.6-0.2c-1.1,0.3-2.6,0.7-3.6,1c-1.7,0.6-4,2-2.9,3.9c0.9,1.4,2.4,0.8,3.5,0.2c1.3-0.7,1.8-1.8,2.5-3.3
		c0.2-0.3,0.7-1.5,1.1-1.8c0,0,0.1,0,0.2,0c0,0,0,0,0.1,0l0,0c1.6,0,3.2,0,4.8,0.2c0.1,0,0.2,0,0.4,0.1c-1.2,0.5-2.5,1-3.7,1.6
		c-1.5,0.7-3.5,2.5-2.1,4.2c1,1.2,2.4,0.5,3.3-0.2c1.2-0.9,1.4-2.1,1.9-3.6c0.1-0.4,0.3-1.6,0.7-2l0,0c0,0,0,0,0,0.1c0,0,0,0,0-0.1
		c0.8,0.2,1.7,0.3,2.5,0.6c0.8,0.3,1.6,0.9,2.3,1.3c-1.1,0.1-2.1,0.3-3.1,0.7c-1.5,0.6-3.7,2.1-2.7,3.9c0.7,1.3,2,1,3,0.4
		c1.2-0.7,1.6-1.8,2.2-3.2c0.1-0.3,0.5-1.4,0.8-1.8c1.2,0.6,2.3,1.3,3.5,2c-1.1,0.3-1.9,0.5-2.9,1.1c-1.3,0.8-2.6,2.6-1.6,4.2
		c0.8,1.2,1.9,0.9,2.7,0.1c1-0.9,1.1-2,1.4-3.4c0.1-0.3,0.2-1.6,0.5-2c1.4,0.7,2.7,1.4,4.3,1.5c0,0,0,0,0,0.1l0,0h0.1
		c-0.9,0.7-1.8,1-2.8,1.7c-1.2,0.9-2.2,2.8-1,4.2c0.9,1.1,2.1,0.4,2.8-0.4c0.8-1.1,0.8-2.1,0.8-3.5c0-0.4-0.1-1.6,0.2-2
		c1.8,0,3.6-0.2,5.3-0.6l-0.1-0.2c-1.7,0.4-3.5,0.6-5.3,0.6c0.5-1,1-1.8,1.4-3c0.5-1.6,0.7-4-1.1-5c-1.4-0.7-2.2,0.3-2.3,1.5
		c-0.2,1.5,0.5,2.8,1.1,4.3c0.1,0.4,0.8,1.5,0.8,2c-1.5-0.1-2.9-0.8-4.2-1.5c0.5-1.1,1-1.7,1.4-2.9c0.6-1.5,0.5-4-1.3-4.9
		c-1.4-0.7-2.3,0.2-2.4,1.4c-0.1,1.5,0.6,2.6,1.3,4.1c0.2,0.4,0.9,1.7,0.9,2.3c-1.1-0.6-2.2-1.3-3.4-1.9c0,0.1-0.1,0.2,0-0.2
		c0-0.7,0.3-2,0.3-3.4s-1.1-4.1-3.2-4.1c-1.5,0-2,1.1-1.5,2.3c0.6,1.5,1.7,2,2.9,3.3c0.3,0.3,1.5,1.4,1.5,2.1l0,0
		c-0.8-0.4-1.7-1.1-2.6-1.4s-1.7-0.4-2.6-0.6c0-1.2,0.1-1.9-0.2-3.2c-0.4-1.8-1.8-3.7-3.9-3.6c-1.5,0.1-2.1,1.3-1.5,2.5
		c0.7,1.6,2,2,3.5,3c0.3,0.2,1.5,0.8,1.9,1.2c-0.1,0-0.2,0-0.3,0c-1.6-0.2-3.3-0.3-4.9-0.2c-0.5-1.1-0.7-1.9-1.4-3.1
		c-0.9-1.7-3-3.3-5-2.6C59.1,96.4,59,97.7,59.8,98.9z"/>
	<path class="st2" d="M91.2,120.9c1.2-1.6,2.2-3.3,3-5.1l-0.1-0.3c-0.8,1.8-1.8,3.5-3.1,5.2c-0.6-1.3-1-2.3-1.9-3.6
		c-1.1-1.7-3.4-3.6-5.7-2.5c-1.7,0.8-1.3,2.4-0.2,3.4c1.3,1.3,3.1,1.6,5.1,2.1c0.5,0.1,2.1,0.4,2.6,0.7c-1.2,1.4-2.9,2.2-4.6,3
		c-0.6-1.3-0.9-2.2-1.8-3.5c-1.1-1.7-3.5-3.5-5.8-2.4c-1.7,0.8-1.4,2.4-0.3,3.4c1.4,1.2,3,1.3,5,1.8c0.5,0.1,2.3,0.4,2.9,0.8
		c-1.4,0.7-2.9,1.3-4.3,1.9c0.1,0.1,0.1,0.2-0.2-0.1c-0.6-0.5-1.7-1.8-3.1-2.8s-4.8-1.9-6.4,0.1c-1.2,1.5-0.4,2.8,1.2,3.2
		c2,0.5,3.3-0.2,5.4-0.5c0.6-0.1,2.4-0.4,3.1,0.1l0,0c-1,0.5-2.3,0.9-3.2,1.5c-1,0.6-1.7,1.4-2.5,2.1c-1.2-0.8-1.8-1.4-3.3-2.1
		c-2-1-5-0.9-6.4,1.2c-1.1,1.6-0.2,3,1.4,3.3c2.1,0.5,3.5-0.5,5.5-1.3c0.4-0.2,1.9-0.9,2.6-0.9c0,0.1-0.1,0.1-0.2,0.2
		c-1.4,1.5-2.7,3-3.8,4.7c-1.5-0.3-2.4-0.6-4-0.8c-2.3-0.3-5.4,0.6-6.2,3c-0.6,1.7,0.6,2.8,2.3,2.9c2.2,0,3.5-1.6,5.3-2.9
		c0.4-0.3,1.8-1.5,2.4-1.8c-0.8,1.2-1.6,2.4-2.3,3.7c-1.3,1-2.8,2.3-3.9,3.4c-1.6,1.5-3.6,3.9-2.1,5.5c1.1,1.2,2.6,0.6,3.6-0.5
		c1.2-1.5,1.4-3.3,1.8-5.3c0.1-0.4,0.4-2.2,0.7-2.8c0-0.1,0.3-0.6,0.4-0.7l0,0l0,0c0.5-0.9,1.1-1.8,1.7-2.7c-0.6,1.3-1.2,3-1.7,4.3
		c-0.7,2.1-1,5.5,1.7,5.6c2,0.1,2.5-1.8,2.7-3.3c0.2-1.9-0.5-3.1-1.4-4.9c-0.2-0.4-1-1.7-1-2.4l0.1-0.2h0.1c0,0,0,0-0.1,0
		c1.1-1.6,2.4-3.1,3.8-4.6c0.1-0.1,0.2-0.2,0.3-0.3c-0.4,1.6-0.8,3.3-1.1,4.8c-0.4,2,0,5.3,2.6,5.1c1.9-0.1,2.3-1.9,2.2-3.4
		c0-1.8-1-2.9-2.1-4.5c-0.3-0.4-1.4-1.5-1.5-2.2l0,0c0,0,0,0,0.1,0c0,0,0,0,0-0.1c0.8-0.7,1.5-1.4,2.5-2c0.9-0.6,2-0.9,3-1.4
		c-0.7,1.2-1.2,2.3-1.6,3.6c-0.5,1.9-0.6,5.1,1.8,5.5c1.8,0.3,2.4-1.3,2.6-2.6c0.2-1.7-0.6-2.9-1.5-4.5c-0.2-0.3-1.1-1.5-1.1-2.1
		c1.5-0.7,3-1.3,4.5-2c-0.5,1.3-0.9,2.2-1.1,3.7c-0.2,1.9,0.6,4.5,2.9,4.6c1.7,0.1,2.3-1.3,2.2-2.6c-0.1-1.6-1.2-2.5-2.3-3.8
		c-0.3-0.3-1.5-1.3-1.6-1.9c1.7-0.9,3.3-1.7,4.6-3.1c0,0,0,0,0,0.1c0,0,0,0,0-0.1C91.2,121,91.2,120.9,91.2,120.9
		c0,1.4-0.4,2.5-0.4,4c0,1.8,1.1,4.2,3.5,4c1.7-0.1,1.9-1.8,1.6-3c-0.4-1.6-1.5-2.3-2.8-3.4C92.7,122.4,91.4,121.5,91.2,120.9z"/>
</g>
<g>
	<path class="st2" d="M231.4,59.3c-1.3-1.2-3-1-4.8-1.2c-0.4,0-1.9-0.1-2.5-0.3c1.1-0.3,2.3-0.6,3.4-0.9c1.3,0.1,3,0.1,4.2,0.1
		c1.8,0,4.3-0.3,4.3-2.2c0-1.4-1.2-1.8-2.4-1.7c-1.6,0.2-2.7,1.2-4,2.2c-0.3,0.2-1.4,1.1-2,1.3c-0.1,0-0.5,0.2-0.6,0.2l0,0l0,0
		c-0.8,0.3-1.7,0.5-2.5,0.7c1.1-0.5,2.4-1.1,3.4-1.7c1.6-0.9,3.6-2.7,2.1-4.3c-1.1-1.2-2.5-0.3-3.4,0.5c-1.2,1-1.4,2.1-1.9,3.7
		c-0.1,0.3-0.4,1.6-0.7,2c0,0-0.1,0-0.2,0c0,0,0,0-0.1,0l0,0c-1.6,0.3-3.2,0.5-4.8,0.6c-0.1,0-0.3,0-0.4,0c1.1-0.7,2.3-1.5,3.4-2.3
		c1.3-1,3-3.1,1.3-4.5c-1.2-1-2.4-0.1-3.2,0.8c-1,1.1-1,2.3-1.2,3.8c0,0.4,0,1.7-0.3,2.1l0,0c0,0,0,0,0-0.1c0,0,0,0,0,0.1
		c-0.9-0.1-1.7,0-2.6-0.2c-0.9-0.2-1.7-0.6-2.5-0.8c1.1-0.3,2-0.7,2.9-1.3c1.4-0.8,3.2-2.7,2-4.3c-0.9-1.2-2.2-0.6-3,0.1
		c-1.1,0.9-1.2,2.1-1.6,3.5c-0.1,0.3-0.2,1.5-0.5,1.9c-1.3-0.4-2.5-0.9-3.8-1.3c1-0.5,1.8-0.9,2.7-1.6c1.2-1,2.1-3,0.8-4.4
		c-1-1-2.1-0.5-2.7,0.3c-0.8,1.1-0.7,2.2-0.7,3.6c0,0.3,0.1,1.6-0.1,2c-1.5-0.4-2.9-0.8-4.5-0.7c0,0,0,0,0-0.1l0,0
		c0,0-0.1,0.1-0.1,0c0.7-0.8,1.6-1.3,2.4-2.2c1-1.1,1.7-3.1,0.2-4.3c-1.1-0.9-2.2,0-2.6,0.9c-0.6,1.2-0.4,2.2-0.2,3.6
		c0.1,0.4,0.4,1.5,0.2,2c-1.8,0.3-3.5,0.8-5.1,1.6l0.1,0.1c1.6-0.7,3.3-1.2,5.1-1.5c-0.3,1.1-0.7,2-0.9,3.2c-0.3,1.6,0,4.1,2,4.7
		c1.5,0.4,2.1-0.7,2-1.9c-0.1-1.5-1-2.6-1.9-4.1c-0.2-0.3-1-1.4-1.2-1.9c1.5-0.2,3,0.3,4.4,0.7c-0.3,1.1-0.7,1.8-0.9,3.1
		c-0.3,1.6,0.2,4,2.2,4.6c1.5,0.4,2.2-0.6,2.1-1.8c-0.1-1.5-1.1-2.4-2-3.8c-0.2-0.3-1.2-1.5-1.3-2.1c1.2,0.4,2.4,0.8,3.6,1.2
		c0-0.1,0-0.2,0.1,0.2c0.1,0.7,0,2,0.3,3.4s1.8,3.8,3.9,3.5c1.5-0.2,1.8-1.5,1.1-2.6c-0.9-1.4-2.1-1.7-3.5-2.7
		c-0.4-0.3-1.7-1.1-1.8-1.8l0,0c0.9,0.3,1.9,0.7,2.8,0.9c0.9,0.2,1.8,0.1,2.7,0.2c0.2,1.2,0.3,1.9,0.8,3.1c0.7,1.7,2.5,3.3,4.5,2.9
		c1.5-0.4,1.8-1.7,1-2.8c-1-1.4-2.4-1.6-4-2.3c-0.3-0.1-1.6-0.5-2.1-0.9c0.1,0,0.2,0,0.3,0c1.6-0.1,3.3-0.3,4.9-0.7
		c0.7,1,1.1,1.7,2,2.8c1.2,1.5,3.6,2.7,5.3,1.7C232.5,61.6,232.4,60.3,231.4,59.3z"/>
	<path class="st2" d="M196.4,43.3c-0.9,1.8-1.6,3.6-2.1,5.5l0.2,0.2c0.5-2,1.2-3.8,2.1-5.7c0.9,1.1,1.4,2.1,2.5,3.2
		c1.4,1.5,4,3,6.1,1.4c1.5-1.1,0.8-2.6-0.4-3.4c-1.6-1.1-3.3-1-5.4-1.1c-0.5,0-2.1,0-2.7-0.2c0.9-1.6,2.5-2.7,3.9-3.8
		c0.9,1.2,1.3,2,2.4,3.2c1.4,1.5,4.1,2.8,6.1,1.3c1.5-1.1,1-2.6-0.3-3.4c-1.6-1-3.2-0.7-5.2-0.8c-0.5,0-2.4,0.1-3-0.3
		c1.2-0.9,2.6-1.8,3.9-2.7c-0.1-0.1-0.2-0.2,0.2,0.1c0.7,0.4,2,1.5,3.6,2.2s5.1,1,6.2-1.3c0.9-1.7-0.2-2.8-1.8-2.9
		c-2-0.2-3.2,0.8-5.2,1.4c-0.5,0.2-2.3,0.8-3.1,0.5l0,0c0.9-0.7,2.1-1.3,2.9-2c0.8-0.8,1.4-1.7,2.1-2.5c1.3,0.6,2,1.1,3.6,1.5
		c2.2,0.6,5.1,0,6.1-2.3c0.8-1.7-0.3-3-2-3c-2.1-0.1-3.3,1.1-5.2,2.2c-0.4,0.2-1.7,1.2-2.4,1.4c0-0.1,0.1-0.2,0.2-0.3
		c1.1-1.7,2.1-3.5,2.9-5.3c1.5,0,2.5,0.2,4.1,0.1c2.3-0.1,5.2-1.6,5.6-4c0.3-1.8-1.1-2.7-2.8-2.4c-2.1,0.4-3.2,2.2-4.7,3.8
		c-0.3,0.3-1.5,1.8-2.1,2.2c0.6-1.3,1.1-2.7,1.6-4.1c1-1.2,2.3-2.8,3.2-4c1.3-1.8,2.8-4.5,1-5.8c-1.3-1-2.7-0.2-3.4,1.1
		c-1,1.7-0.8,3.5-0.8,5.6c0,0.4,0,2.2-0.1,2.9c0,0.1-0.2,0.6-0.2,0.7l0,0l0,0c-0.3,1-0.8,2-1.2,3c0.3-1.4,0.7-3.2,0.8-4.5
		c0.3-2.2,0-5.5-2.7-5.2c-2,0.2-2.1,2.2-2.1,3.7c0.1,1.9,1.1,3,2.2,4.6c0.3,0.4,1.3,1.5,1.4,2.2l-0.1,0.2c0,0,0,0-0.1,0.1
		c0,0,0,0,0.1,0c-0.8,1.8-1.8,3.5-2.9,5.2c-0.1,0.1-0.2,0.3-0.3,0.4c0.1-1.6,0.2-3.4,0.2-5c0-2-0.9-5.2-3.5-4.6
		c-1.9,0.5-1.9,2.3-1.6,3.7c0.4,1.8,1.5,2.7,2.9,4c0.3,0.3,1.6,1.2,1.8,1.9l0,0c0,0,0,0-0.1,0c0,0,0,0,0.1,0
		c-0.7,0.8-1.3,1.7-2.1,2.4s-1.8,1.2-2.7,1.9c0.5-1.3,0.7-2.5,0.9-3.8c0.2-2-0.3-5.2-2.8-5.1c-1.8,0-2.2,1.7-2.1,3.1
		c0.1,1.7,1.2,2.7,2.3,4.1c0.3,0.3,1.3,1.3,1.5,1.9c-1.3,0.9-2.7,1.8-4,2.8c0.2-1.4,0.5-2.4,0.4-3.8c-0.1-1.9-1.4-4.3-3.7-4
		c-1.7,0.2-2,1.7-1.6,2.9c0.4,1.6,1.6,2.3,3,3.3c0.3,0.3,1.7,1,1.9,1.6c-1.5,1.2-3,2.3-4,3.9l0,0c0,0,0,0,0,0.1
		C196.5,43.2,196.5,43.4,196.4,43.3c-0.3-1.4-0.1-2.5-0.3-4c-0.3-1.8-1.9-3.9-4.1-3.4c-1.7,0.4-1.6,2.1-1,3.3c0.7,1.5,1.8,2,3.4,2.8
		C194.7,42.2,196.1,42.7,196.4,43.3z"/>
</g>
<g>
	<polyline class="st3" points="224.1,111.2 238.6,111.2 238.6,135.2 234.7,135.2 	"/>
	<polyline class="st3" points="232.8,135.2 220.3,135.2 220.3,111.2 222.1,111.2 	"/>
	<line class="st3" x1="229.4" y1="135.6" x2="229.4" y2="145.2"/>
	<polyline class="st3" points="240.9,145.7 247.1,145.7 247.1,150.2 	"/>
	<line class="st3" x1="216.8" y1="145.7" x2="239.3" y2="145.7"/>
	<polyline class="st3" points="211.8,150.1 211.8,145.7 214.5,145.7 	"/>
	<rect x="208.1" y="150.3" class="st3" width="6.3" height="6.7"/>
	<rect x="219.9" y="150.3" class="st3" width="6.3" height="6.7"/>
	<polyline class="st3" points="234.1,157 231.7,157 231.7,150.3 238.1,150.3 238.1,157 235.9,157 	"/>
	<rect x="243.6" y="150.3" class="st3" width="6.3" height="6.7"/>
	<line class="st3" x1="223.2" y1="150" x2="223.2" y2="145.7"/>
	<line class="st3" x1="235" y1="150" x2="235" y2="145.7"/>
</g>
<g class="st4">
	<polyline class="st5" points="51.8,20.8 57,20.8 57,38.6 43.3,38.6 43.3,20.8 49.8,20.8 	"/>
	<g>
		<polyline class="st5" points="35.7,57.5 32.9,57.5 32.9,46.9 40.5,46.9 40.5,57.5 37.7,57.5 		"/>
		<rect x="46.3" y="46.9" class="st5" width="7.6" height="10.5"/>
		<polyline class="st5" points="59.8,52 59.8,46.9 67.4,46.9 67.4,57.5 59.8,57.5 59.8,53.5 		"/>
	</g>
	<line class="st5" x1="42.3" y1="43" x2="36.6" y2="46.9"/>
	<line class="st5" x1="48.5" y1="38.6" x2="43.3" y2="42.3"/>
	<line class="st5" x1="50.4" y1="39" x2="50.4" y2="46.6"/>
	<line class="st5" x1="52.7" y1="38.6" x2="63.8" y2="47"/>
</g>
<g>
	<polyline class="st6" points="119.7,175.5 123.3,175.5 123.3,193.4 109.4,193.4 109.4,175.5 118.5,175.5 	"/>
	<polyline class="st6" points="94.1,190.9 92.4,190.9 92.4,180.3 100,180.3 100,190.9 95.6,190.9 	"/>
	<rect x="112.5" y="201.8" class="st6" width="7.7" height="10.6"/>
	<polyline class="st6" points="136.2,190.9 132.9,190.9 132.9,180.3 140.5,180.3 140.5,190.9 137.9,190.9 	"/>
	<line class="st6" x1="109.5" y1="185.3" x2="100.4" y2="185.3"/>
	<line class="st6" x1="132.6" y1="185.3" x2="123.5" y2="185.3"/>
	<line class="st6" x1="116.5" y1="198.8" x2="116.5" y2="201.7"/>
	<line class="st6" x1="116.5" y1="193.7" x2="116.5" y2="197.2"/>
</g>
<g>
	<rect x="85.2" y="21.5" class="st7" width="114.3" height="134"/>
	<g>
		<rect x="85.2" y="21.5" class="st8" width="114.3" height="5.6"/>
		<path class="st7" d="M186.2,24.2c0-0.7-0.6-1.4-1.4-1.4c-0.7,0-1.4,0.6-1.4,1.4s0.6,1.4,1.4,1.4C185.6,25.5,186.2,24.9,186.2,24.2
			z"/>
		<path class="st7" d="M190.9,24.2c0-0.7-0.6-1.4-1.4-1.4c-0.7,0-1.4,0.6-1.4,1.4s0.6,1.4,1.4,1.4C190.3,25.5,190.9,24.9,190.9,24.2
			z"/>
		<circle class="st7" cx="194.3" cy="24.2" r="1.4"/>
	</g>
	<g>
		<rect x="90.9" y="119.2" class="st9" width="47.3" height="27.8"/>
		<rect x="146" y="119.2" class="st9" width="47.3" height="27.8"/>
		<rect x="146.7" y="34.9" class="st9" width="46" height="75.3"/>
	</g>
</g>
<g>
	<line class="st10" x1="159.2" y1="239.6" x2="244.7" y2="239.6"/>
	<line class="st10" x1="33.6" y1="239.6" x2="156.6" y2="239.6"/>
</g>
<g>
	<g>
		<rect x="150.8" y="165.2" class="st8" width="46.5" height="29.5"/>
		<circle class="st11" cx="159.1" cy="173.1" r="4.1"/>
		<polygon class="st11" points="197.3,179.7 188.2,171.8 178.2,183 167.8,176.7 150.8,194.7 197.3,194.7 		"/>
	</g>
	<g>
		<path class="st7" d="M197.5,170.9c0,0,0.5-0.2,0.8,0.3c0.3,0.4,0.3,0.9,0.3,0.9s0.7,0.8,0.8,1.4c0.1,0.5-0.8,2.8-0.8,2.8l2.4,6
			l-3.3-5.7c0,0-1.5-2.7-1.7-3.1c-0.2-0.4-0.2-1.9-0.2-2.3s-0.1-1.4,0.4-0.8c0.5,0.5,0.7,0.9,0.7,0.9v0.3L197.5,170.9z"/>
		<path class="st7" d="M168.7,192.3l-1.6-0.2c0,0-1.3-0.3-1.6-0.3s-1.5,0.7-1.9,1c-0.3,0.3-0.8,0.5-0.6,0.8c0.3,0.3,1.5-0.1,1.5-0.1
			l-1.1,1.4c0,0,0,0.6,0.6,0.8s1.3-0.3,1.3-0.3s1.4,0.3,1.6,0.3c0.3,0.1,3.2-1.7,3.2-1.7L168.7,192.3z"/>
		<path class="st12" d="M177.4,191.9l-0.8,20.3c0,0,0.3,13.5,0.8,16.1c0.5,2.5,0.9,4.8,0.9,4.8l-0.4,0.9v1.3c0,0-3.1,2.1-3.7,2.6
			c-0.7,0.5-1.1,0.8-0.7,1c0.4,0.3,6.1,0.6,7.1,0.6s1.7-0.1,1.8-0.5s-0.1-3.5-0.1-3.5s0.3-2,0.3-2.6c0.1-0.6-0.3-3.1-0.3-4.5
			s0.4-11.2,0.5-13s1.5-11.7,1.5-11.7s3.1,22.7,3.3,23.7s1.6,5.9,1.6,5.9s0,0.8,0,1s0.5,2,0.5,2s0,2.8,0.4,3.1s2,0.3,2.5-0.3
			s-0.1-3.1-0.1-3.1s0.2-2.1,0.2-3s-0.6-3.1-0.6-3.7c0-0.6-0.7-18.6-0.7-18.6L192,192l-14.5-1.3L177.4,191.9z"/>
		<g>
			<path class="st7" d="M184.5,166.9c0,0-6.9,3.1-7.2,4.3c-0.3,1.3-0.2,20.1-0.1,20.8c0.1,0.7,4.2,1.6,7.1,1.9
				c3,0.3,7.2-0.8,7.7-1.9c0.5-1,1.3-9.2,1.3-9.2l0.5-1.8c0,0,3.7,4.2,5.4,4.9c1.7,0.8,2.5-0.6,2.4-2c-0.2-1.4-4-8.2-4.6-9.6
				c-0.6-1.4-0.8-4.1-1.5-4.9c-0.7-0.8-3.7-3.1-3.7-3.1S187.1,165.1,184.5,166.9z"/>
			<path class="st7" d="M180.7,168.9c0,0-4.6,1.7-4.8,3c-0.3,1.3-0.2,13.1-0.2,13.1l-7.1,7.4l1.1,2.5c0,0,12-7.2,12.1-8.6
				c0.2-1.4,0-12.5,0-12.5"/>
			<line class="st10" x1="193.8" y1="181.1" x2="195.2" y2="174.4"/>
			<line class="st10" x1="194.1" y1="180.1" x2="196" y2="177"/>
			<path class="st7" d="M189.7,176.5c-1.1,2.1-2.8,5-4.5,7.1"/>
			<path class="st7" d="M191,173.8c0,0-0.2,0.4-0.6,1.1"/>
			<path class="st10" d="M185.6,185.9c-1.5,1.2-3.7,2.8-4.7,3.3"/>
			<path class="st10" d="M187.3,184.6c0,0-0.3,0.3-0.8,0.7"/>
		</g>
		<g>
			<path class="st7" d="M190.4,161.3l0.1,4l-5.7,1.4l1.1-4.8c0,0,0.4-1.7,2.2-1.8C189.9,160,190.4,161.3,190.4,161.3z"/>
			<g>
				<path class="st7" d="M185.2,154.6c0,0-1.4,1.3-1.4,1.8s-0.6,1.4-0.8,1.9c-0.3,0.4-1.4,0.5-1.3,1.2c0.1,0.7,0.8,0.8,0.8,0.8
					s-1,4.8,0.5,5.4c1.5,0.5,4.1-2.2,4.1-2.2l0.6-2c0,0,2,0.5,2.6,0.5s2.5-1.7,3.5-3.2s-1.3-4.9-4.2-6c-3-1.1-5.4,0.4-5.4,1.1
					S185.2,154.6,185.2,154.6z"/>
				<path class="st12" d="M189.5,152.7c-3-1.1-5.4,0.4-5.4,1.1c0,0.6,0.9,0.8,1,0.8l0,0c0,0,2.1,0.6,2.1,1.2c0,0.6-0.5,0.5-0.6,0.8
					s-0.3,0.4,0.1,0.7c0.3,0.3,0.3,0.3,0.3,0.3s-0.5,2.6-0.7,3.3s-0.6,0.8-1.1,0.8s-2.1-1.6-2.9-1.4c0,0-1,4.8,0.5,5.4
					c1.5,0.5,4.1-2.2,4.1-2.2l0.6-2c0,0,2,0.5,2.6,0.5s2.5-1.7,3.5-3.2C194.8,157.2,192.5,153.8,189.5,152.7z"/>
				<path class="st10" d="M184.2,157.1c0,0,0.9-0.3,1.4,0.5"/>
				<path class="st10" d="M184.1,158.2c0,0,0.8-0.3,1.4,0.3"/>
				<path class="st3" d="M182.6,162c0,0,0.9,0.3,1.6,0"/>
				<path class="st7" d="M187.3,159.3c0,0,0.8-1.2,1.3-0.6c0.5,0.6,0.2,2.3-0.4,2.6c-0.6,0.3-0.9-0.1-0.9-0.1L187.3,159.3z"/>
			</g>
			<path class="st7" d="M190.4,164.3c0,0-3.9,0.6-4.8,0.8c-0.8,0.3-2.3,1.1-2.3,1.1l-0.3,1.3c0,0,5.9-1.3,7.1-1.3
				c1.1,0,1.6,0.1,1.6,0.1S191.3,164.2,190.4,164.3z"/>
		</g>
	</g>
</g>
<g>
	<rect x="85.2" y="138.1" class="st12" width="30.2" height="17.6"/>
	<rect x="69.4" y="135.8" class="st8" width="43.1" height="24.1"/>
	<rect x="69.4" y="156" class="st12" width="43.1" height="3.8"/>
	<rect x="69.4" y="157.2" class="st7" width="43.1" height="1.4"/>
	<path class="st7" d="M59.7,160.5l8.1-8.6c0,0,0.4-1.6,0.5-2.1s0.7-1.1,1.2-1.5s0.7-0.7,0.7,0s-0.7,1.1-0.7,1.1s-0.1,1.9-0.1,2.1
		c0,0.2,0,1,0,1l-6,8.9L59.7,160.5z"/>
	<path class="st13" d="M59.6,163.2c0,0-0.6-0.9-0.6-1.9c0.1-1,1.4-1.9,2.5-1.6c1.1,0.3,2.3,0.6,2.5,1.5c0.2,1-1.4,0.8-2.7,1
		C60,162.3,59.6,163.2,59.6,163.2z"/>
	<path class="st7" d="M82.9,169c0,0,7.4-9.7,7.8-10.3s0.6-0.4,1.4-0.4s2.1-0.3,2.3-0.1c0.2,0.2,0.2,0.6-0.1,0.6
		c-0.3,0-1.8,0.3-1.8,0.3l2.1,0.6c0,0,0.9,0,0.9,0.2s-0.2,0.2-1,0.5s-1.8,0.6-2.2,0.6c-0.4,0-1.3,0-1.3,0h-0.4l-5.9,11.1L82.9,169z"
		/>
	<g>
		<path class="st7" d="M65.2,208.6l0.6,2.5c0,0-2.5,0.3-5.9,0.3s-6.4-0.5-6.4-0.5s-0.8-2.1-1.7-2.3s-3.6,2.1-4.8,2.9
			c-1.2,0.8-2.2,2.2-1.8,2.6c0.4,0.4,2.4-0.4,2.4-0.4s3.5-0.6,4.6-0.6s2.8,0.6,5.6,1.1c2.9,0.6,8.8,1,10.3,1c1.4,0,2.1,0.1,2.6-1.4
			c0.5-1.4,0-6.3,0-6.3l-5.9-0.5L65.2,208.6z"/>
		<path class="st12" d="M48.8,213.7l-0.3-0.4l5-2.3c0,0-0.8-2.1-1.7-2.3s-3.6,2.1-4.8,2.9c-1.2,0.8-2.2,2.2-1.8,2.6
			c0.4,0.4,2.4-0.4,2.4-0.4S48.1,213.8,48.8,213.7z"/>
	</g>
	<g>
		<path class="st7" d="M69.6,209l0.7,4.9c0,0-0.6,6.2-0.3,8.9c0.2,2.7,0.2,11.5,0.2,11.5s-1.3,2.2-1.1,2.7c0.2,0.5,2.1,1.8,2.9,2.2
			c0.9,0.4,2.4,0.4,2.6-0.1s-1.1-1.3-1.1-1.3l-1.3-3.2c0,0,3.6-20.4,3.6-21.9s0.3-5.2,0.3-5.2L69.6,209z"/>
		<path class="st12" d="M71.4,235.8c-0.6-0.5-1.2-0.6-1.6-0.6c-0.4,0.7-0.8,1.6-0.7,1.9c0.2,0.5,2.1,1.8,2.9,2.2
			c0.9,0.4,2.4,0.4,2.6-0.1s-1.1-1.3-1.1-1.3S72.3,236.5,71.4,235.8z"/>
	</g>
	<path class="st14" d="M63.5,186.2c0,0-1.8,3.7-2.3,8.9c-0.5,5.3,3.3,13.3,3.3,13.3s0.5,1.5,4.8,1.7s7.4-1.6,7.4-1.6
		s1.7-5.6,0.7-14.4c-0.4-3.6-1.9-6-1.9-6L63.5,186.2z"/>
	<path class="st7" d="M72.3,168.2l10.3,0.7l1.7,3.7c0,0-1.4,0.3-4,0.8s-4.4,1-4.4,1s0.2,2,0.2,3.8s-0.9,5.7-0.9,5.7l1,5.4
		c0,0-2.2-0.8-3.2-0.8s-1.5,1-4.3,1.7c-4.6,1-5.8-3.3-5.8-3.3s1.4-3.1,1.4-4.5s-2.1-9.1-2.1-9.1l-2.9-10.6c0,0-0.6-1.3,1.3-1.5
		c1.8-0.2,2.8,0.2,2.8,0.2l4.3,5.8c0,0,1.5,1.1,2.1,1C70.6,168.2,72.3,168.2,72.3,168.2z"/>
	<path class="st7" d="M72.9,158.3c0,0,0.1,1,0.6,1.4s1.3,0.4,1.3,1s0.1,1,0.1,1s0,2.1-0.1,2.7c-0.1,0.6-2.1,1.3-2.1,1.3l-0.1,2.3
		l-2.5-1.2c0,0-0.9-2.1-0.2-4.6C70.7,159.8,72.9,158.3,72.9,158.3z"/>
	<path class="st12" d="M72.8,156.2c0,0,0.6,2.5-0.1,3.9s-1.9,2.3-1.4,3.5s1.8,3.7,1.4,4.5s-3.8,2.6-6.3,1.5s-2.2-2.8-2.2-2.8
		s1.2,0.5,1-0.7s-1.4-1.5-1.8-4.4c-0.4-2.9,1.8-4.9,4.2-5.9C69.9,154.9,71.9,155,72.8,156.2z"/>
	<path class="st13" d="M81.8,168.8c0,0,1,1.6,1.2,2.4c0.2,0.8,0.4,1.8,0.4,1.8s0.9,0.4,1.5-0.3s0.2-2-0.3-2.7
		c-0.6-0.7-1.6-1.6-1.6-1.6S82.1,168.4,81.8,168.8z"/>
</g>
<g>
	<path class="st15" d="M75.2,142.6h0.9v6.1H79v0.7h-3.8V142.6z"/>
	<path class="st15" d="M82.7,149.4l-0.1-0.6l0,0c-0.3,0.4-0.8,0.7-1.5,0.7c-1,0-1.5-0.7-1.5-1.4c0-1.2,1-1.8,2.9-1.8v-0.1
		c0-0.4-0.1-1.1-1.1-1.1c-0.5,0-0.9,0.1-1.3,0.4l-0.2-0.6c0.4-0.3,1-0.4,1.6-0.4c1.5,0,1.9,1,1.9,2v1.8c0,0.4,0,0.8,0.1,1.2
		L82.7,149.4L82.7,149.4z M82.6,146.9c-1,0-2.1,0.2-2.1,1.1c0,0.6,0.4,0.8,0.8,0.8c0.6,0,1-0.4,1.2-0.8c0-0.1,0.1-0.2,0.1-0.3V146.9
		z"/>
	<path class="st15" d="M84.8,146.1c0-0.6,0-1.1,0-1.6h0.8v0.8l0,0c0.4-0.6,0.9-0.9,1.7-0.9c1.2,0,2.1,1,2.1,2.5
		c0,1.8-1.1,2.6-2.2,2.6c-0.6,0-1.2-0.3-1.5-0.8l0,0v2.7h-0.9V146.1z M85.7,147.4c0,0.1,0,0.3,0,0.4c0.2,0.6,0.7,1,1.3,1
		c0.9,0,1.5-0.8,1.5-1.9c0-1-0.5-1.8-1.5-1.8c-0.6,0-1.2,0.4-1.3,1.1c0,0.1-0.1,0.2-0.1,0.4L85.7,147.4L85.7,147.4z"/>
	<path class="st15" d="M95,146.9c0,1.8-1.3,2.6-2.4,2.6c-1.3,0-2.3-1-2.3-2.5c0-1.6,1.1-2.6,2.4-2.6S95,145.4,95,146.9z M91.1,147
		c0,1.1,0.6,1.9,1.5,1.9c0.8,0,1.5-0.8,1.5-1.9c0-0.8-0.4-1.9-1.5-1.9S91.1,146.1,91.1,147z"/>
	<path class="st15" d="M96.1,146.1c0-0.6,0-1.1,0-1.5h0.8v1l0,0c0.2-0.7,0.8-1.1,1.4-1.1c0.1,0,0.2,0,0.3,0v0.8c-0.1,0-0.2,0-0.3,0
		c-0.6,0-1.1,0.5-1.2,1.1c0,0.1,0,0.3,0,0.4v2.6h-0.9v-3.3H96.1z"/>
	<path class="st15" d="M102.1,149.4l-0.1-0.6l0,0c-0.3,0.4-0.8,0.7-1.5,0.7c-1,0-1.5-0.7-1.5-1.4c0-1.2,1-1.8,2.9-1.8v-0.1
		c0-0.4-0.1-1.1-1.1-1.1c-0.5,0-0.9,0.1-1.3,0.4l-0.2-0.6c0.4-0.3,1-0.4,1.6-0.4c1.5,0,1.9,1,1.9,2v1.8c0,0.4,0,0.8,0.1,1.2
		L102.1,149.4L102.1,149.4z M101.9,146.9c-1,0-2.1,0.2-2.1,1.1c0,0.6,0.4,0.8,0.8,0.8c0.6,0,1-0.4,1.2-0.8c0-0.1,0.1-0.2,0.1-0.3
		V146.9z"/>
	<path class="st15" d="M104.2,145.9c0-0.5,0-0.9,0-1.3h0.8l0.1,0.8l0,0c0.2-0.5,0.8-0.9,1.6-0.9c0.7,0,1.7,0.4,1.7,2.1v2.9h-0.9
		v-2.8c0-0.8-0.3-1.4-1.1-1.4c-0.6,0-1,0.4-1.2,0.9c0,0.1-0.1,0.3-0.1,0.4v2.9h-0.9V145.9z"/>
</g>
<g>
	<rect x="162.6" y="38" class="st12" width="37" height="75.3"/>
	<rect x="159.8" y="34.9" class="st7" width="46" height="75.3"/>
	<g>
		<rect x="163.5" y="40.9" class="st8" width="38.7" height="32.7"/>
		<polygon class="st11" points="202.2,56.1 196.7,50.8 188.2,61.7 179.3,56.5 163.5,73.6 202.2,73.6 		"/>
		<circle class="st11" cx="170.6" cy="48.5" r="4.1"/>
	</g>
	<line class="st10" x1="199.1" y1="80" x2="201.3" y2="80"/>
	<line class="st10" x1="184" y1="80" x2="196.9" y2="80"/>
	<line class="st10" x1="172" y1="80" x2="181.7" y2="80"/>
	<line class="st10" x1="163.8" y1="80" x2="169.5" y2="80"/>
	<line class="st10" x1="197" y1="87.3" x2="201.3" y2="87.3"/>
	<line class="st10" x1="182.4" y1="87.3" x2="195.8" y2="87.3"/>
	<line class="st10" x1="163.8" y1="87.3" x2="181" y2="87.3"/>
	<line class="st10" x1="176.6" y1="94.6" x2="201.3" y2="94.6"/>
	<line class="st10" x1="163.8" y1="94.6" x2="174.6" y2="94.6"/>
	<line class="st10" x1="197.4" y1="101.9" x2="201.3" y2="101.9"/>
	<line class="st10" x1="171.2" y1="101.9" x2="195.7" y2="101.9"/>
	<line class="st10" x1="163.8" y1="101.9" x2="169.6" y2="101.9"/>
</g>
<g>
	<polygon class="st12" points="136.6,58.2 136.6,103.9 100.7,103.9 100.7,95.5 85.2,95.5 85.2,44.9 107.2,44.9 112.4,49.8 
		112.4,53.3 131.5,53.3 	"/>
	<g>
		<polygon class="st7" points="110.1,91.6 74.2,91.6 74.2,41 105,41 110.1,45.9 		"/>
		<polygon class="st7" points="105,41 105,46 110.1,46 		"/>
		<line class="st10" x1="86.9" y1="52.1" x2="103.8" y2="52.1"/>
		<line class="st10" x1="80.6" y1="52.1" x2="85" y2="52.1"/>
		<line class="st10" x1="95.4" y1="59" x2="103.8" y2="59"/>
		<line class="st10" x1="80.6" y1="59" x2="93.7" y2="59"/>
		<line class="st10" x1="89" y1="66" x2="103.8" y2="66"/>
		<line class="st10" x1="80.6" y1="66" x2="87.7" y2="66"/>
		<line class="st10" x1="80.6" y1="73" x2="103.8" y2="73"/>
		<line class="st10" x1="95.2" y1="80" x2="103.8" y2="80"/>
		<line class="st10" x1="80.6" y1="80" x2="92.8" y2="80"/>
	</g>
	<g>
		<polygon class="st7" points="134.3,100 98.4,100 98.4,49.4 129.2,49.4 134.3,54.3 		"/>
		<polygon class="st7" points="129.2,49.4 129.2,54.5 134.3,54.5 		"/>
		<line class="st10" x1="114.9" y1="60.5" x2="128.1" y2="60.5"/>
		<line class="st10" x1="104.8" y1="60.5" x2="113.3" y2="60.5"/>
		<line class="st10" x1="124.1" y1="67.5" x2="128.1" y2="67.5"/>
		<line class="st10" x1="104.8" y1="67.5" x2="122.6" y2="67.5"/>
		<line class="st10" x1="125.3" y1="74.5" x2="128.1" y2="74.5"/>
		<line class="st10" x1="110.3" y1="74.5" x2="123.6" y2="74.5"/>
		<line class="st10" x1="104.8" y1="74.5" x2="108" y2="74.5"/>
		<line class="st10" x1="116.9" y1="81.5" x2="128.1" y2="81.5"/>
		<line class="st10" x1="104.8" y1="81.5" x2="115.1" y2="81.5"/>
		<line class="st10" x1="116.4" y1="88.5" x2="128.1" y2="88.5"/>
		<line class="st10" x1="104.8" y1="88.5" x2="114.5" y2="88.5"/>
	</g>
</g>
</svg>
