<?xml version="1.0" encoding="utf-8"?>
<!-- Generator: Adobe Illustrator 24.1.1, SVG Export Plug-In . SVG Version: 6.00 Build 0)  -->
<svg version="1.1" id="Layer_1" xmlns="http://www.w3.org/2000/svg" xmlns:xlink="http://www.w3.org/1999/xlink" x="0px" y="0px"
	 viewBox="0 0 263 250" style="enable-background:new 0 0 263 250;" xml:space="preserve">
<style type="text/css">
	.st0{fill:#9BD2A5;}
	.st1{fill:#E4E8F9;enable-background:new    ;}
	.st2{fill:#FFD648;stroke:#263238;stroke-width:0.25;stroke-miterlimit:10;}
	.st3{fill:none;stroke:#263238;stroke-width:0.25;stroke-miterlimit:10;}
	.st4{fill:#263238;stroke:#263238;stroke-width:0.25;stroke-miterlimit:10;}
	.st5{fill:none;stroke:#263238;stroke-width:0.25;stroke-linecap:round;stroke-linejoin:round;stroke-miterlimit:10;}
	.st6{fill:#3F4400;stroke:#676464;stroke-width:0.25;stroke-linecap:round;stroke-linejoin:round;stroke-miterlimit:10;}
	.st7{fill:#8E0303;stroke:#4C0F02;stroke-width:0.25;stroke-linecap:round;stroke-linejoin:round;stroke-miterlimit:10;}
	.st8{fill:#FFFFFF;stroke:#676464;stroke-width:0.25;stroke-linecap:round;stroke-linejoin:round;stroke-miterlimit:10;}
	.st9{fill:#0E31AE;stroke:#263238;stroke-width:0.25;stroke-linecap:round;stroke-linejoin:round;stroke-miterlimit:10;}
	.st10{fill:#FFFFFF;stroke:#263238;stroke-width:0.25;stroke-linecap:round;stroke-linejoin:round;stroke-miterlimit:10;}
	.st11{fill:#FFFFFF;}
	.st12{fill:none;stroke:#737070;stroke-width:0.25;stroke-miterlimit:10;}
	.st13{fill:none;stroke:#031244;stroke-width:0.5;stroke-linecap:round;stroke-miterlimit:10;}
	.st14{fill:#8E0303;}
	.st15{fill:#A3B5F7;stroke:#263238;stroke-width:0.25;stroke-miterlimit:10;}
	.st16{fill:#FFD648;}
	.st17{fill:#0E31AE;}
	.st18{enable-background:new    ;}
	.st19{fill:#010101;}
	.st20{font-family:'MyriadPro-Regular';}
	.st21{font-size:5.6168px;}
	.st22{font-size:6.0741px;}
	.st23{fill:#FFFFFF;stroke:#263238;stroke-width:0.25;stroke-linecap:round;stroke-linejoin:round;stroke-miterlimit:9.9996;}
	.st24{fill:none;stroke:#9BD2A5;stroke-width:0.25;stroke-linecap:round;stroke-miterlimit:10;}
	.st25{fill:#9BD2A5;stroke:#263238;stroke-width:0.25;stroke-linecap:round;stroke-linejoin:round;stroke-miterlimit:10;}
	.st26{fill:#263238;stroke:#263238;stroke-width:0.25;stroke-linecap:round;stroke-linejoin:round;stroke-miterlimit:10;}
	.st27{fill:#06033A;stroke:#263238;stroke-width:0.25;stroke-linecap:round;stroke-linejoin:round;stroke-miterlimit:10;}
	.st28{fill:#013849;stroke:#000B0F;stroke-width:0.25;stroke-linecap:round;stroke-linejoin:round;stroke-miterlimit:10;}
	.st29{fill:none;stroke:#000000;stroke-width:0.25;stroke-linecap:round;stroke-linejoin:round;stroke-miterlimit:10;}
	.st30{fill:#25702C;stroke:#263238;stroke-width:0.25;stroke-linecap:round;stroke-linejoin:round;stroke-miterlimit:10;}
	.st31{fill:none;stroke:#5F5C5C;stroke-width:0.25;stroke-linecap:round;stroke-linejoin:round;stroke-miterlimit:10;}
	.st32{fill:#3E63CC;stroke:#263238;stroke-width:0.25;stroke-linecap:round;stroke-linejoin:round;stroke-miterlimit:10;}
</style>
<g>
	<path class="st0" d="M205.4,39.2c0,0-25.4-18.8-57.8-8.4C115.1,41.1,102,69,83.6,88.7c-9.6,10.3-24,14.6-35.5,22.7
		c-36.8,25.9-30.4,80-1.4,99.2c25.1,16.6,56.2,17.1,96.3,2.1s68.9-24.1,93.3-62.8S236.7,64.8,205.4,39.2z"/>
	<path class="st1" d="M205.4,39.2c0,0-25.4-18.8-57.8-8.4C115.1,41.1,102,69,83.6,88.7c-9.6,10.3-24,14.6-35.5,22.7
		c-36.8,25.9-30.4,80-1.4,99.2c25.1,16.6,56.2,17.1,96.3,2.1s68.9-24.1,93.3-62.8S236.7,64.8,205.4,39.2z"/>
</g>
<g>
	<g>
		<line class="st2" x1="206.3" y1="178.7" x2="211.1" y2="224.1"/>
		<g>
			<g>
				<line class="st2" x1="210.3" y1="215.4" x2="208.2" y2="213.1"/>
				<path class="st2" d="M208.8,213.8c0,0,0.1-1-0.9-1.8c-0.6-0.5-3.5-1.7-3.7-0.7C203.9,212.4,206.9,214.6,208.8,213.8z"/>
				<line class="st2" x1="208.8" y1="213.8" x2="206" y2="212.1"/>
			</g>
			<g>
				<line class="st2" x1="210.8" y1="220.5" x2="208.7" y2="218.3"/>
				<path class="st2" d="M209.3,219c0,0,0.1-1-0.9-1.8c-0.6-0.5-3.5-1.7-3.7-0.7C204.5,217.6,207.4,219.7,209.3,219z"/>
				<line class="st2" x1="209.3" y1="219" x2="206.6" y2="217.2"/>
			</g>
			<g>
				<line class="st2" x1="209" y1="202.8" x2="206.8" y2="200.5"/>
				<path class="st2" d="M207.5,201.2c0,0,0.1-1-0.9-1.8c-0.6-0.5-3.5-1.7-3.7-0.7C202.6,199.8,205.6,202,207.5,201.2z"/>
				<line class="st2" x1="207.5" y1="201.2" x2="204.7" y2="199.5"/>
			</g>
			<g>
				<line class="st2" x1="209.5" y1="207.9" x2="207.4" y2="205.7"/>
				<path class="st2" d="M208,206.4c0,0,0.1-1-0.9-1.8c-0.6-0.5-3.5-1.7-3.7-0.7C203.1,205,206.1,207.1,208,206.4z"/>
				<line class="st2" x1="208" y1="206.4" x2="205.3" y2="204.6"/>
			</g>
			<g>
				<line class="st2" x1="208.1" y1="194.4" x2="206" y2="192.1"/>
				<path class="st2" d="M206.6,192.8c0,0,0.1-1-0.9-1.8c-0.6-0.5-3.5-1.7-3.7-0.7C201.7,191.4,204.7,193.6,206.6,192.8z"/>
				<line class="st2" x1="206.6" y1="192.8" x2="203.9" y2="191.1"/>
			</g>
			<g>
				<line class="st2" x1="207.2" y1="186" x2="205.1" y2="183.7"/>
				<path class="st2" d="M205.7,184.4c0,0,0.1-1-0.9-1.8c-0.6-0.5-3.5-1.7-3.7-0.7C200.9,183,203.8,185.2,205.7,184.4z"/>
				<line class="st2" x1="205.7" y1="184.4" x2="203" y2="182.7"/>
			</g>
			<g>
				<line class="st2" x1="209.9" y1="212.3" x2="211.6" y2="209.7"/>
				<path class="st2" d="M211.1,210.5c0,0-0.3-1,0.5-2c0.4-0.6,3-2.4,3.5-1.4S213.1,210.8,211.1,210.5z"/>
				<line class="st2" x1="211.1" y1="210.5" x2="213.6" y2="208.1"/>
			</g>
			<g>
				<line class="st2" x1="208.5" y1="198.7" x2="210.2" y2="196.1"/>
				<path class="st2" d="M209.7,196.9c0,0-0.3-1,0.5-2c0.4-0.6,3-2.4,3.5-1.4C214.1,194.5,211.7,197.2,209.7,196.9z"/>
				<line class="st2" x1="209.7" y1="196.9" x2="212.1" y2="194.5"/>
			</g>
			<g>
				<line class="st2" x1="207.9" y1="192.8" x2="209.5" y2="190.1"/>
				<path class="st2" d="M209,190.9c0,0-0.3-1,0.5-2c0.4-0.6,3-2.4,3.5-1.4S211.1,191.3,209,190.9z"/>
				<line class="st2" x1="209" y1="190.9" x2="211.5" y2="188.5"/>
			</g>
			<g>
				<line class="st2" x1="207" y1="184" x2="208.6" y2="181.3"/>
				<path class="st2" d="M208.1,182.1c0,0-0.3-1,0.5-2c0.4-0.6,3-2.4,3.5-1.4C212.6,179.8,210.2,182.5,208.1,182.1z"/>
				<line class="st2" x1="208.1" y1="182.1" x2="210.6" y2="179.8"/>
				<path class="st2" d="M206.3,178.4c0,0-0.3-1,0.5-2c0.4-0.6,3-2.4,3.5-1.4S208.3,178.8,206.3,178.4z"/>
				<line class="st2" x1="206.3" y1="178.4" x2="208.8" y2="176"/>
				<path class="st2" d="M206.4,178.5c0,0-1,0.2-1.9-0.7c-0.5-0.5-2.1-3.3-1.1-3.6C204.5,173.8,207,176.5,206.4,178.5z"/>
				<line class="st2" x1="206.4" y1="178.5" x2="204.3" y2="175.8"/>
			</g>
		</g>
	</g>
	<g>
		<line class="st2" x1="218.8" y1="184.9" x2="214.1" y2="230.3"/>
		<g>
			<g>
				<line class="st2" x1="215.2" y1="221.7" x2="213.5" y2="219"/>
				<path class="st2" d="M214,219.8c0,0,0.3-1-0.5-2c-0.4-0.6-3-2.4-3.5-1.4C209.5,217.4,212,220.2,214,219.8z"/>
				<line class="st2" x1="214" y1="219.8" x2="211.7" y2="217.5"/>
			</g>
			<g>
				<line class="st2" x1="216.5" y1="209.1" x2="214.8" y2="206.4"/>
				<path class="st2" d="M215.3,207.2c0,0,0.3-1-0.5-2c-0.4-0.6-3-2.4-3.5-1.4S213.3,207.6,215.3,207.2z"/>
				<line class="st2" x1="215.3" y1="207.2" x2="213" y2="204.9"/>
			</g>
			<g>
				<line class="st2" x1="215.9" y1="214.2" x2="214.3" y2="211.6"/>
				<path class="st2" d="M214.8,212.4c0,0,0.3-1-0.5-2c-0.4-0.6-3-2.4-3.5-1.4S212.8,212.7,214.8,212.4z"/>
				<line class="st2" x1="214.8" y1="212.4" x2="212.4" y2="210.1"/>
			</g>
			<g>
				<line class="st2" x1="217.3" y1="200.7" x2="215.7" y2="198"/>
				<path class="st2" d="M216.2,198.8c0,0,0.3-1-0.5-2c-0.4-0.6-3-2.4-3.5-1.4C211.7,196.4,214.2,199.2,216.2,198.8z"/>
				<line class="st2" x1="216.2" y1="198.8" x2="213.8" y2="196.6"/>
			</g>
			<g>
				<line class="st2" x1="218.2" y1="192.2" x2="216.6" y2="189.6"/>
				<path class="st2" d="M217.1,190.4c0,0,0.3-1-0.5-2c-0.4-0.6-3-2.4-3.5-1.4S215,190.8,217.1,190.4z"/>
				<line class="st2" x1="217.1" y1="190.4" x2="214.7" y2="188.1"/>
			</g>
			<g>
				<line class="st2" x1="215.4" y1="218.6" x2="217.6" y2="216.3"/>
				<path class="st2" d="M216.9,217c0,0-0.1-1,0.9-1.8c0.6-0.5,3.5-1.7,3.7-0.7C221.8,215.6,218.8,217.8,216.9,217z"/>
				<line class="st2" x1="216.9" y1="217" x2="219.8" y2="215.2"/>
			</g>
			<g>
				<line class="st2" x1="216.8" y1="205" x2="219" y2="202.7"/>
				<path class="st2" d="M218.3,203.4c0,0-0.1-1,0.9-1.8c0.6-0.5,3.5-1.7,3.7-0.7C223.2,202,220.2,204.2,218.3,203.4z"/>
				<line class="st2" x1="218.3" y1="203.4" x2="221.3" y2="201.6"/>
			</g>
			<g>
				<line class="st2" x1="217.5" y1="199" x2="219.6" y2="196.8"/>
				<path class="st2" d="M219,197.4c0,0-0.1-1,0.9-1.8c0.6-0.5,3.5-1.7,3.7-0.7C223.8,196,220.9,198.2,219,197.4z"/>
				<line class="st2" x1="219" y1="197.4" x2="221.9" y2="195.6"/>
			</g>
			<g>
				<line class="st2" x1="218.4" y1="190.3" x2="220.5" y2="188"/>
				<path class="st2" d="M219.9,188.7c0,0-0.1-1,0.9-1.8c0.6-0.5,3.5-1.7,3.7-0.7C224.7,187.3,221.8,189.5,219.9,188.7z"/>
				<line class="st2" x1="219.9" y1="188.7" x2="222.8" y2="186.9"/>
				<path class="st2" d="M218.8,184.7c0,0-0.1-1,0.9-1.8c0.6-0.5,3.5-1.7,3.7-0.7C223.7,183.3,220.8,185.4,218.8,184.7z"/>
				<line class="st2" x1="218.8" y1="184.7" x2="221.8" y2="182.8"/>
				<path class="st2" d="M219,184.8c0,0-1,0-1.7-1c-0.4-0.6-1.3-3.6-0.3-3.8C218.1,179.8,219.9,183,219,184.8z"/>
				<line class="st2" x1="219" y1="184.8" x2="217.5" y2="181.7"/>
			</g>
		</g>
	</g>
	<line class="st3" x1="213.4" y1="166.4" x2="213.4" y2="223.9"/>
	<g>
		<g>
			<line class="st2" x1="213.5" y1="215.2" x2="211.6" y2="212.7"/>
			<path class="st2" d="M212.1,213.5c0,0,0.2-1-0.7-1.9c-0.5-0.5-3.3-2.1-3.6-1.1C207.4,211.6,210.2,214.1,212.1,213.5z"/>
			<line class="st2" x1="212.1" y1="213.5" x2="209.6" y2="211.5"/>
		</g>
		<g>
			<line class="st2" x1="213.5" y1="204.4" x2="211.6" y2="201.9"/>
			<path class="st2" d="M212.1,202.7c0,0,0.2-1-0.7-1.9c-0.5-0.5-3.3-2.1-3.6-1.1C207.4,200.8,210.2,203.3,212.1,202.7z"/>
			<line class="st2" x1="212.1" y1="202.7" x2="209.6" y2="200.7"/>
		</g>
		<g>
			<line class="st2" x1="213.5" y1="191.8" x2="211.6" y2="189.3"/>
			<path class="st2" d="M212.1,190c0,0,0.2-1-0.7-1.9c-0.5-0.5-3.3-2.1-3.6-1.1C207.4,188.1,210.2,190.6,212.1,190z"/>
			<line class="st2" x1="212.1" y1="190" x2="209.6" y2="188"/>
		</g>
		<g>
			<line class="st2" x1="213.5" y1="183.3" x2="211.6" y2="180.8"/>
			<path class="st2" d="M212.1,181.6c0,0,0.2-1-0.7-1.9c-0.5-0.5-3.3-2.1-3.6-1.1C207.4,179.7,210.2,182.2,212.1,181.6z"/>
			<line class="st2" x1="212.1" y1="181.6" x2="209.6" y2="179.6"/>
		</g>
		<g>
			<line class="st2" x1="213.5" y1="174.8" x2="211.6" y2="172.4"/>
			<path class="st2" d="M212.1,173.1c0,0,0.2-1-0.7-1.9c-0.5-0.5-3.3-2.1-3.6-1.1C207.4,171.2,210.2,173.7,212.1,173.1z"/>
			<line class="st2" x1="212.1" y1="173.1" x2="209.6" y2="171.1"/>
		</g>
		<g>
			<line class="st2" x1="213.4" y1="218.5" x2="215.3" y2="216"/>
			<path class="st2" d="M214.8,216.8c0,0-0.2-1,0.7-1.9c0.5-0.5,3.3-2.1,3.6-1.1C219.5,214.9,216.7,217.4,214.8,216.8z"/>
			<line class="st2" x1="214.8" y1="216.8" x2="217.5" y2="214.7"/>
		</g>
		<g>
			<line class="st2" x1="213.4" y1="201.3" x2="215.3" y2="198.9"/>
			<path class="st2" d="M214.8,199.6c0,0-0.2-1,0.7-1.9c0.5-0.5,3.3-2.1,3.6-1.1C219.5,197.7,216.7,200.2,214.8,199.6z"/>
			<line class="st2" x1="214.8" y1="199.6" x2="217.5" y2="197.5"/>
		</g>
		<g>
			<line class="st2" x1="213.4" y1="192.9" x2="215.3" y2="190.4"/>
			<path class="st2" d="M214.8,191.1c0,0-0.2-1,0.7-1.9c0.5-0.5,3.3-2.1,3.6-1.1C219.5,189.2,216.7,191.7,214.8,191.1z"/>
			<line class="st2" x1="214.8" y1="191.1" x2="217.5" y2="189"/>
		</g>
		<g>
			<line class="st2" x1="213.4" y1="181.7" x2="215.3" y2="179.2"/>
			<path class="st2" d="M214.8,179.9c0,0-0.2-1,0.7-1.9c0.5-0.5,3.3-2.1,3.6-1.1C219.5,178,216.7,180.5,214.8,179.9z"/>
			<line class="st2" x1="214.8" y1="179.9" x2="217.5" y2="177.8"/>
		</g>
		<g>
			<line class="st2" x1="213.4" y1="172.9" x2="215.3" y2="170.4"/>
			<path class="st2" d="M214.8,171.1c0,0-0.2-1,0.7-1.9c0.5-0.5,3.3-2.1,3.6-1.1C219.5,169.2,216.7,171.7,214.8,171.1z"/>
			<line class="st2" x1="214.8" y1="171.1" x2="217.5" y2="169"/>
			<path class="st2" d="M213.3,167.2c0,0-0.2-1,0.7-1.9c0.5-0.5,3.3-2.1,3.6-1.1C218,165.3,215.3,167.8,213.3,167.2z"/>
			<line class="st2" x1="213.3" y1="167.2" x2="216" y2="165.1"/>
			<path class="st2" d="M213.4,167.3c0,0-1,0.1-1.8-0.9c-0.5-0.6-1.7-3.5-0.7-3.7C212.1,162.5,214.2,165.4,213.4,167.3z"/>
			<line class="st2" x1="213.4" y1="167.3" x2="211.6" y2="164.4"/>
		</g>
	</g>
	<polygon class="st4" points="215.8,238.7 209.7,238.7 208.9,223.4 216.5,223.4 	"/>
</g>
<g>
	<line class="st5" x1="197" y1="238.8" x2="245.2" y2="238.8"/>
	<line class="st5" x1="62.6" y1="238.8" x2="193.2" y2="238.8"/>
	<line class="st5" x1="21.5" y1="238.8" x2="57.5" y2="238.8"/>
</g>
<g>
	<g>
		<polygon class="st6" points="91.4,238.8 88.1,205.2 85.6,205.8 90.2,238.8 		"/>
		<polygon class="st6" points="53.5,238.8 58.1,205.8 55.6,205.2 52.3,238.8 		"/>
		<path class="st7" d="M56.3,209.3L54.7,170c-0.1-2.3,1.8-4.3,4.1-4.3h27.5c2.4,0,4.3,2,4.1,4.4l-3,39.1H56.3V209.3z"/>
		<rect x="53.4" y="200.7" class="st7" width="36.5" height="8.6"/>
		<path class="st7" d="M56.3,209.3h-2.8l-1.9-16.2c0-1.3,1.1-2.3,2.3-2.3l0,0c1.3,0,2.3,1.1,2.3,2.3v16.2H56.3z"/>
		<path class="st7" d="M87.3,209.3h2.8l1.9-16.2c0-1.3-1.1-2.3-2.3-2.3l0,0c-1.3,0-2.3,1.1-2.3,2.3L87.3,209.3L87.3,209.3z"/>
	</g>
	<path class="st8" d="M61.6,181.6H36v-12.7c0-1.4,1.1-2.5,2.5-2.5h20.6c1.4,0,2.5,1.1,2.5,2.5V181.6z"/>
	<g>
		<g>
			<polygon class="st9" points="117.9,238.8 114.8,185.9 112.3,185.9 116.7,238.8 			"/>
			<polygon class="st9" points="127.4,238.8 124.4,185.9 121.8,185.9 126.2,238.8 			"/>
			<polygon class="st9" points="43.3,238.8 47.1,185.9 44.5,185.9 42.1,238.8 			"/>
			<polygon class="st9" points="32.6,238.8 36.4,185.9 33.8,185.9 31.4,238.8 			"/>
		</g>
		<g>
			<rect x="32.1" y="182.9" class="st8" width="95.6" height="4.6"/>
			<rect x="32.1" y="182.9" class="st9" width="95.6" height="1.6"/>
			<rect x="30.7" y="181.3" class="st8" width="98.5" height="1.8"/>
		</g>
	</g>
</g>
<g>
	<rect x="46.3" y="34.7" class="st1" width="162.9" height="127.3"/>
	<g>
		<g>
			<rect x="51.5" y="29.7" class="st0" width="163.4" height="127.6"/>
			<rect x="51.5" y="29.7" class="st10" width="163.4" height="127.6"/>
		</g>
		<rect x="55.5" y="54.3" class="st11" width="152.3" height="69.3"/>
		<g>
			<g>
				<line class="st12" x1="60.3" y1="113.7" x2="202.2" y2="113.7"/>
				<g>
					<g>
						<line class="st12" x1="60.3" y1="113.7" x2="60.3" y2="112.3"/>
						<line class="st12" x1="67.8" y1="113.7" x2="67.8" y2="112.3"/>
						<line class="st12" x1="75.2" y1="113.7" x2="75.2" y2="112.3"/>
						<line class="st12" x1="82.7" y1="113.7" x2="82.7" y2="112.3"/>
						<line class="st12" x1="90.2" y1="113.7" x2="90.2" y2="112.3"/>
						<line class="st12" x1="97.6" y1="113.7" x2="97.6" y2="112.3"/>
						<line class="st12" x1="105.1" y1="113.7" x2="105.1" y2="112.3"/>
						<line class="st12" x1="112.6" y1="113.7" x2="112.6" y2="112.3"/>
						<line class="st12" x1="120" y1="113.7" x2="120" y2="112.3"/>
						<line class="st12" x1="127.5" y1="113.7" x2="127.5" y2="112.3"/>
						<line class="st12" x1="135" y1="113.7" x2="135" y2="112.3"/>
						<line class="st12" x1="142.4" y1="113.7" x2="142.4" y2="112.3"/>
						<line class="st12" x1="149.9" y1="113.7" x2="149.9" y2="112.3"/>
						<line class="st12" x1="157.4" y1="113.7" x2="157.4" y2="112.3"/>
						<line class="st12" x1="164.8" y1="113.7" x2="164.8" y2="112.3"/>
						<line class="st12" x1="172.3" y1="113.7" x2="172.3" y2="112.3"/>
						<line class="st12" x1="179.8" y1="113.7" x2="179.8" y2="112.3"/>
						<line class="st12" x1="187.2" y1="113.7" x2="187.2" y2="112.3"/>
						<line class="st12" x1="194.7" y1="113.7" x2="194.7" y2="112.3"/>
						<line class="st12" x1="202.2" y1="113.7" x2="202.2" y2="112.3"/>
					</g>
				</g>
			</g>
			<g>
				<line class="st12" x1="60.3" y1="113.7" x2="60.3" y2="58"/>
				<g>
					<g>
						<line class="st12" x1="60.3" y1="113.7" x2="63.8" y2="113.7"/>
						<line class="st12" x1="60.3" y1="102.6" x2="56.4" y2="102.6"/>
						<line class="st12" x1="60.3" y1="91.4" x2="56.4" y2="91.4"/>
						<line class="st12" x1="60.3" y1="80.3" x2="56.4" y2="80.3"/>
						<line class="st12" x1="60.3" y1="69.2" x2="56.4" y2="69.2"/>
						<line class="st12" x1="60.3" y1="58" x2="56.4" y2="58"/>
					</g>
				</g>
			</g>
			<g>
				<g>
					<g>
						<line class="st13" x1="191" y1="69.2" x2="198.4" y2="60.7"/>
						<line class="st13" x1="183.5" y1="88.1" x2="191" y2="69.2"/>
						<line class="st13" x1="176" y1="80.3" x2="183.5" y2="88.1"/>
						<line class="st13" x1="168.6" y1="100.3" x2="176" y2="80.3"/>
						<line class="st13" x1="161.1" y1="69.2" x2="168.6" y2="100.3"/>
						<line class="st13" x1="153.6" y1="58" x2="161.1" y2="69.2"/>
						<line class="st13" x1="146.2" y1="108.1" x2="153.6" y2="58"/>
						<line class="st13" x1="138.7" y1="104.8" x2="146.2" y2="108.1"/>
						<line class="st13" x1="131.2" y1="103.7" x2="138.7" y2="104.8"/>
						<line class="st13" x1="123.8" y1="81.6" x2="131.2" y2="103.7"/>
						<line class="st13" x1="116.3" y1="77.2" x2="123.8" y2="81.6"/>
						<line class="st13" x1="108.8" y1="98.1" x2="116.3" y2="77.2"/>
						<line class="st13" x1="101.4" y1="102.6" x2="108.8" y2="98.1"/>
						<line class="st13" x1="93.9" y1="79.2" x2="101.4" y2="102.6"/>
						<line class="st13" x1="86.4" y1="75.8" x2="93.9" y2="79.2"/>
						<line class="st13" x1="79" y1="71.4" x2="86.4" y2="75.8"/>
						<line class="st13" x1="71.5" y1="75.8" x2="79" y2="71.4"/>
						<line class="st13" x1="64" y1="80.3" x2="71.5" y2="75.8"/>
					</g>
				</g>
			</g>
			<g>
				<g>
					<g>
						<path class="st14" d="M198.4,59.4L198.4,59.4c-0.7,0-1.3,0.6-1.3,1.3l0,0c0,0.7,0.6,1.3,1.3,1.3l0,0c0.7,0,1.3-0.6,1.3-1.3
							l0,0C199.8,60,199.2,59.4,198.4,59.4z"/>
						<path class="st14" d="M191,67.8L191,67.8c-0.7,0-1.3,0.6-1.3,1.3l0,0c0,0.7,0.6,1.3,1.3,1.3l0,0c0.7,0,1.3-0.6,1.3-1.3l0,0
							C192.3,68.4,191.7,67.8,191,67.8z"/>
						<path class="st14" d="M183.5,86.8L183.5,86.8c-0.7,0-1.3,0.6-1.3,1.3l0,0c0,0.7,0.6,1.3,1.3,1.3l0,0c0.7,0,1.3-0.6,1.3-1.3
							l0,0C184.8,87.4,184.2,86.8,183.5,86.8z"/>
						<path class="st14" d="M176,79L176,79c-0.7,0-1.3,0.6-1.3,1.3l0,0c0,0.7,0.6,1.3,1.3,1.3l0,0c0.7,0,1.3-0.6,1.3-1.3l0,0
							C177.4,79.6,176.8,79,176,79z"/>
						<path class="st14" d="M168.6,99L168.6,99c-0.7,0-1.3,0.6-1.3,1.3l0,0c0,0.7,0.6,1.3,1.3,1.3l0,0c0.7,0,1.3-0.6,1.3-1.3l0,0
							C169.9,99.6,169.3,99,168.6,99z"/>
						<path class="st14" d="M161.1,67.8L161.1,67.8c-0.7,0-1.3,0.6-1.3,1.3l0,0c0,0.7,0.6,1.3,1.3,1.3l0,0c0.7,0,1.3-0.6,1.3-1.3
							l0,0C162.4,68.4,161.8,67.8,161.1,67.8z"/>
						<path class="st14" d="M153.6,56.7L153.6,56.7c-0.7,0-1.3,0.6-1.3,1.3l0,0c0,0.7,0.6,1.3,1.3,1.3l0,0c0.7,0,1.3-0.6,1.3-1.3
							l0,0C155,57.3,154.4,56.7,153.6,56.7z"/>
						<path class="st14" d="M146.2,106.8L146.2,106.8c-0.7,0-1.3,0.6-1.3,1.3l0,0c0,0.7,0.6,1.3,1.3,1.3l0,0c0.7,0,1.3-0.6,1.3-1.3
							l0,0C147.5,107.4,146.9,106.8,146.2,106.8z"/>
						<path class="st14" d="M138.7,103.5L138.7,103.5c-0.7,0-1.3,0.6-1.3,1.3l0,0c0,0.7,0.6,1.3,1.3,1.3l0,0c0.7,0,1.3-0.6,1.3-1.3
							l0,0C140,104.1,139.4,103.5,138.7,103.5z"/>
						<path class="st14" d="M131.2,102.3L131.2,102.3c-0.7,0-1.3,0.6-1.3,1.3l0,0c0,0.7,0.6,1.3,1.3,1.3l0,0c0.7,0,1.3-0.6,1.3-1.3
							l0,0C132.6,102.9,132,102.3,131.2,102.3z"/>
						<path class="st14" d="M123.8,80.3L123.8,80.3c-0.7,0-1.3,0.6-1.3,1.3l0,0c0,0.7,0.6,1.3,1.3,1.3l0,0c0.7,0,1.3-0.6,1.3-1.3
							l0,0C125.1,80.9,124.5,80.3,123.8,80.3z"/>
						<path class="st14" d="M116.3,75.8L116.3,75.8c-0.7,0-1.3,0.6-1.3,1.3l0,0c0,0.7,0.6,1.3,1.3,1.3l0,0c0.7,0,1.3-0.6,1.3-1.3
							l0,0C117.6,76.4,117,75.8,116.3,75.8z"/>
						<path class="st14" d="M108.8,96.8L108.8,96.8c-0.7,0-1.3,0.6-1.3,1.3l0,0c0,0.7,0.6,1.3,1.3,1.3l0,0c0.7,0,1.3-0.6,1.3-1.3
							l0,0C110.2,97.4,109.6,96.8,108.8,96.8z"/>
						<path class="st14" d="M101.4,101.2L101.4,101.2c-0.7,0-1.3,0.6-1.3,1.3l0,0c0,0.7,0.6,1.3,1.3,1.3l0,0c0.7,0,1.3-0.6,1.3-1.3
							l0,0C102.7,101.8,102.1,101.2,101.4,101.2z"/>
						<path class="st14" d="M93.9,77.9L93.9,77.9c-0.7,0-1.3,0.6-1.3,1.3l0,0c0,0.7,0.6,1.3,1.3,1.3l0,0c0.7,0,1.3-0.6,1.3-1.3l0,0
							C95.2,78.5,94.6,77.9,93.9,77.9z"/>
						<path class="st14" d="M86.4,74.5L86.4,74.5c-0.7,0-1.3,0.6-1.3,1.3l0,0c0,0.7,0.6,1.3,1.3,1.3l0,0c0.7,0,1.3-0.6,1.3-1.3l0,0
							C87.8,75.1,87.2,74.5,86.4,74.5z"/>
						<path class="st14" d="M79,70.1L79,70.1c-0.7,0-1.3,0.6-1.3,1.3l0,0c0,0.7,0.6,1.3,1.3,1.3l0,0c0.7,0,1.3-0.6,1.3-1.3l0,0
							C80.3,70.7,79.7,70.1,79,70.1z"/>
						<path class="st14" d="M71.5,74.5L71.5,74.5c-0.7,0-1.3,0.6-1.3,1.3l0,0c0,0.7,0.6,1.3,1.3,1.3l0,0c0.7,0,1.3-0.6,1.3-1.3l0,0
							C72.8,75.1,72.2,74.5,71.5,74.5z"/>
						<path class="st14" d="M64,79L64,79c-0.7,0-1.3,0.6-1.3,1.3l0,0c0,0.7,0.6,1.3,1.3,1.3l0,0c0.7,0,1.3-0.6,1.3-1.3l0,0
							C65.4,79.6,64.8,79,64,79z"/>
					</g>
				</g>
			</g>
		</g>
		<rect x="210.7" y="29.7" class="st15" width="4.2" height="127.6"/>
		<rect x="210.7" y="69.3" class="st9" width="4.2" height="34.5"/>
		<rect x="51.5" y="29.7" class="st9" width="163.4" height="8.3"/>
		<path class="st9" d="M83.4,48.1H51.5V40h31.9c1.1,0,2,0.9,2,2v4.1C85.5,47.2,84.6,48.1,83.4,48.1z"/>
		<rect x="62.3" y="31.1" class="st11" width="105" height="4.7"/>
		<g>
			<rect x="60.4" y="115.2" class="st16" width="7.1" height="3.3"/>
			<rect x="67.9" y="115.2" class="st1" width="7.1" height="3.3"/>
			<rect x="75.3" y="115.2" class="st16" width="7.1" height="3.3"/>
			<rect x="82.8" y="115.2" class="st1" width="7.1" height="3.3"/>
			<rect x="90.3" y="115.2" class="st16" width="7.1" height="3.3"/>
			<rect x="97.8" y="115.2" class="st1" width="7.1" height="3.3"/>
			<rect x="105.2" y="115.2" class="st16" width="7.1" height="3.3"/>
			<rect x="112.7" y="115.2" class="st1" width="7.1" height="3.3"/>
			<rect x="120.2" y="115.2" class="st16" width="7.1" height="3.3"/>
			<rect x="127.7" y="115.2" class="st1" width="7.1" height="3.3"/>
			<rect x="135.1" y="115.2" class="st16" width="7.1" height="3.3"/>
			<rect x="142.6" y="115.2" class="st1" width="7.1" height="3.3"/>
			<rect x="150.1" y="115.2" class="st16" width="7.1" height="3.3"/>
			<rect x="157.6" y="115.2" class="st1" width="7.1" height="3.3"/>
			<rect x="165" y="115.2" class="st16" width="7.1" height="3.3"/>
			<rect x="172.5" y="115.2" class="st1" width="7.1" height="3.3"/>
			<rect x="180" y="115.2" class="st16" width="7.1" height="3.3"/>
			<rect x="187.5" y="115.2" class="st1" width="7.1" height="3.3"/>
			<rect x="194.9" y="115.2" class="st16" width="7.1" height="3.3"/>
		</g>
		<g>
			<rect x="55.8" y="49.8" class="st14" width="12.1" height="3.3"/>
			<rect x="68.5" y="49.8" class="st17" width="12.1" height="3.3"/>
			<rect x="81.2" y="49.8" class="st14" width="12.1" height="3.3"/>
			<rect x="94" y="49.8" class="st17" width="12.1" height="3.3"/>
			<rect x="106.7" y="49.8" class="st14" width="12.1" height="3.3"/>
			<rect x="119.4" y="49.8" class="st17" width="12.1" height="3.3"/>
			<rect x="132.2" y="49.8" class="st14" width="12.1" height="3.3"/>
			<rect x="144.9" y="49.8" class="st17" width="12.1" height="3.3"/>
			<rect x="157.6" y="49.8" class="st14" width="12.1" height="3.3"/>
			<rect x="170.4" y="49.8" class="st17" width="12.1" height="3.3"/>
			<rect x="183.1" y="49.8" class="st14" width="12.1" height="3.3"/>
			<rect x="195.8" y="49.8" class="st17" width="12.1" height="3.3"/>
		</g>
		<g>
			<line class="st3" x1="123.2" y1="144.4" x2="136.8" y2="144.4"/>
		</g>
		<line class="st3" x1="105.3" y1="129.3" x2="105.3" y2="145.8"/>
		<line class="st3" x1="160.8" y1="129.3" x2="160.8" y2="145.8"/>
		<g>
			<line class="st3" x1="207" y1="40.9" x2="198.9" y2="40.9"/>
			<line class="st3" x1="207" y1="43.4" x2="198.9" y2="43.4"/>
			<line class="st3" x1="207" y1="45.9" x2="198.9" y2="45.9"/>
		</g>
		<g class="st18">
			<path class="st11" d="M57.8,44.9c0.2,0.1,0.5,0.2,0.9,0.2c0.5,0,0.8-0.3,0.8-0.6c0-0.4-0.2-0.6-0.7-0.8c-0.6-0.2-1-0.5-1-1.1
				s0.5-1,1.2-1c0.4,0,0.7,0.1,0.8,0.2l-0.1,0.4C59.6,42.1,59.3,42,59,42c-0.5,0-0.7,0.3-0.7,0.6c0,0.4,0.2,0.5,0.8,0.7s1,0.6,1,1.1
				c0,0.6-0.4,1.1-1.3,1.1c-0.4,0-0.8-0.1-1-0.2V44.9z"/>
			<path class="st11" d="M62.5,44.3l-0.4,1.2h-0.5l1.3-3.8h0.6l1.3,3.8h-0.5l-0.4-1.2H62.5z M63.7,43.9l-0.4-1.1
				c-0.1-0.2-0.1-0.5-0.2-0.7l0,0c-0.1,0.2-0.1,0.5-0.2,0.7l-0.4,1.1H63.7z"/>
			<path class="st11" d="M66.5,41.7H67v1.8l0,0c0.1-0.1,0.2-0.3,0.3-0.4l1.2-1.4H69l-1.4,1.6l1.5,2.2h-0.6l-1.2-1.9L67,44v1.4h-0.5
				V41.7z"/>
			<path class="st11" d="M71.2,41.7v3.8h-0.5v-3.8H71.2z"/>
			<path class="st11" d="M73.2,41.7c0.2,0,0.5-0.1,0.9-0.1c0.5,0,0.8,0.1,1.1,0.3c0.2,0.2,0.3,0.5,0.3,0.8s-0.1,0.6-0.3,0.8
				C75,43.9,74.6,44,74.1,44c-0.1,0-0.3,0-0.4,0v1.5h-0.5V41.7z M73.7,43.6c0.1,0,0.2,0,0.4,0c0.6,0,0.9-0.3,0.9-0.8
				s-0.4-0.7-0.9-0.7c-0.2,0-0.4,0-0.5,0L73.7,43.6L73.7,43.6z"/>
		</g>
		<text transform="matrix(1 0 0 1 67.2931 140.0511)" class="st19 st20 st21">Triwulan I</text>
		<text transform="matrix(1 0 0 1 173.7286 140.3368)" class="st19 st20 st21">Triwulan II</text>
	</g>
</g>
<g>
	<circle class="st9" cx="203" cy="137.7" r="3.6"/>
	<g>
		<text transform="matrix(1 0 0 1 201.6642 139.2645)" class="st11 st20 st22">&gt;</text>
	</g>
</g>
<g>
	<circle class="st9" cx="61.3" cy="138.2" r="3.6"/>
	<text transform="matrix(-0.9999 -1.169265e-02 1.169265e-02 -0.9999 62.6747 136.6706)" class="st11 st20 st22">&gt;</text>
</g>
<g>
	
		<rect x="126.1" y="139.1" transform="matrix(9.238182e-02 -0.9957 0.9957 9.238182e-02 -28.8214 270.5609)" class="st23" width="15.8" height="24"/>
	<polyline class="st24" points="124.5,152.4 127.3,148.3 129.9,149.1 132.3,153.3 136.6,149.3 139.2,155 140.9,155 144.9,148.3 	"/>
	<g>
		<path class="st10" d="M146.7,149.4c0,0-0.8-0.8-2.7-2.1s-3-1.5-3.3-1.4c-0.3,0.2-2.8,2.5-2.9,3.3c-0.1,0.8-0.5,1.6-0.5,1.9
			s0.5,0.1,1.1-0.3c0.5-0.4,0.9-1.7,1.1-1.9c0.2-0.2,1.6-0.3,1.8-0.3s0.5,1.3,0.5,1.3s0.2,2.1,0.8,2.4c0.7,0.3,3.2,0.2,3.2,0.2
			L146.7,149.4z"/>
		<line class="st5" x1="145.9" y1="146.3" x2="135.5" y2="153.1"/>
		<path class="st10" d="M142.7,149.3c0,0-1.1,0.9-1.5,1.2s-2.9,0.8-3.2,0.9c-0.3,0.2-1.1,0.4-0.6,0.7s2,0.5,2.6,0.5s2.3,0.6,3.1,0.2
			c0.8-0.4,1.4-0.7,1.4-0.7"/>
		<polygon class="st25" points="149,149.1 146,148.8 145.4,153.2 149,154.1 		"/>
	</g>
	<g>
		<path class="st10" d="M152.1,118.9c0,0-0.3,2.3,0.3,3.3s0.8,1.8,0.8,1.8s-1.2,3.7-0.7,3.9c0.4,0.2,1.6,0.3,1.6,0.3
			s1.6,3.5,2.1,3.8s1,0.4,1,0.4l1,0.7l8.3-3.8l-1.4-3.9c0,0-0.4-1.8,0-4.1c0.4-2.3-3-5.2-5.2-5.8s-5.9,0.3-5.9,0.3L152.1,118.9z"/>
		<path class="st26" d="M155,113.8c0,0-4.4,2.5-4.3,3.9c0.1,1.4,1.1,2.3,1.1,2.3l2.2-1.1c0,0-1,1.7-0.4,1.9c0.5,0.2,1-0.2,1-0.2
			l0.6,2l1.4-1.2c0,0,2.3,5.3,3.9,5.5c1.6,0.2,4-0.1,4.9-0.6c0.8-0.5,2-5.5,2.4-7.4s-1.8-5.5-4.9-6.6s-7.4,1.2-7.4,1.2L155,113.8z"
			/>
		<path class="st10" d="M155.7,121.6c0,0,0.3,0.4,0.8,2.1s1.1,4.1,1.4,1.4C158.2,122.4,156.3,119.7,155.7,121.6z"/>
	</g>
	<g>
		<path class="st27" d="M148.9,234.6c0,0-1.7,2.2-2,2.3s-3.4,1.1-3.5,1.7c-0.1,0.6,0.3,1.3,0.3,1.3s2.6,0.6,5.2,0.6
			c2.5,0,5.3-0.4,5.3-0.4s2.4,0.2,3.6,0c1.2-0.2,1.3-1,1.3-1l-0.6-5.9l-7,0.2L148.9,234.6z"/>
		<path class="st27" d="M164.5,234.7l-2.5,3c0,0-1.2,0.3-1.1,1.4c0.1,1.1,1.3,1.2,2.3,1.2c1.1,0,7.8,0.2,8.9-0.3
			c1.1-0.5-1-5.8-1-5.8L164.5,234.7z"/>
		<path class="st28" d="M147.9,176.1c0,0-0.2,17.3-0.1,21.1c0.1,3.8,1.4,26.2,1.5,28.1c0.1,1.9,0.2,4.7,0.2,4.7s-0.7,1.2-0.7,1.7
			s0,1.8,0,1.8s3.5,3.5,5.3,3.5s4.9-1.1,4.9-1.1s0.8-5.4,1.1-6.4c0.2-1-0.8-16.3-0.8-16.6s-0.5-6.7-0.5-7.1c0-0.4,2.6,14.1,2.8,16.1
			s1.4,8.9,1.4,8.9s-0.7,0.5-0.6,1.5c0.1,1,0.2,3,0.2,3s1.2,1.2,3.3,1.5s4.1,0.3,4.6,0.3c0.4,0,1.4,0.1,1.7-0.6
			c0.3-0.7,0.1-6.4,0.1-7.4c0-1.1-0.4-3.9-0.4-4.7c0-0.7-1.9-20-1.8-24.5c0.1-4.4,0.1-15,0.5-16s1.9-6.9,1.9-7.9
			c0-1.1-5.3,2.4-11.9,1.7c-6.6-0.7-12.4-2.1-12.4-2.1v0.5H147.9z"/>
		<path class="st29" d="M164.5,181.9l-3.4,2.5c0,0-1.2,14.3-1.7,16.8s-0.7,3.3-0.7,3.3"/>
	</g>
	<path class="st10" d="M139.9,158.9c0,0-3.8-2-4.7-2.1c-0.8-0.1-3.6,0.3-3.6,0.3s-1.9-0.8-2.6-0.2c-0.7,0.6-0.3,0.7,0.2,1
		c0.5,0.2,3.2,0.7,3.2,0.7s-0.6,2-0.3,2.3s2.2,0.4,2.2,0.4s0.5,0.2,1.2,0.6c0.6,0.4,2.3,0.3,2.6,0.1s1-0.5,1-0.5L139.9,158.9z"/>
	<g>
		<path class="st15" d="M156.4,134.2l1.7-2.4c0,0,4.7-3,6.6-3.4c1.9-0.4,4.9,2.4,4.9,2.4s-1.7,0.3-5.6,1.5
			C160,133.5,156.4,134.2,156.4,134.2z"/>
		<path class="st15" d="M158.1,133.2c0,0-8.8,3.3-8.9,5.1c-0.1,1.8-1.5,24.1-1.5,24.1l-1.7,14.8c0,0,5.7,2.9,11.3,3.1
			c5.6,0.2,8.5,0.1,10.5-0.6s6.4-4.2,6.4-4.2s-2.3-13.1-2.3-14.7c0-1.6,3.6-13.1,4.3-16.5s1.1-7.6,1.1-9.2c0-1.6-8.6-4.1-8.6-4.1
			S163.1,131.2,158.1,133.2z"/>
		<g>
			<path class="st10" d="M170.5,146.4c-1.4,2.8-3.7,7.2-5.5,9.8"/>
			<path class="st10" d="M171.8,143.8c0,0-0.2,0.5-0.6,1.3"/>
			<path class="st5" d="M166,156.5c-0.9,1.3-1.8,2.5-2,2.7"/>
			<path class="st5" d="M168,153.8c0,0-0.7,0.9-1.4,2"/>
		</g>
		<g>
			<g>
				<line class="st15" x1="156.1" y1="152.7" x2="159.4" y2="145.3"/>
				<line class="st15" x1="155.3" y1="154.2" x2="159.1" y2="150"/>
				<path class="st15" d="M154.9,134.6c0,0-5.6,1.9-5.7,2.5c-0.1,0.6-1.7,22.1-1.7,22.1l-8-1c0,0-0.7,1.1-0.7,2.4s0,2.5,0,2.5
					s1.1,0.1,4.7,1.5c3.6,1.4,7.8,2.2,8.8,2.1c1-0.1,3-3.2,3-4.9s2.8-17.3,2.8-17.3"/>
			</g>
			<path class="st15" d="M147.8,162.8l-0.4-3.4c0,0-0.8,2.5-0.7,3.7"/>
		</g>
	</g>
</g>
<g>
	<g>
		<polygon class="st10" points="104.1,126.7 103.6,130.5 113.3,133.9 113.3,130.5 110.6,117.8 104.2,121.9 		"/>
		<path class="st10" d="M116.8,115.5c0,0,0.1,3.5,0.1,4.3c0,0.7-0.6,2.1-0.6,2.1s0.8,1.8,1,2.3s-1,1.3-1,1.3s-0.2,1.5-0.2,1.7
			c-0.1,0.2-1.1,1.3-2.3,0.8c-1.2-0.5-2.5-5-2.6-6.5c-0.2-1.5-0.1-4.7,1.6-5.8C114.4,114.6,116.8,115.5,116.8,115.5z"/>
		<path class="st26" d="M111.8,121.7c0,0,2.1-1.2,2.4-1.7c0.2-0.5-0.1-1.7-0.2-2.8c-0.2-1.1,2.2-1.2,2.9-0.9
			c0.7,0.3,1.6,0.9,1.6-1.2s-2.1-5.1-6.9-4.9s-9.4,1.5-10.5,6.6s1.6,9.4,2,10.1c0.3,0.7,2.2,2,4.7,0.3c2.5-1.6,1.9-3.8,1.9-3.8
			s0-1.4,0.4-1.4s0.5,0.4,0.5,3.5s-0.1,5.8,1.8,6.4c1.9,0.7,3.9-0.3,4-2.2c0.2-1.9-0.2-3.4-1-3.4s-1.3,1.2-2.1-0.7
			C112.5,123.6,111.8,121.7,111.8,121.7z"/>
		<path class="st10" d="M110.6,122.9c0,0,0.2-4.2-1.3-2.4s0.2,4.5,0.2,4.5l0.5-0.8"/>
	</g>
	<path class="st9" d="M102.6,128.6l-2.2,4c0,0,4.4-0.5,7.7,0.5c3.3,1.1,6.3,2.2,6.3,2.2l-1.2-4c0,0-3.6-1.7-6.6-2.2
		C103.6,128.6,102.6,128.6,102.6,128.6z"/>
	<g>
		<path class="st30" d="M117.8,234.3c0,0,1.7,2.2,2,2.3s3.4,1.1,3.5,1.7c0.1,0.6-0.3,1.3-0.3,1.3s-2.6,0.6-5.2,0.6s-5.3-0.4-5.3-0.4
			s-2.4,0.2-3.6,0s-1.3-1-1.3-1l0.6-5.9l7,0.2L117.8,234.3z"/>
		<path class="st30" d="M102.2,234.4l2.5,3c0,0,1.2,0.3,1.1,1.4c-0.1,1.1-1.3,1.2-2.3,1.2s-7.8,0.2-8.9-0.3s1-5.8,1-5.8L102.2,234.4
			z"/>
		<path class="st26" d="M95.5,176.4c0,0,0.6,6.7,0.8,7.4c0.3,0.8,1.4,22.3,0.3,25.3s-1.9,8.8-1.5,11.1s0.6,5.8,0.6,6.5
			c0,0.6-1.3,4.5-1.3,6c0,1.6,0.4,3.1,0.4,3.1s3.4,0.2,5.1-0.3s2.8-0.7,2.8-0.7l0.7,0.5c0,0,0-2.9,0-4.6c0-1.7,0.8-5,0.8-6
			c0-1.1,0.9-9.8,1.5-12s1.4-15.1,1.4-15.1s0.2,16.9,0,18.9c-0.2,1.9-0.6,2.8,0,5.1s0.4,10.4,0.4,10.4s-0.2,1.2,0,1.7
			s0.5,1.9,0.5,1.9s0.3,0.1,2.4,0.2c2.1,0.1,5.5,0.2,5.8,0.1c0.3-0.1,1.5-0.4,1.5-0.4s0.1-1,0-2.3c-0.1-1.4-1-4.4-1.1-7.7
			c-0.1-3.4,2.4-23.9,3.1-29.6c0.6-5.6,3-10.7,2.5-14.4c-0.4-3.7-2.2-7-2.3-7.7c-0.1-0.7-0.8-1.2-0.8-1.5s-24,0.8-24,0.8L95.5,176.4
			z"/>
		<polyline class="st31" points="102.9,183.2 107,186.8 107.3,197.6 		"/>
	</g>
	<g>
		<path class="st9" d="M102.9,130.9c0,0-9.1,5.6-9.1,6.8s-0.7,12.7,0.3,16.8s2.8,9.1,2.8,9.1l-3.5,14.5c0,0,2.3,1.6,8.8,3.3
			c6.5,1.6,12.2,1.4,12.9,1.2l-0.2-3.5l2.6-7.8c0,0,3.4-5.1,3.6-6.8c0.2-1.6-0.1-4.2-0.2-5.6c-0.2-1.4-1.3-6.9-1.7-8.3
			c-0.4-1.4-0.7-11.4-1.6-12.6c-1-1.2-3.3-2.9-4-3.3c-0.7-0.4-6.3-4.5-11-4"/>
		<g>
			<path class="st5" d="M105.2,158.2c0.3,0.3,0.7,0.6,1,0.9"/>
			<path class="st5" d="M98.7,149.9c0,0,3,4.6,5.9,7.7"/>
			<path class="st5" d="M106.3,161.7c0.7,0.2,1.4,0.4,2.1,0.4"/>
			<path class="st5" d="M101.2,158.4c0,0,1.3,1.3,3.2,2.4"/>
		</g>
	</g>
	<path class="st32" d="M117.5,171c0,0-1.5,3-4.5,5.6s-4,3.6-4,3.6s5.2,0.2,5.7,1.3c0.5,1.2,0.5,1.2,0.5,1.2L117.5,171z"/>
	<path class="st5" d="M118,177.1l2.6,4.8c0,0,1.7-2.4,1-4.4c-0.7-2.1-1-2.7-1-2.7L118,177.1z"/>
	<path class="st9" d="M109.7,146.2c0,0,1.6,19.2,3,22.7c1.5,3.5,5.1,9,5.1,9s2.1-0.6,2.7-1.4c0.7-0.8,0.8-2.6,0.8-2.6
		s-0.4-7.2-0.4-8.7c0-1.6-1.5-10.3-1.5-11.4s0.2-12.9-0.3-14.5c-0.6-1.6-5-2.9-5-2.9"/>
</g>
</svg>
