<?xml version="1.0" encoding="utf-8"?>
<!-- Generator: Adobe Illustrator 24.1.1, SVG Export Plug-In . SVG Version: 6.00 Build 0)  -->
<svg version="1.1" id="Layer_1" xmlns="http://www.w3.org/2000/svg" xmlns:xlink="http://www.w3.org/1999/xlink" x="0px" y="0px"
	 viewBox="0 0 263 250" style="enable-background:new 0 0 263 250;" xml:space="preserve">
<style type="text/css">
	.st0{fill:#9BD2A5;}
	.st1{fill:#E4E8F9;enable-background:new    ;}
	.st2{fill:none;stroke:#263238;stroke-width:0.25;stroke-miterlimit:10;}
	.st3{opacity:0.3;}
	.st4{fill:none;stroke:#000000;stroke-width:0.25;stroke-miterlimit:10;}
	.st5{fill:none;stroke:#FFFDFD;stroke-width:0.5;stroke-miterlimit:10;}
	.st6{fill:none;stroke:#FFFFFF;stroke-width:0.5;stroke-miterlimit:10;}
	.st7{fill:#FFD648;stroke:#000000;stroke-width:0.25;stroke-miterlimit:10;}
	.st8{opacity:0.3;enable-background:new    ;}
	.st9{fill:#FFFFFF;stroke:#263238;stroke-width:0.25;stroke-miterlimit:10;}
	.st10{fill:#D3DBF4;}
	.st11{fill:#0E31AE;stroke:#263238;stroke-width:0.25;stroke-linecap:round;stroke-linejoin:round;stroke-miterlimit:10;}
	.st12{fill:#FFFFFF;stroke:#263238;stroke-width:0.25;stroke-linecap:round;stroke-linejoin:round;stroke-miterlimit:10;}
	.st13{fill:none;stroke:#263238;stroke-width:0.25;stroke-linecap:round;stroke-linejoin:round;stroke-miterlimit:10;}
	.st14{opacity:5.000000e-02;}
	.st15{fill:#A3B5F7;}
	.st16{fill:none;stroke:#FFFFFF;stroke-width:0.25;stroke-linecap:round;stroke-linejoin:round;stroke-miterlimit:10;}
	.st17{opacity:5.000000e-02;enable-background:new    ;}
	.st18{fill:#FFD648;}
	.st19{fill:#263238;}
	.st20{fill:none;stroke:#000000;stroke-width:0.25;stroke-linecap:round;stroke-linejoin:round;stroke-miterlimit:10;}
	
		.st21{opacity:0.3;fill:none;stroke:#000000;stroke-width:0.25;stroke-linecap:round;stroke-linejoin:round;stroke-miterlimit:10;enable-background:new    ;}
	.st22{fill:#839CF4;}
	.st23{enable-background:new    ;}
	.st24{fill:#010101;}
	.st25{fill:none;stroke:#263238;stroke-width:0.25;stroke-linejoin:round;stroke-miterlimit:10;}
	.st26{fill:#EAEF35;}
	.st27{fill:#F6461D;}
	.st28{fill:none;stroke:#A3B5F7;stroke-width:2;stroke-linejoin:round;stroke-miterlimit:10;}
	.st29{fill:none;stroke:#F6461D;stroke-width:2;stroke-linejoin:round;stroke-miterlimit:10;}
	.st30{fill:none;stroke:#EAEF35;stroke-width:2;stroke-linejoin:round;stroke-miterlimit:10;}
	.st31{fill:none;stroke:#263238;stroke-width:2;stroke-linejoin:round;stroke-miterlimit:10;}
	.st32{fill:#FFFFFF;}
	.st33{fill:#263238;stroke:#263238;stroke-width:0.25;stroke-miterlimit:10;}
	.st34{fill:#D3DBF4;stroke:#01030A;stroke-width:0.25;stroke-miterlimit:10;}
	.st35{fill:#F6461D;stroke:#02050F;stroke-width:0.25;stroke-miterlimit:10;}
</style>
<g>
	<path class="st0" d="M239.3,129.9c-3.8-23.2-13.9-45-29.2-62.9c-9-10.4-20.6-21.7-34.6-30.6C140,13.9,96.3,20.3,78.1,42.9
		S26.9,166.4,29.3,193s74.3,50.7,121,44.8s86.6-35.9,90.5-68.9C242.5,156,241.3,142.1,239.3,129.9z"/>
	<path class="st1" d="M239.3,129.9c-3.8-23.2-13.9-45-29.2-62.9c-9-10.4-20.6-21.7-34.6-30.6C140,13.9,96.3,20.3,78.1,42.9
		S26.9,166.4,29.3,193s74.3,50.7,121,44.8s86.6-35.9,90.5-68.9C242.5,156,241.3,142.1,239.3,129.9z"/>
</g>
<g>
	<line class="st2" x1="209.9" y1="239.8" x2="247.3" y2="239.8"/>
	<line class="st2" x1="73.1" y1="239.8" x2="205.5" y2="239.8"/>
	<line class="st2" x1="30.8" y1="239.8" x2="67.7" y2="239.8"/>
</g>
<g class="st3">
	<g>
		<path class="st4" d="M237,72.2l3.2,0.7l0.8-3.4l-3-0.7c0-0.1,0-0.3,0-0.4c0-1-0.2-2-0.6-2.9l2.4-1.9l-2.2-2.7l-2.3,1.9
			c-0.9-0.7-1.9-1.2-3-1.5v-3.1h-3.4v3.1c-1.1,0.3-2.1,0.7-2.9,1.4l-2.6-2.1l-2.2,2.7l2.7,2.1c-0.4,0.9-0.6,1.9-0.7,2.9l-3.5,0.8
			l0.8,3.4l3.5-0.8c0.4,0.9,1,1.6,1.7,2.3l-1.6,3.4l3.1,1.5l1.6-3.2c0.6,0.2,1.2,0.2,1.9,0.2c0.4,0,0.7,0,1.1-0.1l1.6,3.2l3.1-1.5
			l-1.5-3C235.7,73.9,236.4,73.1,237,72.2z M225.3,68.5c0-2.9,2.3-5.2,5.2-5.2s5.2,2.3,5.2,5.2s-2.3,5.2-5.2,5.2
			C227.7,73.8,225.3,71.4,225.3,68.5z"/>
		<path class="st4" d="M237,94.5l3.2,0.7l0.8-3.4l-3-0.7c0-0.1,0-0.3,0-0.4c0-1-0.2-2-0.6-2.9l2.4-1.9l-2.2-2.7l-2.3,1.9
			c-0.9-0.7-1.9-1.2-3-1.5v-3.1h-3.4v3.1c-1.1,0.3-2.1,0.7-2.9,1.4l-2.6-2.1l-2.2,2.7l2.7,2.1c-0.4,0.9-0.6,1.9-0.7,2.9l-3.5,0.8
			l0.8,3.4L224,94c0.4,0.9,1,1.6,1.7,2.3l-1.6,3.4l3.1,1.5l1.6-3.2c0.6,0.2,1.2,0.2,1.9,0.2c0.4,0,0.7,0,1.1-0.1l1.6,3.2l3.1-1.5
			l-1.5-3C235.7,96.2,236.4,95.4,237,94.5z M225.3,90.8c0-2.9,2.3-5.2,5.2-5.2s5.2,2.3,5.2,5.2c0,2.9-2.3,5.2-5.2,5.2
			C227.7,96,225.3,93.7,225.3,90.8z"/>
		<path class="st5" d="M153.4,213.3l2.5,0.6l0.6-2.6l-2.4-0.5c0-0.1,0-0.2,0-0.3c0-0.8-0.2-1.6-0.5-2.3l1.9-1.5l-1.7-2.1l-1.8,1.5
			c-0.7-0.6-1.5-1-2.4-1.2v-2.5h-2.7v2.5c-0.8,0.2-1.6,0.6-2.3,1.1l-2.1-1.6l-1.7,2.1l2.1,1.7c-0.3,0.7-0.5,1.5-0.5,2.3l-2.5,0.4
			l0.6,2.6l2.8-0.6c0.3,0.7,0.8,1.3,1.4,1.8l-1.3,2.6l2.4,1.2l1.2-2.5c0.5,0.1,1,0.2,1.5,0.2c0.3,0,0.6,0,0.8-0.1l1.2,2.5l2.4-1.2
			l-1.1-2.4C152.5,214.6,153,214,153.4,213.3z M144.3,210.4c0-2.3,1.8-4.1,4.1-4.1s4.1,1.8,4.1,4.1s-1.8,4.1-4.1,4.1
			C146.2,214.5,144.3,212.6,144.3,210.4z"/>
		<path class="st4" d="M115.9,39l3.2,0.7l0.8-3.4l-3-0.7c0-0.1,0-0.3,0-0.4c0-1-0.2-2-0.6-2.9l2.4-1.9l-2.2-2.7l-2.3,1.9
			c-0.9-0.7-1.9-1.2-3-1.5V25h-3.4v3.1c-1.1,0.3-2.1,0.7-2.9,1.4l-2.6-2.1l-2.2,2.7l2.7,2.1c-0.4,0.9-0.6,1.9-0.7,2.9l-3.5,0.8
			l0.8,3.4l3.5-0.8c0.4,0.9,1,1.6,1.7,2.3l-1.6,3.4l3.1,1.5l1.6-3.2c0.6,0.2,1.2,0.2,1.9,0.2c0.4,0,0.7,0,1.1-0.1l1.6,3.2l3.1-1.5
			l-1.5-3C114.7,40.7,115.4,39.9,115.9,39z M104.3,35.3c0-2.9,2.3-5.2,5.2-5.2c2.9,0,5.2,2.3,5.2,5.2s-2.3,5.2-5.2,5.2
			C106.7,40.5,104.3,38.2,104.3,35.3z"/>
	</g>
	<g>
		<path class="st4" d="M57.5,97l2.8,0.6l0.6-2.8l-2.6-0.6c0-0.1,0-0.2,0-0.3c0-0.9-0.2-1.7-0.5-2.4l2.1-1.6l-1.8-2.3l-2,1.6
			c-0.7-0.6-1.6-1-2.5-1.3v-2.7h-2.9v2.7c-0.9,0.2-1.7,0.6-2.4,1.2l-2.2-1.8l-1.8,2.3l2.3,1.8c-0.3,0.8-0.5,1.6-0.6,2.5l-3,0.7
			l0.6,2.8l3-0.7c0.4,0.7,0.9,1.4,1.5,1.9l-1.4,2.8l2.6,1.3l1.3-2.7c0.5,0.1,1,0.2,1.6,0.2c0.3,0,0.6,0,0.9-0.1l1.3,2.7l2.6-1.3
			l-1.2-2.6C56.4,98.4,57,97.8,57.5,97z M47.6,93.9c0-2.4,2-4.4,4.4-4.4s4.4,2,4.4,4.4s-2,4.4-4.4,4.4S47.6,96.3,47.6,93.9z"/>
		<path class="st4" d="M44.1,85l3.8,0.9l0.9-3.9l-3.6-0.8c0-0.2,0-0.3,0-0.5c0-1.2-0.2-2.3-0.7-3.4l2.9-2.3l-2.5-3.2L42.2,74
			c-1-0.8-2.2-1.5-3.5-1.8v-3.7h-4v3.7c-1.3,0.3-2.4,0.9-3.4,1.7l-3.1-2.4l-2.5,3.2l3.1,2.5c-0.5,1-0.7,2.2-0.8,3.4l-4.1,0.8
			l0.9,3.9l4.1-0.9c0.5,1,1.2,1.9,2,2.7L29,91l3.6,1.8l1.8-3.8c0.7,0.2,1.4,0.3,2.2,0.3c0.4,0,0.8,0,1.2-0.1l1.8,3.8l3.6-1.8
			l-1.7-3.5C42.7,87,43.5,86,44.1,85z M30.5,80.6c0-3.4,2.7-6.1,6.1-6.1c3.4,0,6.1,2.7,6.1,6.1s-2.7,6.1-6.1,6.1
			C33.3,86.8,30.5,84,30.5,80.6z"/>
	</g>
	<g>
		<g>
			<polygon class="st6" points="98.8,178.4 99.9,181.6 103.3,181.6 100.5,183.6 101.6,186.9 98.8,184.9 96.1,186.9 97.1,183.6 
				94.4,181.6 97.8,181.6 			"/>
			<polygon class="st6" points="109.8,178.4 110.9,181.6 114.3,181.6 111.5,183.6 112.6,186.9 109.8,184.9 107.1,186.9 108.1,183.6 
				105.4,181.6 108.8,181.6 			"/>
			<polygon class="st6" points="120.8,178.4 121.9,181.6 125.3,181.6 122.5,183.6 123.6,186.9 120.8,184.9 118.1,186.9 119.1,183.6 
				116.4,181.6 119.8,181.6 			"/>
			<polygon class="st6" points="131.8,178.4 132.9,181.6 136.3,181.6 133.5,183.6 134.6,186.9 131.8,184.9 129.1,186.9 130.1,183.6 
				127.4,181.6 130.8,181.6 			"/>
			<polygon class="st6" points="142.8,178.4 143.9,181.6 147.3,181.6 144.6,183.6 145.6,186.9 142.8,184.9 140.1,186.9 141.1,183.6 
				138.4,181.6 141.8,181.6 			"/>
		</g>
		<path class="st6" d="M142.7,191H98.2c-4.1,0-7.5-3.4-7.5-7.5v-0.7c0-4.1,3.4-7.5,7.5-7.5h44.5c4.1,0,7.5,3.4,7.5,7.5v0.7
			C150.2,187.7,146.8,191,142.7,191z"/>
	</g>
	<g>
		<g>
			<polygon class="st4" points="29.3,126 29.9,128 32.1,128 30.3,129.3 31,131.3 29.3,130 27.5,131.3 28.2,129.3 26.5,128 28.6,128 
							"/>
			<polygon class="st4" points="36.2,126 36.9,128 39,128 37.3,129.3 37.9,131.3 36.2,130 34.5,131.3 35.1,129.3 33.4,128 35.5,128 
							"/>
			<polygon class="st4" points="43.1,126 43.8,128 45.9,128 44.2,129.3 44.9,131.3 43.1,130 41.4,131.3 42.1,129.3 40.3,128 
				42.5,128 			"/>
			<polygon class="st4" points="50.1,126 50.7,128 52.9,128 51.1,129.3 51.8,131.3 50.1,130 48.3,131.3 49,129.3 47.3,128 49.4,128 
							"/>
			<polygon class="st4" points="57,126 57.7,128 59.8,128 58.1,129.3 58.7,131.3 57,130 55.3,131.3 55.9,129.3 54.2,128 56.3,128 
							"/>
		</g>
		<path class="st4" d="M56.7,133.9H29.1c-2.7,0-5-2.2-5-5l0,0c0-2.7,2.2-5,5-5h27.6c2.7,0,5,2.2,5,5l0,0
			C61.6,131.7,59.4,133.9,56.7,133.9z"/>
	</g>
</g>
<g>
	<path class="st7" d="M9.6,192.1c1.1,0.2,3.4-0.5,3.6-0.6c0.4,1.3,0.8,2.6,1.4,3.9c0.3,0.7,0.7,1.5,1,2.2c-0.2-0.3-0.4-0.6-0.4-0.6
		c-0.9-1-3.1-2.4-4.5-1.8c-1,0.4-1.3,1.6-0.8,2.5s1.7,1.4,2.7,1.5s3-0.4,3.5-0.5c0.1,0.3,0.3,0.6,0.4,0.8c0.7,1.3,1.3,2.7,2,4
		c0.2,0.5,0.4,0.9,0.6,1.4c-0.2-0.3-0.3-0.5-0.4-0.5c-0.9-1-3.1-2.4-4.5-1.8c-1,0.4-1.3,1.6-0.8,2.5s1.7,1.4,2.7,1.5
		c0.9,0.1,2.8-0.3,3.4-0.5c0.2,0.5,0.4,1,0.5,1.4c0.1,0.3,0.2,0.6,0.3,1c0.1,0.3,0.2,0.7,0.3,1c0.2,0.6,0.3,1.3,0.4,1.9
		c0.1,0.4,0.2,0.8,0.3,1.3c-0.2-0.5-0.6-1.4-0.7-1.4c-0.7-1.1-2.7-2.9-4.1-2.5c-1,0.3-1.5,1.4-1.1,2.3c0.4,1,1.5,1.6,2.4,1.9
		c1,0.3,3.3,0,3.6,0c0.1,0.7,0.3,1.4,0.4,2c0.4,2.2,0.6,4,0.8,5.3c0,0.2,0,0.4,0.1,0.6h-4.4l1,19h8.8l1-19H25c0-0.1,0.1-0.1,0.1-0.2
		c0.6-1.2,1.4-2.9,2.2-5c0.3-0.7,0.5-1.4,0.8-2.1c0.3,0.1,2.5,0.5,3.6,0.3c1-0.2,2.1-0.8,2.5-1.7s0-2.1-1-2.4
		c-1.4-0.5-3.5,1.1-4.3,2.2c0,0.1-0.5,0.8-0.7,1.3c0.1-0.3,0.2-0.6,0.3-0.9c0.2-0.6,0.4-1.2,0.6-1.9c0.1-0.3,0.2-0.6,0.3-1
		c0.1-0.3,0.2-0.7,0.3-1c0.2-0.8,0.3-1.6,0.5-2.4c0.5,0.2,2.4,0.9,3.4,0.8c1-0.1,2.2-0.4,2.8-1.3c0.6-0.9,0.4-2-0.6-2.5
		c-1.3-0.7-3.7,0.6-4.6,1.5c-0.1,0.1-0.7,0.8-1,1.2c0.1-0.5,0.2-1,0.2-1.5c0.2-1.5,0.3-2.9,0.5-4.4c0-0.5,0.1-0.9,0.1-1.4
		c0.2,0.1,2.4,0.9,3.5,0.8c1-0.1,2.2-0.4,2.8-1.3c0.6-0.9,0.4-2-0.6-2.5c-1.3-0.7-3.7,0.6-4.6,1.5c-0.1,0.1-0.9,1.1-1.1,1.4
		c0.1-1,0.2-2,0.4-3c0.2-1.3,0.5-2.6,0.8-3.9c0.1,0,2.4,0.9,3.6,0.8c1-0.1,2.2-0.4,2.8-1.3c0.6-0.9,0.4-2-0.6-2.5
		c-1.3-0.7-3.7,0.6-4.6,1.5c-0.1,0.1-0.7,0.9-1,1.3c0,0,0,0-0.1,0c0.4-1.3,1-2.6,1.5-3.7c0.3-0.7,0.7-1.3,1.1-1.8
		c0.4,0.2,2.3,1.1,3.4,1.2c1,0,2.2-0.2,2.9-1c0.6-0.8,0.6-2-0.3-2.6c-1.2-0.8-3.7,0.2-4.7,1c-0.1,0-0.6,0.6-0.9,0.9
		c0.2-0.3,0.3-0.5,0.5-0.8c0.6-0.9,1.2-1.7,1.8-2.5c0.3-0.4,0.6-0.8,0.9-1.1c0.5,0,2.6-0.1,3.5-0.5s1.9-1.2,2.1-2.2s-0.4-2-1.5-2.1
		c-1.5-0.2-3.2,1.8-3.7,3.1c0,0.1-0.6,1.8-0.6,1.8l0,0c-0.3,0.3-0.6,0.7-0.9,1c-0.6,0.7-1.2,1.5-1.9,2.4c-0.6,0.9-1.3,1.9-1.9,3.1
		c-0.6,1.1-1.2,2.4-1.6,3.7l0,0c0-0.4,0-1.6,0-1.7c-0.2-1.3-1.3-3.7-2.7-4c-1-0.2-1.9,0.6-2,1.6s0.7,2.1,1.4,2.7
		c0.8,0.7,3.1,1.5,3.3,1.5c-0.4,1.3-0.7,2.6-1,4c-0.1,0.8-0.3,1.6-0.4,2.4c0-0.4,0-0.7,0-0.8c-0.2-1.3-1.3-3.7-2.7-4
		c-1-0.2-1.9,0.6-2,1.6s0.7,2.1,1.4,2.7c0.7,0.7,2.7,1.3,3.2,1.5c0,0.3-0.1,0.6-0.1,0.9c-0.2,1.5-0.3,3-0.6,4.4
		c-0.1,0.5-0.2,1-0.3,1.5c0-0.3,0-0.6,0-0.7c-0.2-1.3-1.3-3.7-2.7-4c-1-0.2-1.9,0.6-2,1.6s0.7,2.1,1.4,2.7c0.7,0.6,2.5,1.2,3.1,1.4
		c-0.1,0.5-0.2,1-0.3,1.5c-0.1,0.3-0.2,0.7-0.3,1s-0.2,0.6-0.3,1c-0.2,0.6-0.4,1.2-0.7,1.8c-0.2,0.4-0.3,0.8-0.5,1.2
		c0.1-0.5,0.2-1.5,0.2-1.6c0-0.9-0.3-2.3-0.9-3.3c0-0.1,0-0.3,0-0.4c-0.2-1-1.1-1.8-2.1-1.5c-1.4,0.4-2.3,2.9-2.4,4.2
		c0,0.1,0,0.9,0.1,1.5c-0.1-0.3-0.1-0.6-0.2-0.9c-0.1-0.6-0.3-1.3-0.5-1.9c-0.1-0.3-0.2-0.6-0.3-1c-0.1-0.3-0.2-0.7-0.3-1
		c-0.3-0.8-0.6-1.5-0.9-2.3c0.6-0.1,2.5-0.6,3.3-1.2c0.8-0.6,1.6-1.6,1.6-2.6s-0.8-1.9-1.9-1.8c-1.5,0.2-2.7,2.5-3,3.8
		c0,0.1-0.1,1-0.1,1.5c-0.2-0.5-0.4-0.9-0.6-1.4c-0.7-1.3-1.4-2.6-2.1-3.9c-0.2-0.4-0.4-0.8-0.6-1.2c0.2,0,2.5-0.6,3.4-1.3
		c0.8-0.6,1.6-1.6,1.6-2.6s-0.8-1.9-1.9-1.8c-1.5,0.2-2.7,2.5-3,3.8c0,0.1-0.1,1.5-0.2,1.8c-0.5-0.9-0.9-1.8-1.3-2.7
		c-0.6-1.2-1.1-2.5-1.4-3.7c0.1,0,2.5-0.6,3.4-1.3c0.8-0.6,1.6-1.6,1.6-2.6s-0.8-1.9-1.9-1.8c-1.5,0.2-2.7,2.5-3,3.8
		c0,0.1-0.1,1.1-0.1,1.6c0,0,0,0-0.1,0c-0.4-1.3-0.6-2.7-0.7-3.9c-0.1-0.7-0.1-1.4-0.1-2.1c0.5-0.1,2.6-0.3,3.5-0.9
		c0.8-0.5,1.8-1.4,1.9-2.4c0.1-1-0.6-2-1.7-2c-1.5,0-3,2.2-3.4,3.4c0,0.1-0.2,0.8-0.3,1.3c0-0.3,0-0.6,0-0.9c0-1.1,0.1-2.1,0.1-3
		c0-0.5,0.1-1,0.1-1.4c0.4-0.3,2.1-1.5,2.7-2.4c0.5-0.8,0.9-2,0.5-3c-0.4-0.9-1.5-1.5-2.4-1c-1.3,0.7-1.7,3.3-1.4,4.6
		c0,0.1,0.5,1.8,0.5,1.8l0,0c-0.1,0.4-0.1,0.9-0.2,1.3c-0.1,0.9-0.2,1.9-0.2,3s0,2.3,0.1,3.6s0.3,2.6,0.7,4l0,0
		c-0.2-0.4-0.9-1.4-1-1.4c-0.9-1-3.1-2.4-4.5-1.8c-1,0.4-1.3,1.6-0.8,2.5C7.4,191.5,8.6,191.9,9.6,192.1z M24.2,211.4
		c0.8,0.8,2.7,1.8,2.9,1.9c-0.3,0.6-0.5,1.3-0.8,1.9c-0.9,2-1.7,3.7-2.3,4.9c-0.1,0.2-0.2,0.4-0.3,0.6h-0.1c0-0.2-0.1-0.5-0.1-0.7
		c-0.2-1.3-0.5-3.1-0.9-5.3c-0.1-0.7-0.3-1.4-0.5-2.2C22.3,212.2,23.3,211.8,24.2,211.4z"/>
</g>
<rect x="50.5" y="41" class="st8" width="171.7" height="126.9"/>
<g>
	<rect x="54.8" y="36.1" class="st9" width="173.6" height="127.5"/>
	<rect x="54.8" y="36.1" class="st10" width="28.6" height="127.5"/>
	<g>
		<rect x="54.8" y="36.1" class="st11" width="173.6" height="10.5"/>
		<path class="st12" d="M62.8,60.9c0-1.6-1.3-2.9-2.9-2.9S57,59.3,57,60.9s1.3,2.9,2.9,2.9S62.8,62.5,62.8,60.9z"/>
		<line class="st13" x1="65.2" y1="61.2" x2="79.3" y2="61.2"/>
		<path class="st12" d="M62.8,74.1c0-1.6-1.3-2.9-2.9-2.9S57,72.5,57,74.1s1.3,2.9,2.9,2.9S62.8,75.7,62.8,74.1z"/>
		<line class="st13" x1="65.2" y1="74.4" x2="79.3" y2="74.4"/>
		<path class="st12" d="M62.8,87.3c0-1.6-1.3-2.9-2.9-2.9S57,85.7,57,87.3c0,1.6,1.3,2.9,2.9,2.9S62.8,88.9,62.8,87.3z"/>
		<line class="st13" x1="65.2" y1="87.6" x2="79.3" y2="87.6"/>
		<path class="st12" d="M62.8,100.5c0-1.6-1.3-2.9-2.9-2.9s-2.9,1.3-2.9,2.9s1.3,2.9,2.9,2.9S62.8,102.1,62.8,100.5z"/>
		<line class="st13" x1="65.2" y1="100.8" x2="79.3" y2="100.8"/>
		<path class="st12" d="M62.8,113.7c0-1.6-1.3-2.9-2.9-2.9s-2.9,1.3-2.9,2.9s1.3,2.9,2.9,2.9S62.8,115.3,62.8,113.7z"/>
		<line class="st13" x1="65.2" y1="114" x2="79.3" y2="114"/>
		<g class="st14">
			<rect x="86.9" y="123.2" width="113.6" height="4.1"/>
			<rect x="86.9" y="130.4" width="113.6" height="4.1"/>
			<rect x="86.9" y="137.6" width="113.6" height="4.1"/>
			<rect x="86.9" y="144.7" width="113.6" height="4.1"/>
		</g>
		<g>
			<g>
				<g>
					<rect x="134.2" y="133.6" class="st15" width="6.5" height="19"/>
				</g>
			</g>
			<g>
				<g>
					<rect x="127" y="125.8" class="st11" width="6.5" height="26.9"/>
				</g>
			</g>
			<g>
				<g>
					<rect x="119.8" y="135.4" class="st15" width="6.5" height="17.2"/>
				</g>
			</g>
			<g>
				<g>
					<rect x="112.5" y="145.7" class="st11" width="6.5" height="6.9"/>
				</g>
			</g>
			<g>
				<g>
					<rect x="105.3" y="132.1" class="st15" width="6.5" height="20.5"/>
				</g>
			</g>
			<g>
				<g>
					<rect x="98" y="136.3" class="st11" width="6.5" height="16.3"/>
				</g>
			</g>
			<g>
				<g>
					<rect x="90.8" y="146.6" class="st15" width="6.5" height="6"/>
				</g>
			</g>
		</g>
		<g>
			<g>
				<g>
					<rect x="149.4" y="133.6" class="st15" width="6.5" height="19"/>
				</g>
			</g>
			<g>
				<g>
					<rect x="156.7" y="125.8" class="st11" width="6.5" height="26.9"/>
				</g>
			</g>
			<g>
				<g>
					<rect x="163.9" y="135.4" class="st15" width="6.5" height="17.2"/>
				</g>
			</g>
			<g>
				<g>
					<rect x="171.1" y="145.7" class="st11" width="6.5" height="6.9"/>
				</g>
			</g>
			<g>
				<g>
					<rect x="178.4" y="132.1" class="st15" width="6.5" height="20.5"/>
				</g>
			</g>
			<g>
				<g>
					<rect x="185.6" y="136.3" class="st11" width="6.5" height="16.3"/>
				</g>
			</g>
			<g>
				<g>
					<rect x="192.8" y="146.6" class="st15" width="6.5" height="6"/>
				</g>
			</g>
		</g>
		<g>
			<line class="st13" x1="58.6" y1="132.5" x2="79.7" y2="132.5"/>
			<line class="st13" x1="58.6" y1="136.3" x2="79.7" y2="136.3"/>
			<line class="st13" x1="58.6" y1="140.1" x2="79.7" y2="140.1"/>
			<line class="st13" x1="58.6" y1="143.8" x2="79.7" y2="143.8"/>
			<line class="st13" x1="58.6" y1="147.6" x2="79.7" y2="147.6"/>
			<line class="st13" x1="58.6" y1="151.4" x2="79.7" y2="151.4"/>
		</g>
		<g>
			<line class="st16" x1="62.4" y1="39.5" x2="71.7" y2="39.5"/>
			<line class="st16" x1="62.4" y1="42" x2="71.7" y2="42"/>
			<line class="st16" x1="62.4" y1="44.5" x2="71.7" y2="44.5"/>
		</g>
		<g>
			<rect x="146.6" y="95.6" class="st17" width="54.2" height="21.9"/>
			<polygon class="st18" points="200.8,113.8 200.8,117.6 146.6,117.6 146.6,105.4 155.3,102.9 167.5,102.9 172.4,109.2 181,109.2 
				187.8,113.8 			"/>
			<line class="st13" x1="184.6" y1="99.7" x2="197.6" y2="99.7"/>
			<g>
				<path class="st19" d="M187.9,108.2v1.1h-0.6v-1.1h-1.8v-0.6l1.7-3.8h0.7v3.8h0.4v0.6H187.9z M186.1,107.7h1.2V105L186.1,107.7z"
					/>
				<path class="st19" d="M189.4,106.1c0.2-0.3,0.4-0.5,0.8-0.5c0.7,0,1,0.5,1,1.3v1.1c0,0.8-0.4,1.4-1.2,1.4s-1.2-0.6-1.2-1.4v-0.4
					h0.6v0.4c0,0.5,0.2,0.8,0.6,0.8s0.6-0.3,0.6-0.8v-1c0-0.5-0.2-0.8-0.6-0.8c-0.3,0-0.6,0.2-0.6,0.6v0.1h-0.6l0.1-3.1h2.2v0.6
					h-1.6L189.4,106.1z"/>
				<path class="st19" d="M193.4,104.7v1.7c0,0.5-0.3,0.9-0.8,0.9s-0.8-0.4-0.8-0.9v-1.7c0-0.5,0.3-0.9,0.8-0.9
					C193.2,103.8,193.4,104.2,193.4,104.7z M192.2,104.7v1.8c0,0.3,0.1,0.5,0.4,0.5c0.3,0,0.4-0.2,0.4-0.5v-1.8
					c0-0.3-0.1-0.5-0.4-0.5C192.4,104.2,192.2,104.4,192.2,104.7z M195.2,103.8l-2.2,5.5h-0.4l2.2-5.5H195.2z M196.1,106.7v1.7
					c0,0.5-0.2,0.9-0.8,0.9c-0.5,0-0.8-0.4-0.8-0.9v-1.7c0-0.5,0.3-0.9,0.8-0.9C195.9,105.9,196.1,106.2,196.1,106.7z M195,106.7
					v1.8c0,0.3,0.1,0.5,0.4,0.5c0.3,0,0.4-0.2,0.4-0.5v-1.8c0-0.3-0.1-0.5-0.4-0.5S195,106.4,195,106.7z"/>
			</g>
		</g>
		<g>
			<g>
				<g>
					<g class="st3">
						<line class="st20" x1="86.5" y1="86.3" x2="86.5" y2="84.4"/>
						<g>
							<line class="st21" x1="86" y1="79.7" x2="223.4" y2="79.7"/>
							<line class="st21" x1="86" y1="84.2" x2="223.4" y2="84.2"/>
							<line class="st21" x1="86" y1="75.5" x2="223.4" y2="75.5"/>
							<line class="st21" x1="86" y1="71.3" x2="223.4" y2="71.3"/>
							<line class="st21" x1="86" y1="67" x2="223.4" y2="67"/>
							<line class="st21" x1="86" y1="62.8" x2="223.4" y2="62.8"/>
							<line class="st21" x1="86" y1="58.5" x2="223.4" y2="58.5"/>
							<line class="st21" x1="97.8" y1="86.3" x2="97.8" y2="84.4"/>
						</g>
						<line class="st20" x1="109.1" y1="86.3" x2="109.1" y2="84.4"/>
						<line class="st20" x1="120.5" y1="86.3" x2="120.5" y2="84.4"/>
						<line class="st20" x1="131.8" y1="86.3" x2="131.8" y2="84.4"/>
						<line class="st20" x1="143.1" y1="86.3" x2="143.1" y2="84.4"/>
						<line class="st20" x1="154.4" y1="86.3" x2="154.4" y2="84.4"/>
						<line class="st20" x1="165.7" y1="86.3" x2="165.7" y2="84.4"/>
						<line class="st20" x1="177.1" y1="86.3" x2="177.1" y2="84.4"/>
						<line class="st20" x1="188.4" y1="86.3" x2="188.4" y2="84.4"/>
						<line class="st20" x1="199.7" y1="86.3" x2="199.7" y2="84.4"/>
						<line class="st20" x1="211" y1="86.3" x2="211" y2="84.4"/>
						<line class="st20" x1="222.3" y1="86.3" x2="222.3" y2="84.4"/>
					</g>
					<polygon class="st0" points="221.7,83.5 221.7,59.3 221.7,57.2 214.5,58.6 205.4,61.5 194.3,62.8 182.8,66.2 171.9,64.8 
						159.5,61.3 147.6,66.7 138.3,63.2 125.8,64.8 115.4,60.5 103.4,77.3 92.1,63.9 86.5,69.4 86.5,83.5 					"/>
					<polygon class="st15" points="221.7,83.5 221.7,59.3 221.7,57.2 214.5,58.6 205.4,61.5 194.3,62.8 182.8,66.2 171.9,64.8 
						159.5,61.3 147.6,66.7 138.3,63.2 125.8,64.8 115.4,60.5 103.4,77.3 92.1,63.9 86.5,69.4 86.5,83.5 					"/>
					<polygon class="st22" points="221.7,83.5 221.7,75.4 221.8,74.4 214.5,71.4 205.4,69.4 194.3,70.6 182.8,72.7 171.9,71.1 
						159.5,69.9 147.6,70.1 138.3,72.8 125.8,75 115.4,72.8 103.4,73.9 92.1,75.1 86.6,75.8 86.4,75.8 86.4,83.5 					"/>
					<g>
						<circle class="st19" cx="92.1" cy="75.1" r="0.7"/>
						<path class="st19" d="M104.1,73.9c0-0.4-0.3-0.7-0.7-0.7c-0.4,0-0.7,0.3-0.7,0.7c0,0.4,0.3,0.7,0.7,0.7
							C103.8,74.6,104.1,74.3,104.1,73.9z"/>
						<circle class="st19" cx="115.4" cy="72.8" r="0.7"/>
						<circle class="st19" cx="125.8" cy="75" r="0.7"/>
						<circle class="st19" cx="138.3" cy="72.8" r="0.7"/>
						<circle class="st19" cx="147.6" cy="70.1" r="0.7"/>
						<circle class="st19" cx="159.5" cy="69.9" r="0.7"/>
						<path class="st19" d="M172.6,71.1c0-0.4-0.3-0.7-0.7-0.7s-0.7,0.3-0.7,0.7s0.3,0.7,0.7,0.7C172.3,71.8,172.6,71.5,172.6,71.1z
							"/>
						<circle class="st19" cx="182.8" cy="72.7" r="0.7"/>
						<circle class="st19" cx="194.3" cy="70.6" r="0.7"/>
						<circle class="st19" cx="205.4" cy="69.4" r="0.7"/>
						<path class="st19" d="M215.2,71.4c0-0.4-0.3-0.7-0.7-0.7s-0.7,0.3-0.7,0.7s0.3,0.7,0.7,0.7C214.9,72.2,215.2,71.8,215.2,71.4z
							"/>
					</g>
					<g class="st3">
						<circle cx="92.1" cy="63.9" r="0.7"/>
						<circle cx="103.4" cy="77.3" r="0.7"/>
						<path d="M116.1,60.5c0-0.4-0.3-0.7-0.7-0.7c-0.4,0-0.7,0.3-0.7,0.7s0.3,0.7,0.7,0.7C115.8,61.2,116.1,60.9,116.1,60.5z"/>
						<circle cx="125.8" cy="64.8" r="0.7"/>
						<path d="M139,63.2c0-0.4-0.3-0.7-0.7-0.7s-0.7,0.3-0.7,0.7s0.3,0.7,0.7,0.7C138.7,64,139,63.6,139,63.2z"/>
						<circle cx="147.6" cy="66.5" r="0.7"/>
						<circle cx="159.5" cy="61.3" r="0.7"/>
						<circle cx="171.9" cy="64.8" r="0.7"/>
						<circle cx="182.8" cy="66.2" r="0.7"/>
						<circle cx="194.3" cy="62.8" r="0.7"/>
						<circle cx="205.4" cy="61.5" r="0.7"/>
						<circle cx="214.5" cy="58.6" r="0.7"/>
					</g>
				</g>
				<g>
					<path class="st19" d="M212.8,55.4v1.1h-0.6v-1.1h-1.8v-0.6l1.7-3.8h0.7v3.8h0.4v0.6H212.8z M211,54.8h1.2v-2.7L211,54.8z"/>
					<path class="st19" d="M214.4,53.2c0.2-0.3,0.4-0.5,0.8-0.5c0.7,0,1,0.5,1,1.3v1.1c0,0.8-0.4,1.4-1.2,1.4s-1.2-0.6-1.2-1.4v-0.4
						h0.6v0.4c0,0.5,0.2,0.8,0.6,0.8s0.6-0.3,0.6-0.8V54c0-0.5-0.2-0.8-0.6-0.8c-0.3,0-0.6,0.2-0.6,0.6v0.1h-0.6l0.1-3.1h2.2v0.6
						h-1.6L214.4,53.2z"/>
					<path class="st19" d="M218.4,51.9v1.7c0,0.5-0.3,0.9-0.8,0.9s-0.8-0.4-0.8-0.9v-1.7c0-0.5,0.3-0.9,0.8-0.9
						C218.1,51,218.4,51.3,218.4,51.9z M217.2,51.8v1.8c0,0.3,0.1,0.5,0.4,0.5c0.3,0,0.4-0.2,0.4-0.5v-1.8c0-0.3-0.1-0.5-0.4-0.5
						S217.2,51.5,217.2,51.8z M220.2,51l-2.2,5.5h-0.4l2.2-5.5H220.2z M221.1,53.9v1.7c0,0.5-0.2,0.9-0.8,0.9
						c-0.5,0-0.8-0.4-0.8-0.9v-1.7c0-0.5,0.3-0.9,0.8-0.9S221.1,53.4,221.1,53.9z M219.9,53.9v1.8c0,0.3,0.1,0.5,0.4,0.5
						c0.3,0,0.4-0.2,0.4-0.5v-1.8c0-0.3-0.1-0.5-0.4-0.5S219.9,53.6,219.9,53.9z"/>
				</g>
				<g>
					<path class="st19" d="M213.1,76.3c0,1.7-1.9,2.3-1.9,3.5v0.1h1.8v0.6h-2.4V80c0-1.8,1.9-2.1,1.9-3.7c0-0.6-0.2-0.9-0.6-0.9
						c-0.4,0-0.6,0.3-0.6,0.8v0.5h-0.6v-0.4c0-0.8,0.4-1.4,1.2-1.4S213.1,75.5,213.1,76.3z"/>
					<path class="st19" d="M213.6,76.3c0-0.8,0.4-1.4,1.3-1.4c0.9,0,1.3,0.5,1.3,1.4v2.8c0,0.8-0.4,1.4-1.3,1.4
						c-0.8,0-1.3-0.6-1.3-1.4V76.3z M214.2,79.2c0,0.5,0.2,0.8,0.7,0.8c0.4,0,0.7-0.3,0.7-0.8v-2.9c0-0.5-0.2-0.8-0.7-0.8
						c-0.4,0-0.7,0.3-0.7,0.8V79.2z"/>
					<path class="st19" d="M218.3,75.8v1.7c0,0.5-0.3,0.9-0.8,0.9s-0.8-0.4-0.8-0.9v-1.7c0-0.5,0.3-0.9,0.8-0.9
						C218,75,218.3,75.3,218.3,75.8z M217.1,75.8v1.8c0,0.3,0.1,0.5,0.4,0.5c0.3,0,0.4-0.2,0.4-0.5v-1.8c0-0.3-0.1-0.5-0.4-0.5
						C217.2,75.3,217.1,75.5,217.1,75.8z M220.1,75l-2.2,5.5h-0.4l2.2-5.5H220.1z M221,77.9v1.7c0,0.5-0.2,0.9-0.8,0.9
						c-0.5,0-0.8-0.4-0.8-0.9v-1.7c0-0.5,0.3-0.9,0.8-0.9S221,77.4,221,77.9z M219.8,77.9v1.8c0,0.3,0.1,0.5,0.4,0.5
						c0.3,0,0.4-0.2,0.4-0.5v-1.8c0-0.3-0.1-0.5-0.4-0.5C219.9,77.4,219.8,77.6,219.8,77.9z"/>
				</g>
			</g>
			<g class="st23">
				<path class="st24" d="M88.1,52.7c0,0.8-0.5,1.1-1.1,1.1s-1-0.4-1-1.1c0-0.7,0.5-1.1,1.1-1.1C87.6,51.6,88.1,52,88.1,52.7z
					 M86.4,52.7c0,0.5,0.3,0.8,0.7,0.8c0.4,0,0.7-0.3,0.7-0.8c0-0.4-0.2-0.8-0.6-0.8C86.6,51.9,86.4,52.3,86.4,52.7z"/>
				<path class="st24" d="M88.7,51.6l0.4,1.2c0.1,0.2,0.1,0.4,0.2,0.5l0,0c0-0.2,0.1-0.4,0.2-0.5l0.4-1.2h0.4l-0.8,2.1h-0.4
					l-0.8-2.1H88.7z"/>
				<path class="st24" d="M90.8,52.8c0,0.5,0.3,0.7,0.7,0.7c0.3,0,0.4,0,0.6-0.1l0.1,0.3c-0.1,0.1-0.4,0.1-0.7,0.1
					c-0.7,0-1.1-0.4-1.1-1.1c0-0.6,0.4-1.2,1-1.2c0.7,0,0.9,0.6,0.9,1c0,0.1,0,0.1,0,0.2L90.8,52.8L90.8,52.8z M92,52.5
					c0-0.2-0.1-0.6-0.5-0.6s-0.6,0.4-0.6,0.6H92z"/>
				<path class="st24" d="M92.8,52.3c0-0.3,0-0.5,0-0.7h0.3V52l0,0c0.1-0.3,0.3-0.5,0.6-0.5h0.1V52h-0.1c-0.3,0-0.5,0.2-0.5,0.5
					c0,0.1,0,0.1,0,0.2v1.1h-0.4V52.3z"/>
				<path class="st24" d="M94.5,51.6l0.4,1.2c0.1,0.2,0.1,0.4,0.2,0.5l0,0c0.1-0.2,0.1-0.4,0.2-0.5l0.4-1.2h0.4l-0.8,2.1h-0.4
					l-0.8-2.1H94.5z"/>
				<path class="st24" d="M96.9,51c0,0.1-0.1,0.2-0.2,0.2s-0.2-0.1-0.2-0.2c0-0.1,0.1-0.2,0.2-0.2C96.9,50.8,96.9,50.9,96.9,51z
					 M96.5,53.8v-2.1h0.4v2.1H96.5z"/>
				<path class="st24" d="M97.8,52.8c0,0.5,0.3,0.7,0.7,0.7c0.3,0,0.4,0,0.6-0.1l0.1,0.3c-0.1,0.1-0.4,0.1-0.7,0.1
					c-0.7,0-1.1-0.4-1.1-1.1c0-0.6,0.4-1.2,1-1.2c0.7,0,0.9,0.6,0.9,1c0,0.1,0,0.1,0,0.2L97.8,52.8L97.8,52.8z M98.9,52.5
					c0-0.2-0.1-0.6-0.5-0.6s-0.6,0.4-0.6,0.6H98.9z"/>
				<path class="st24" d="M99.9,51.6l0.3,1.1c0.1,0.2,0.1,0.5,0.2,0.7l0,0c0-0.2,0.1-0.4,0.2-0.7l0.3-1.1h0.3l0.3,1.1
					c0.1,0.3,0.1,0.5,0.2,0.7l0,0c0-0.2,0.1-0.4,0.2-0.7l0.3-1.1h0.4l-0.7,2.1h-0.4l-0.3-1c-0.1-0.2-0.1-0.5-0.2-0.7l0,0
					c-0.1,0.3-0.1,0.5-0.2,0.7l-0.3,1h-0.4l-0.6-2.1H99.9z"/>
			</g>
		</g>
		<g>
			<rect x="121.3" y="98.8" class="st22" width="3.6" height="3.6"/>
			<line class="st25" x1="127.1" y1="100.6" x2="141.6" y2="100.6"/>
			<rect x="121.3" y="105.2" class="st26" width="3.6" height="3.6"/>
			<line class="st25" x1="127.1" y1="107" x2="141.6" y2="107"/>
			<rect x="121.3" y="111.7" class="st27" width="3.6" height="3.6"/>
			<line class="st25" x1="127.1" y1="113.5" x2="141.6" y2="113.5"/>
			<g>
				<path class="st28" d="M106.4,117.6c4.6-1.9,7.8-6.4,7.8-11.7c0-3-1.1-5.8-2.8-8"/>
				<path class="st29" d="M90.8,112.9c2.3,3.5,6.2,5.8,10.6,5.8c1.8,0,3.4-0.4,4.9-1"/>
				<path class="st30" d="M111.3,97.9c-2.3-2.9-5.9-4.7-9.9-4.7c-7,0-12.7,5.7-12.7,12.7c0,2.6,0.8,4.9,2.1,6.9"/>
				<line class="st31" x1="96.1" y1="104.5" x2="107.2" y2="104.5"/>
				<line class="st31" x1="96.1" y1="107.8" x2="107.2" y2="107.8"/>
			</g>
		</g>
		<g>
			<g>
				<line class="st13" x1="207.3" y1="103.4" x2="221.9" y2="103.4"/>
				<line class="st13" x1="207.3" y1="105.1" x2="221.9" y2="105.1"/>
			</g>
			<path class="st15" d="M220.7,95.6c-1-1.4-2.3-2.3-3.9-2.9c-1.7-0.5-3.2-0.5-4.9,0s-2.9,1.5-3.9,2.9s-1.5,2.9-1.5,4.6h7.9h7.9
				C222.2,98.5,221.7,97,220.7,95.6z"/>
			<g>
				<g>
					<g>
						<path class="st16" d="M214.3,100.2l6.4-4.6c1,1.4,1.5,2.9,1.5,4.6H214.3z"/>
					</g>
				</g>
				<g>
					<g>
						<path class="st16" d="M214.3,100.2l2.4-7.5c1.7,0.5,2.9,1.5,3.9,2.9L214.3,100.2z"/>
					</g>
				</g>
				<g>
					<g>
						<path class="st16" d="M214.3,100.2l-2.4-7.5c1.7-0.5,3.2-0.5,4.9,0L214.3,100.2z"/>
					</g>
				</g>
				<g>
					<g>
						<path class="st16" d="M214.3,100.2l-6.4-4.6c1-1.4,2.3-2.3,3.9-2.9L214.3,100.2z"/>
					</g>
				</g>
				<g>
					<g>
						<path class="st16" d="M214.3,100.2h-7.9c0-1.7,0.5-3.2,1.5-4.6L214.3,100.2z"/>
					</g>
				</g>
			</g>
			<g>
				<path class="st19" d="M215.3,100.2c0-0.5-0.4-1-1-1c-0.5,0-1,0.4-1,1s0.4,1,1,1C214.9,101.2,215.3,100.8,215.3,100.2z"/>
				<line class="st13" x1="214.3" y1="100.2" x2="217.6" y2="95.5"/>
			</g>
		</g>
		<g>
			<g>
				<line class="st13" x1="207.3" y1="119.2" x2="221.9" y2="119.2"/>
				<line class="st13" x1="207.3" y1="120.9" x2="221.9" y2="120.9"/>
			</g>
			<path class="st15" d="M220.7,111.4c-1-1.4-2.3-2.3-3.9-2.9c-1.7-0.5-3.2-0.5-4.9,0s-2.9,1.5-3.9,2.9s-1.5,2.9-1.5,4.6h7.9h7.9
				C222.2,114.2,221.7,112.8,220.7,111.4z"/>
			<g>
				<g>
					<g>
						<path class="st16" d="M214.3,116l6.4-4.6c1,1.4,1.5,2.9,1.5,4.6H214.3z"/>
					</g>
				</g>
				<g>
					<g>
						<path class="st16" d="M214.3,116l2.4-7.5c1.7,0.5,2.9,1.5,3.9,2.9L214.3,116z"/>
					</g>
				</g>
				<g>
					<g>
						<path class="st16" d="M214.3,116l-2.4-7.5c1.7-0.5,3.2-0.5,4.9,0L214.3,116z"/>
					</g>
				</g>
				<g>
					<g>
						<path class="st16" d="M214.3,116l-6.4-4.6c1-1.4,2.3-2.3,3.9-2.9L214.3,116z"/>
					</g>
				</g>
				<g>
					<g>
						<path class="st16" d="M214.3,116h-7.9c0-1.7,0.5-3.2,1.5-4.6L214.3,116z"/>
					</g>
				</g>
			</g>
			<g>
				<path class="st19" d="M215.3,116c0-0.5-0.4-1-1-1c-0.5,0-1,0.4-1,1s0.4,1,1,1C214.9,116.9,215.3,116.5,215.3,116z"/>
				<line class="st13" x1="214.3" y1="116" x2="211.2" y2="111.5"/>
			</g>
		</g>
		<g>
			<g>
				<line class="st13" x1="221.4" y1="134.9" x2="206.8" y2="134.9"/>
				<line class="st13" x1="221.4" y1="136.6" x2="206.8" y2="136.6"/>
			</g>
			<path class="st15" d="M208,127.1c1-1.4,2.3-2.3,3.9-2.9c1.7-0.5,3.2-0.5,4.9,0s2.9,1.5,3.9,2.9s1.5,2.9,1.5,4.6h-7.9h-7.9
				C206.5,130,207,128.5,208,127.1z"/>
			<g>
				<g>
					<g>
						<path class="st16" d="M214.3,131.7l-6.4-4.6c-1,1.4-1.5,2.9-1.5,4.6H214.3z"/>
					</g>
				</g>
				<g>
					<g>
						<path class="st16" d="M214.3,131.7l-2.4-7.5c-1.7,0.5-2.9,1.5-3.9,2.9L214.3,131.7z"/>
					</g>
				</g>
				<g>
					<g>
						<path class="st16" d="M214.3,131.7l2.4-7.5c-1.7-0.5-3.2-0.5-4.9,0L214.3,131.7z"/>
					</g>
				</g>
				<g>
					<g>
						<path class="st16" d="M214.3,131.7l6.4-4.6c-1-1.4-2.3-2.3-3.9-2.9L214.3,131.7z"/>
					</g>
				</g>
				<g>
					<g>
						<path class="st16" d="M214.3,131.7h7.9c0-1.7-0.5-3.2-1.5-4.6L214.3,131.7z"/>
					</g>
				</g>
			</g>
			<g>
				<path class="st19" d="M213.4,131.7c0-0.5,0.4-1,1-1c0.5,0,1,0.4,1,1c0,0.5-0.4,1-1,1C213.8,132.7,213.4,132.3,213.4,131.7z"/>
				<line class="st13" x1="214.3" y1="131.7" x2="208.6" y2="129.4"/>
			</g>
		</g>
		<g>
			<g>
				<line class="st13" x1="207.3" y1="150.7" x2="221.9" y2="150.7"/>
				<line class="st13" x1="207.3" y1="152.4" x2="221.9" y2="152.4"/>
			</g>
			<path class="st22" d="M220.7,142.8c-1-1.4-2.3-2.3-3.9-2.9c-1.7-0.5-3.2-0.5-4.9,0s-2.9,1.5-3.9,2.9s-1.5,2.9-1.5,4.6h7.9h7.9
				C222.2,145.7,221.7,144.3,220.7,142.8z"/>
			<g>
				<g>
					<g>
						<path class="st16" d="M214.3,147.5l6.4-4.6c1,1.4,1.5,2.9,1.5,4.6H214.3z"/>
					</g>
				</g>
				<g>
					<g>
						<path class="st16" d="M214.3,147.5l2.4-7.5c1.7,0.5,2.9,1.5,3.9,2.9L214.3,147.5z"/>
					</g>
				</g>
				<g>
					<g>
						<path class="st16" d="M214.3,147.5l-2.4-7.5c1.7-0.5,3.2-0.5,4.9,0L214.3,147.5z"/>
					</g>
				</g>
				<g>
					<g>
						<path class="st16" d="M214.3,147.5l-6.4-4.6c1-1.4,2.3-2.3,3.9-2.9L214.3,147.5z"/>
					</g>
				</g>
				<g>
					<g>
						<path class="st16" d="M214.3,147.5h-7.9c0-1.7,0.5-3.2,1.5-4.6L214.3,147.5z"/>
					</g>
				</g>
			</g>
			<g>
				<path class="st19" d="M215.3,147.5c0-0.5-0.4-1-1-1c-0.5,0-1,0.4-1,1c0,0.5,0.4,1,1,1C214.9,148.4,215.3,148,215.3,147.5z"/>
				<line class="st13" x1="214.3" y1="147.5" x2="207.2" y2="147.5"/>
			</g>
		</g>
		<g class="st23">
			<path class="st32" d="M170.6,39.4c0.2,0,0.6-0.1,1-0.1c0.5,0,0.9,0.1,1.1,0.3c0.2,0.2,0.3,0.5,0.3,0.8c0,0.4-0.1,0.6-0.3,0.9
				c-0.3,0.3-0.7,0.4-1.2,0.4c-0.2,0-0.3,0-0.4,0v1.6h-0.5L170.6,39.4L170.6,39.4z M171.1,41.3c0.1,0,0.3,0,0.4,0c0.6,0,1-0.3,1-0.8
				s-0.4-0.8-0.9-0.8c-0.2,0-0.4,0-0.5,0V41.3z"/>
			<path class="st32" d="M173.8,42c0,0.7,0.5,1,1,1c0.4,0,0.6-0.1,0.8-0.1l0.1,0.4c-0.2,0.1-0.5,0.2-1,0.2c-0.9,0-1.4-0.6-1.4-1.4
				s0.5-1.5,1.3-1.5c0.9,0,1.2,0.8,1.2,1.3c0,0.1,0,0.2,0,0.2h-2V42z M175.4,41.6c0-0.3-0.1-0.8-0.7-0.8c-0.5,0-0.8,0.5-0.8,0.8
				H175.4z"/>
			<path class="st32" d="M176.5,41.4c0-0.3,0-0.6,0-0.9h0.5v0.6l0,0c0.1-0.4,0.4-0.6,0.8-0.6c0.1,0,0.1,0,0.1,0V41
				c-0.1,0-0.1,0-0.2,0c-0.4,0-0.6,0.3-0.7,0.7c0,0.1,0,0.2,0,0.2v1.5h-0.5L176.5,41.4L176.5,41.4z"/>
			<path class="st32" d="M178.7,42c0,0.7,0.5,1,1,1c0.4,0,0.6-0.1,0.8-0.1l0.1,0.4c-0.2,0.1-0.5,0.2-1,0.2c-0.9,0-1.4-0.6-1.4-1.4
				s0.5-1.5,1.3-1.5c0.9,0,1.2,0.8,1.2,1.3c0,0.1,0,0.2,0,0.2h-2V42z M180.2,41.6c0-0.3-0.1-0.8-0.7-0.8c-0.5,0-0.8,0.5-0.8,0.8
				H180.2z"/>
			<path class="st32" d="M181.3,41.2c0-0.3,0-0.5,0-0.8h0.5v0.5l0,0c0.1-0.3,0.5-0.5,0.9-0.5s1,0.2,1,1.2v1.7h-0.5v-1.6
				c0-0.5-0.2-0.8-0.7-0.8c-0.3,0-0.6,0.2-0.7,0.5c0,0.1,0,0.2,0,0.2v1.7h-0.5V41.2z"/>
			<path class="st32" d="M186.7,43.2c-0.1,0.1-0.4,0.2-0.8,0.2c-0.9,0-1.4-0.6-1.4-1.5s0.6-1.5,1.5-1.5c0.3,0,0.6,0.1,0.7,0.1
				l-0.1,0.4c-0.1-0.1-0.3-0.1-0.6-0.1c-0.7,0-1,0.5-1,1.1c0,0.7,0.4,1.1,1,1.1c0.3,0,0.5-0.1,0.6-0.1L186.7,43.2z"/>
			<path class="st32" d="M188.9,43.3v-0.4l0,0c-0.2,0.2-0.5,0.4-0.9,0.4c-0.6,0-0.9-0.4-0.9-0.8c0-0.7,0.6-1.1,1.7-1.1v-0.1
				c0-0.2-0.1-0.7-0.7-0.7c-0.3,0-0.5,0.1-0.7,0.2l-0.1-0.3c0.2-0.2,0.6-0.3,0.9-0.3c0.9,0,1.1,0.6,1.1,1.2v1.1c0,0.2,0,0.5,0,0.7
				L188.9,43.3L188.9,43.3z M188.8,41.9c-0.6,0-1.2,0.1-1.2,0.6c0,0.3,0.2,0.5,0.5,0.5c0.4,0,0.6-0.2,0.7-0.5c0-0.1,0-0.1,0-0.2
				V41.9z"/>
			<path class="st32" d="M190.1,41.2c0-0.3,0-0.5,0-0.8h0.5v0.5l0,0c0.1-0.3,0.5-0.5,0.9-0.5s1,0.2,1,1.2v1.7H192v-1.6
				c0-0.5-0.2-0.8-0.7-0.8c-0.3,0-0.6,0.2-0.7,0.5c0,0.1,0,0.2,0,0.2v1.7h-0.5V41.2z"/>
			<path class="st32" d="M195,43.3v-0.4l0,0c-0.2,0.2-0.5,0.4-0.9,0.4c-0.6,0-0.9-0.4-0.9-0.8c0-0.7,0.6-1.1,1.7-1.1v-0.1
				c0-0.2-0.1-0.7-0.6-0.7c-0.3,0-0.5,0.1-0.7,0.2l-0.1-0.3c0.2-0.2,0.6-0.3,0.9-0.3c0.9,0,1.1,0.6,1.1,1.2v1.1c0,0.2,0,0.5,0,0.7
				L195,43.3L195,43.3z M194.9,41.9c-0.6,0-1.2,0.1-1.2,0.6c0,0.3,0.2,0.5,0.5,0.5c0.4,0,0.6-0.2,0.7-0.5c0-0.1,0-0.1,0-0.2V41.9z"
				/>
			<path class="st32" d="M197.8,43.3v-0.4l0,0c-0.2,0.2-0.5,0.4-0.9,0.4c-0.6,0-0.9-0.4-0.9-0.8c0-0.7,0.6-1.1,1.7-1.1v-0.1
				c0-0.2-0.1-0.7-0.7-0.7c-0.3,0-0.5,0.1-0.7,0.2l-0.1-0.3c0.2-0.2,0.6-0.3,0.9-0.3c0.9,0,1.1,0.6,1.1,1.2v1.1c0,0.2,0,0.5,0,0.7
				L197.8,43.3L197.8,43.3z M197.7,41.9c-0.6,0-1.2,0.1-1.2,0.6c0,0.3,0.2,0.5,0.5,0.5c0.4,0,0.6-0.2,0.7-0.5c0-0.1,0-0.1,0-0.2
				V41.9z"/>
			<path class="st32" d="M199.1,41.2c0-0.3,0-0.5,0-0.8h0.5v0.5l0,0c0.1-0.3,0.5-0.5,0.9-0.5s1,0.2,1,1.2v1.7H201v-1.6
				c0-0.5-0.2-0.8-0.7-0.8c-0.3,0-0.6,0.2-0.7,0.5c0,0.1,0,0.2,0,0.2v1.7h-0.5V41.2z"/>
			<path class="st32" d="M204.1,39.8h-1.2v-0.4h2.9v0.4h-1.2v3.5h-0.5V39.8z"/>
			<path class="st32" d="M207.5,43.3v-0.4l0,0c-0.2,0.2-0.5,0.4-0.9,0.4c-0.6,0-0.9-0.4-0.9-0.8c0-0.7,0.6-1.1,1.7-1.1v-0.1
				c0-0.2-0.1-0.7-0.7-0.7c-0.3,0-0.5,0.1-0.7,0.2l-0.1-0.3c0.2-0.2,0.6-0.3,0.9-0.3c0.9,0,1.1,0.6,1.1,1.2v1.1c0,0.2,0,0.5,0,0.7
				L207.5,43.3L207.5,43.3z M207.4,41.9c-0.6,0-1.2,0.1-1.2,0.6c0,0.3,0.2,0.5,0.5,0.5c0.4,0,0.6-0.2,0.7-0.5c0-0.1,0-0.1,0-0.2
				V41.9z"/>
			<path class="st32" d="M208.8,39.1h0.5v1.8l0,0c0.1-0.1,0.2-0.3,0.4-0.4c0.2-0.1,0.3-0.1,0.5-0.1c0.4,0,1,0.2,1,1.2v1.7h-0.5v-1.6
				c0-0.5-0.2-0.9-0.7-0.9c-0.3,0-0.6,0.2-0.7,0.5c0,0.1,0,0.1,0,0.2v1.7h-0.5V39.1z"/>
			<path class="st32" d="M214.4,42.5c0,0.3,0,0.6,0,0.8H214v-0.5l0,0c-0.1,0.2-0.4,0.5-0.9,0.5c-0.4,0-1-0.2-1-1.3v-1.7h0.5V42
				c0,0.5,0.2,0.9,0.6,0.9c0.3,0,0.6-0.2,0.7-0.5c0-0.1,0-0.2,0-0.3v-1.8h0.5L214.4,42.5L214.4,42.5z"/>
			<path class="st32" d="M215.3,41.2c0-0.3,0-0.5,0-0.8h0.5v0.5l0,0c0.1-0.3,0.5-0.5,0.9-0.5s1,0.2,1,1.2v1.7h-0.5v-1.6
				c0-0.5-0.2-0.8-0.7-0.8c-0.3,0-0.6,0.2-0.7,0.5c0,0.1,0,0.2,0,0.2v1.7h-0.5V41.2z"/>
			<path class="st32" d="M220.2,43.3v-0.4l0,0c-0.2,0.2-0.5,0.4-0.9,0.4c-0.6,0-0.9-0.4-0.9-0.8c0-0.7,0.6-1.1,1.7-1.1v-0.1
				c0-0.2-0.1-0.7-0.6-0.7c-0.3,0-0.5,0.1-0.7,0.2l-0.1-0.3c0.2-0.2,0.6-0.3,0.9-0.3c0.9,0,1.1,0.6,1.1,1.2v1.1c0,0.2,0,0.5,0,0.7
				L220.2,43.3L220.2,43.3z M220.1,41.9c-0.6,0-1.2,0.1-1.2,0.6c0,0.3,0.2,0.5,0.5,0.5c0.4,0,0.6-0.2,0.7-0.5c0-0.1,0-0.1,0-0.2
				V41.9z"/>
			<path class="st32" d="M221.4,41.2c0-0.3,0-0.5,0-0.8h0.5v0.5l0,0c0.1-0.3,0.5-0.5,0.9-0.5s1,0.2,1,1.2v1.7h-0.5v-1.6
				c0-0.5-0.2-0.8-0.7-0.8c-0.3,0-0.6,0.2-0.7,0.5c0,0.1,0,0.2,0,0.2v1.7h-0.5V41.2z"/>
		</g>
	</g>
</g>
<g>
	<g>
		<path class="st9" d="M224,126c0,0-1.2,1.4-1.5,2.2c-0.3,0.9-0.5,2-1,2.7c-0.4,0.6-1.9,0.4-1.9,1.4s0.6,2,0.6,2s0.3,3.1,0.7,3.8
			s4.9,0,4.9,0s1.7-2.6,1.7-5.2C227.6,130.3,225.7,126.2,224,126z"/>
		<path class="st19" d="M223.2,130.9c0,0.4-0.2,0.7-0.3,0.7s-0.2-0.3-0.2-0.7c0-0.4,0.2-0.7,0.3-0.7
			C223.1,130.2,223.2,130.5,223.2,130.9z"/>
		<path class="st2" d="M222.9,129c0,0,1.2-0.3,1.2,1.2"/>
	</g>
	<g>
		<path class="st9" d="M234.1,199.6l-0.4,8.9c0,0,2.9,5.2,3,10.2c0.1,4.9,2.4,16.5,2.4,16.5l0.4,6.6l-1.1,0.1l-0.9-1.7
			c0,0-0.4,1.8-0.7,1.8s-2.9-0.2-3-1c-0.1-0.7-0.3-1.2,0.3-1.3s2.5-4.4,2.5-4.4s-4.5-10.4-5.3-12.4c-0.9-2-1.7-5.3-1.7-5.3
			s-0.6-3.5-1.4-7.2s-1.4-10.3-1.4-10.3L234.1,199.6z"/>
		<path class="st33" d="M236.5,235.3c-0.5,1.6-1.4,4.1-1.4,4.1l-1.1,0.3c-0.6,0.1-0.4,0.5-0.3,1.3c0.1,0.7,2.7,1,3,1
			s0.7-1.8,0.7-1.8l0.9,1.7l1.1-0.1l-0.4-6.6C239,235,237,233.7,236.5,235.3z"/>
	</g>
	<g>
		<path class="st9" d="M219.9,198.8c0,0,0.1,2.9,0.9,4.3c0.7,1.4,1.5,6.2,1.5,6.2s-0.1,7.6,1.1,11.3c1.2,3.7,2.8,15.9,2.8,15.9
			s-3.2,3.8-3.6,4.3c-0.4,0.4-2.9,1.5-2.4,1.9s3.5,0.7,4.5,0.6c1-0.1,4.1-2.4,4.4-2.6c0.3-0.2,0.4,2.8,0.4,2.8h1.3l0.3-4.5
			c0,0,0.2-1.6-0.1-2.4c-0.3-0.7-1.1-1.8-1.1-1.8l0.5-13.4c0,0,0.9-4.5,0.2-7.5c-0.6-3-1.5-7.8-1.5-7.8l0.4-6.4l0.3-4.2
			c0,0-1.3-1-4.5-1s-6.2,0.5-6.2,0.5L219.9,198.8z"/>
		<path class="st33" d="M231.1,239.1c0,0,0.2-1.6-0.1-2.4c-0.2-0.5-0.6-1.1-0.8-1.4c-0.5,0.3-1.4,1-2.1,1.8
			c-0.9,1.1-2.7,3.3-3.6,3.8c-0.7,0.4-2,0.4-2.6,0.3c-0.8,0.5-2.1,1.2-1.7,1.5c0.5,0.4,3.5,0.7,4.5,0.6c1-0.1,4.1-2.4,4.4-2.6
			c0.3-0.2,0.4,2.8,0.4,2.8h1.3L231.1,239.1z"/>
	</g>
	<path class="st34" d="M217.5,175.8c0,0-0.5,8.3-0.4,12.6s0.6,11.2,0.6,11.2s1.9,0.6,3.1,1c1.2,0.3,1.7,0.3,1.7,0.3l1.4-2.5l1,2.7
		c0,0,2.2,0.2,5.1,0.2c2.9,0,5.6-1.3,5.8-1.6s0.7-0.9,0.7-0.9l-1-10.2c0,0,1.9-5,2-7.6s-1.2-5.7-1.2-5.7s-5,1.6-9.1,0.9
		c-4.1-0.7-9.7-2-9.7-2L217.5,175.8z"/>
	<path class="st35" d="M235.4,157.9c0,0,2,8.9,1.9,10.2s-2.5,5.2-2.5,5.2s-2.6-4.7-3-7.4s0-4.7,0.5-5.7s2-3.4,2-3.4L235.4,157.9z"/>
	<path class="st35" d="M222,148.4c0,0-4,6.8-4,8.7s0.1,9-0.5,11.1s-1.5,8.2-1.5,8.2s1.5,2,6.9,2.8c5.5,0.7,12.1-1.6,12.7-1.8
		c0.6-0.2,1.8-0.9,1.8-0.9l0.6-0.2c0,0-2-3.6-2.9-5.3s-2.6-4.5-2.1-6.8c0.4-2.4,2.9-6.1,4-9.5s0.6-7.8-1-9.9
		c-1.6-2.1-7.9-2.1-10.7-0.5C222.6,145.7,222,148.4,222,148.4z"/>
	<path class="st33" d="M225.6,121c-1.7,0.7-3,2.1-2.6,3.9c0.7,3.1,3,5.1,3,7.8c0,2.7-1.3,7.9-3.1,9.9s-3.3,8.6-1.7,8.8
		s1.1-2.5,3.3-4.5s5.2-0.4,6,2.6c0.7,3-0.5,5.7,1.1,7.6c1.6,1.9,5.3,1.2,6.7-1.2s0.2-4.4,1.1-5.3c0.9-1,2.8-2.6,2.1-5
		c-0.6-2.5-4.7-2.9-4.3-6.2s2.9-7.7,1.8-10.4c-1.1-2.7-3.1-5.8-4.8-6.9c-1.4-0.9-3.2-1.5-4.9-1.7C228.3,120.2,226.9,120.5,225.6,121
		z"/>
	<g>
		<g>
			<path class="st9" d="M218.6,179.7c0,0-2,4.2-2.1,4.8s-0.2,5.3-0.2,5.3s0.5,1.6,0.9,1.8c0.3,0.2,0.7-0.1,0.7-0.9
				c0-0.7,0-1.1,0-1.1s0.6-1.4,1.2-2.5c0.5-1.1,0.3-3.7,0.3-3.7l1.7-2.9L218.6,179.7z"/>
			<polygon class="st9" points="217.7,181.1 220.4,182.9 221.4,180.6 218.6,179.7 			"/>
		</g>
		<path class="st35" d="M230.2,150.9c0,0-1.6-4.8-4.6-4.6s-3.7,6.9-3.7,9.7s0.4,13.3,0.4,13.3l-4.3,10.4l3.1,1.9
			c0,0,7.2-10.7,7.4-11.2s0.9-14.5,0.9-14.5"/>
	</g>
</g>
<g>
	<path class="st2" d="M180.8,130c0,0,1.4-0.1,1,1.1s-1.2,1.9-1.7,2c-0.5,0.1-0.9,0.1-0.9,0.1L180.8,130z"/>
	<path class="st9" d="M169.3,129.5c0,0-1.3,0.2-1.1,1.2s1,2.6,1.4,2.7c0.4,0.1,1.1-0.5,1.1-0.5L169.3,129.5z"/>
	<path class="st9" d="M151.2,158.6c0,0,1.5-3.7,2.2-4.5c0.7-0.7,1.9-3.4,1.9-3.4l1.1,3.4l-4.9,5.5
		C151.5,159.6,151.1,159.7,151.2,158.6z"/>
	<path class="st33" d="M152.5,143.7l2.6,10.8c0.2,0.6,0.8,1,1.4,0.8l6.5-2c0.6-0.2,0.9-0.8,0.8-1.3l-2.6-10.5
		c-0.2-0.6-0.8-1-1.4-0.8l-6.5,1.8C152.7,142.5,152.3,143.1,152.5,143.7z"/>
	<polygon class="st9" points="171,133.7 170.9,139.1 178.4,139.8 178.2,134.5 	"/>
	<path class="st33" d="M171.8,119.5c0,0-3,2.1-3.6,4.4c-0.6,2.2,0.4,5.2,0.9,6.1c0.4,0.9,1.8,4.6,2.3,5.2c0.5,0.6,3,1.7,3.8,1.5
		c0.9-0.2,3.5-0.5,3.8-1.6s2-5.1,2.2-5.8c0.2-0.6,0.9-5.2,0.2-6.2c-0.6-1-2.7-3-2.7-3s-1-1.5-3-1.9
		C173.8,117.8,171.8,119.5,171.8,119.5z"/>
	<path class="st9" d="M167.8,140.2c0,0,1.3-2.2,4.3-2.2s5.9,0.1,6.6,0.3c0.7,0.2,2.1,2.9,2.1,2.9s-7.7-0.5-9.8-0.5s-4.2,0.3-4.2,0.3
		L167.8,140.2z"/>
	<g>
		<path class="st9" d="M183.8,134.4c0,0-1.5-1.7-1.8-2.3s-0.1-1.5,0.2-1.7s0.9-0.3,0.9-0.3s0.3-3,0.2-3.4s0.3-0.5,0.9-0.4
			s0.7,2.6,0.7,2.6s0.7,0.2,1.4,0.9c0.6,0.6,0.7,2,0.7,2.5s0,1.7,0,1.7l0.2,1.5l-3,0.7L183.8,134.4z"/>
		<path class="st9" d="M184.6,143.5c0,0-0.6-7.6-0.6-8s0.9-1.2,1.7-1.2c0.9,0,1.7,0.9,1.7,0.9s3.1,9.1,3.7,9.9
			c0.6,0.9,1.9,4.4,1.9,5.4s-3.8-0.1-4.9-1.1s-3.2-4.9-3.2-4.9L184.6,143.5z"/>
	</g>
	<path class="st33" d="M162.9,172.7l-1,10.6c0,0-1,24.7-1,26.4s0.3,14,0.7,17.2s0.3,9,0.3,9s-1.3,0.6-1.3,1.3c0,0.6,0,1.2,0,1.2
		s-1.6,1-2.1,1.5s-1.2,1.7-0.4,2.4c0.7,0.6,6.1,2.8,6.8,2.8s2.7-0.3,3.1-1.1c0.4-0.7,0.1-4.2,0.1-4.2s1-1.5,1-2s-0.1-1.3-0.1-2.1
		c0-0.9,0.4-10.8,0.4-10.8s1.5-20.8,1.7-21.2c0.2-0.3,1.2-14.9,1.2-14.9l1.8,0.2l2.5,17.9c0,0,3.3,16.7,3.4,17.2
		c0.1,0.5,1.7,9.4,1.7,9.4s0,1.9,0,2.8c0,0.9,1.1,2.6,1.1,2.6s-0.2,2.7,0.3,3.6c0.5,1,2.7,1.1,4.3,0.5c1.6-0.5,1.3-2.7,1.3-3.7
		s-0.1-2.1-0.1-2.1s-0.1-1.6,0-2.7c0.1-1.1-0.9-4.2-0.9-4.7s0.3-13.5,0.1-16.2c-0.2-2.8-2-11.5-2-11.5s-1.1-16.5-1.1-16.9
		s0-11.8,0-11.8s-4.3,1.1-11.6,0.4c-7.3-0.7-10.5-1.4-10.5-1.4L162.9,172.7z"/>
	<g>
		<path class="st9" d="M166.8,140.9c0,0-7.7,3.1-7.4,3.5s-3.6,7.9-3.9,8.3c-0.3,0.4-4.2,5.3-4.6,6.3c-0.4,1-1.3,2.2,0.1,3.7
			c1.4,1.5,2,2,3.9,1.7s6.8-5.9,6.8-5.9s0.2,6.9,0.3,8.7s0.1,2.3,0.1,3.3s-0.5,1.5,0.7,2.7c1.3,1.2,6.7,2.7,10.6,2.5
			c3.8-0.2,6.9-0.2,8.4-0.6c1.5-0.4,2.7-0.6,2.9-1.9c0.2-1.3,0.3-4.8,0.3-5.9c0-1.1,0.6-12.2,0.6-12.2s3.4,0.3,5,0s2.7-3.3,2.2-4.7
			c-0.4-1.4-2.1-2.5-3-3.3c-0.9-0.9-1.4-2-2.6-3.3c-1.2-1.3-1.7-1.3-2.7-1.5s-4.1-1.3-4.1-1.3S173.1,140.2,166.8,140.9z"/>
		<path class="st2" d="M173.9,172.3c1.6-1.3,3.7-3.1,4.7-4.3"/>
		<path class="st2" d="M171.6,174.2c0,0,0.3-0.3,0.9-0.7"/>
		<line class="st2" x1="176.8" y1="172.6" x2="179.2" y2="170.5"/>
		<line class="st2" x1="161.8" y1="158.6" x2="160" y2="147.9"/>
		<line class="st2" x1="158.3" y1="149.5" x2="160.9" y2="153.3"/>
		<path class="st2" d="M167.9,142.2c0,0,3.9,4.2,5.9,9.7"/>
		<path class="st2" d="M171.9,145.6c0,0,2.3,4.2,3,5.7"/>
		<path class="st2" d="M186.6,143.7c0,0,0.7,3.4,0.9,3.8"/>
		<path class="st2" d="M187.7,150.5c-0.2,1.1-1.9,4.7-1.9,4.7s2.7-3.1,2.9-3.4"/>
	</g>
</g>
</svg>
