<?xml version="1.0" encoding="utf-8"?>
<!-- Generator: Adobe Illustrator 24.1.1, SVG Export Plug-In . SVG Version: 6.00 Build 0)  -->
<svg version="1.1" id="Layer_1" xmlns="http://www.w3.org/2000/svg" xmlns:xlink="http://www.w3.org/1999/xlink" x="0px" y="0px"
	 viewBox="0 0 263 250" style="enable-background:new 0 0 263 250;" xml:space="preserve">
<style type="text/css">
	.st0{fill:#9BD2A5;}
	.st1{fill:#E4E8F9;enable-background:new    ;}
	.st2{fill:#FFFFFF;stroke:#263238;stroke-width:0.25;stroke-linecap:round;stroke-linejoin:round;stroke-miterlimit:10;}
	.st3{fill:none;stroke:#676464;stroke-width:0.25;stroke-linecap:round;stroke-linejoin:round;stroke-miterlimit:10;}
	.st4{fill:#263238;stroke:#676464;stroke-width:0.25;stroke-linecap:round;stroke-linejoin:round;stroke-miterlimit:10;}
	.st5{fill:#839CF4;}
	.st6{fill:none;stroke:#263238;stroke-width:0.25;stroke-linecap:round;stroke-linejoin:round;stroke-miterlimit:10;}
	.st7{fill:#263238;stroke:#263238;stroke-width:0.25;stroke-linecap:round;stroke-linejoin:round;stroke-miterlimit:10;}
	.st8{fill:#5276DB;}
	.st9{fill:#FFD648;stroke:#263238;stroke-width:0.25;stroke-miterlimit:10;}
	.st10{fill:#263238;stroke:#263238;stroke-width:0.25;stroke-linecap:round;stroke-linejoin:round;stroke-miterlimit:10.0002;}
	.st11{fill:#FFFFFF;stroke:#263238;stroke-width:0.25;stroke-linecap:round;stroke-linejoin:round;stroke-miterlimit:10.0002;}
	.st12{fill:#0B319B;stroke:#263238;stroke-width:0.25;stroke-linecap:round;stroke-linejoin:round;stroke-miterlimit:10;}
	.st13{fill:#A3B5F7;stroke:#263238;stroke-width:0.25;stroke-linecap:round;stroke-linejoin:round;stroke-miterlimit:10;}
	.st14{fill:#85FFFC;stroke:#263238;stroke-width:0.25;stroke-linecap:round;stroke-linejoin:round;stroke-miterlimit:10;}
	.st15{fill:#C11000;}
	.st16{fill:#4878FF;stroke:#263238;stroke-width:0.25;stroke-miterlimit:10;}
	.st17{fill:#0E31AE;}
</style>
<g>
	<path class="st0" d="M245.9,115.4c-13.4-21.4-37.8-36.1-61-46.1c-54.6-23.5-74.1-14.1-94,5.1s-29.8,32.9-49.6,49.8
		S3.7,146.6,14,174.4s13.8,33.6,51.8,26.4s65.2-18.1,96.5-8.3s47.2,19.5,72.7,4C261.3,180.3,260.7,139.1,245.9,115.4z"/>
	<path class="st1" d="M245.9,115.4c-13.4-21.4-37.8-36.1-61-46.1c-54.6-23.5-74.1-14.1-94,5.1s-29.8,32.9-49.6,49.8
		S3.7,146.6,14,174.4s13.8,33.6,51.8,26.4s65.2-18.1,96.5-8.3s47.2,19.5,72.7,4C261.3,180.3,260.7,139.1,245.9,115.4z"/>
</g>
<g>
	<g>
		<polygon class="st2" points="169.1,168.9 100.6,168.9 105,157.8 164.7,157.8 		"/>
		<polygon class="st2" points="108.6,160.3 106,160.3 106.5,158.9 109.1,158.9 		"/>
		<polygon class="st2" points="112.3,160.3 109.7,160.3 110.1,158.9 112.7,158.9 		"/>
		<polygon class="st2" points="115.9,160.3 113.3,160.3 113.7,158.9 116.3,158.9 		"/>
		<polygon class="st2" points="119.6,160.3 117,160.3 117.3,158.9 119.9,158.9 		"/>
		<polygon class="st2" points="123.3,160.3 120.7,160.3 120.9,158.9 123.5,158.9 		"/>
		<polygon class="st2" points="126.9,160.3 124.3,160.3 124.5,158.9 127.1,158.9 		"/>
		<polygon class="st2" points="130.6,160.3 128,160.3 128.1,158.9 130.7,158.9 		"/>
		<polygon class="st2" points="134.3,160.3 131.7,160.3 131.7,158.9 134.3,158.9 		"/>
		<polygon class="st2" points="138,160.3 135.4,160.3 135.4,158.9 137.9,158.9 		"/>
		<polygon class="st2" points="141.6,160.3 139,160.3 139,158.9 141.5,158.9 		"/>
		<polygon class="st2" points="145.3,160.3 142.7,160.3 142.6,158.9 145.1,158.9 		"/>
		<polygon class="st2" points="149,160.3 146.4,160.3 146.2,158.9 148.7,158.9 		"/>
		<polygon class="st2" points="152.7,160.3 150.1,160.3 149.8,158.9 152.3,158.9 		"/>
		<polygon class="st2" points="156.3,160.3 153.7,160.3 153.4,158.9 155.9,158.9 		"/>
		<polygon class="st2" points="160,160.3 157.4,160.3 157,158.9 159.5,158.9 		"/>
		<polygon class="st2" points="163.7,160.3 161.1,160.3 160.6,158.9 163.1,158.9 		"/>
		<polygon class="st2" points="107.5,163.5 104.8,163.5 105.4,161.9 108,161.9 		"/>
		<polygon class="st2" points="111.3,163.5 108.6,163.5 109.1,161.9 111.8,161.9 		"/>
		<polygon class="st2" points="115.1,163.5 112.4,163.5 112.9,161.9 115.5,161.9 		"/>
		<polygon class="st2" points="119,163.5 116.3,163.5 116.6,161.9 119.3,161.9 		"/>
		<polygon class="st2" points="122.8,163.5 120.1,163.5 120.4,161.9 123,161.9 		"/>
		<polygon class="st2" points="126.6,163.5 123.9,163.5 124.1,161.9 126.8,161.9 		"/>
		<polygon class="st2" points="130.4,163.5 127.7,163.5 127.9,161.9 130.5,161.9 		"/>
		<polygon class="st2" points="134.3,163.5 131.6,163.5 131.6,161.9 134.3,161.9 		"/>
		<polygon class="st2" points="138.1,163.5 135.4,163.5 135.4,161.9 138,161.9 		"/>
		<polygon class="st2" points="141.9,163.5 139.2,163.5 139.1,161.9 141.8,161.9 		"/>
		<polygon class="st2" points="145.7,163.5 143,163.5 142.9,161.9 145.5,161.9 		"/>
		<polygon class="st2" points="149.6,163.5 146.9,163.5 146.6,161.9 149.3,161.9 		"/>
		<polygon class="st2" points="153.4,163.5 150.7,163.5 150.4,161.9 153,161.9 		"/>
		<polygon class="st2" points="157.2,163.5 154.5,163.5 154.1,161.9 156.8,161.9 		"/>
		<polygon class="st2" points="161,163.5 158.3,163.5 157.9,161.9 160.5,161.9 		"/>
		<polygon class="st2" points="164.9,163.5 162.2,163.5 161.6,161.9 164.3,161.9 		"/>
		<polygon class="st2" points="106.3,166.9 103.5,166.9 104.1,165.2 106.9,165.2 		"/>
		<polygon class="st2" points="110.3,166.9 107.5,166.9 108,165.2 110.8,165.2 		"/>
		<polygon class="st2" points="114.3,166.9 111.5,166.9 111.9,165.2 114.7,165.2 		"/>
		<polygon class="st2" points="142.2,166.9 115.5,166.9 115.9,165.2 142.1,165.2 		"/>
		<polygon class="st2" points="146.2,166.9 143.4,166.9 143.2,165.2 146,165.2 		"/>
		<polygon class="st2" points="150.2,166.9 147.4,166.9 147.1,165.2 149.9,165.2 		"/>
		<polygon class="st2" points="154.2,166.9 151.4,166.9 151,165.2 153.8,165.2 		"/>
		<polygon class="st2" points="158.2,166.9 155.4,166.9 154.9,165.2 157.7,165.2 		"/>
		<polygon class="st2" points="162.2,166.9 159.3,166.9 158.9,165.2 161.6,165.2 		"/>
		<polygon class="st2" points="166.2,166.9 163.3,166.9 162.8,165.2 165.5,165.2 		"/>
	</g>
	<rect x="100.6" y="168.9" class="st2" width="68.5" height="1"/>
</g>
<g>
	<g>
		<polygon class="st3" points="47.8,26 15.3,26 14.9,31.4 47.8,31.4 		"/>
		<polygon class="st3" points="47.8,31.4 15.3,31.4 14.9,36.7 47.8,36.7 		"/>
		<polygon class="st3" points="47.8,36.7 15.3,36.7 14.9,42.1 47.8,42.1 		"/>
		<polygon class="st3" points="47.8,42.1 15.3,42.1 14.9,47.4 47.8,47.4 		"/>
		<polygon class="st3" points="47.8,47.4 15.3,47.4 14.9,52.8 47.8,52.8 		"/>
		<polygon class="st3" points="47.8,52.8 15.3,52.8 14.9,58.1 47.8,58.1 		"/>
		<polygon class="st3" points="47.8,58.1 15.3,58.1 14.9,63.4 47.8,63.4 		"/>
		<polygon class="st3" points="47.8,63.4 15.3,63.4 14.9,68.8 47.8,68.8 		"/>
		<polygon class="st3" points="47.8,68.8 15.3,68.8 14.9,74.1 47.8,74.1 		"/>
		<polygon class="st3" points="47.8,74.1 15.3,74.1 14.9,79.5 47.8,79.5 		"/>
		<polygon class="st3" points="47.8,79.5 15.3,79.5 14.9,84.8 47.8,84.8 		"/>
		<polygon class="st3" points="47.8,84.8 15.3,84.8 14.9,90.2 47.8,90.2 		"/>
		<polygon class="st3" points="47.8,90.2 15.3,90.2 14.9,95.5 47.8,95.5 		"/>
		<polygon class="st3" points="47.8,95.5 15.3,95.5 14.9,100.9 47.8,100.9 		"/>
		<polygon class="st3" points="47.8,100.9 15.3,100.9 14.9,106.2 47.8,106.2 		"/>
	</g>
	<g>
		<polygon class="st3" points="81.2,26 48.7,26 48.3,31.4 81.2,31.4 		"/>
		<polygon class="st3" points="81.2,31.4 48.7,31.4 48.3,36.7 81.2,36.7 		"/>
		<polygon class="st3" points="81.2,36.7 48.7,36.7 48.3,42.1 81.2,42.1 		"/>
		<polygon class="st3" points="81.2,42.1 48.7,42.1 48.3,47.4 81.2,47.4 		"/>
		<polygon class="st3" points="81.2,47.4 48.7,47.4 48.3,52.8 81.2,52.8 		"/>
		<polygon class="st3" points="81.2,52.8 48.7,52.8 48.3,58.1 81.2,58.1 		"/>
		<polygon class="st3" points="81.2,58.1 48.7,58.1 48.3,63.4 81.2,63.4 		"/>
		<polygon class="st3" points="81.2,63.4 48.7,63.4 48.3,68.8 81.2,68.8 		"/>
		<polygon class="st3" points="81.2,68.8 48.7,68.8 48.3,74.1 81.2,74.1 		"/>
		<polygon class="st3" points="81.2,74.1 48.7,74.1 48.3,79.5 81.2,79.5 		"/>
		<polygon class="st3" points="81.2,79.5 48.7,79.5 48.3,84.8 81.2,84.8 		"/>
		<polygon class="st3" points="81.2,84.8 48.7,84.8 48.3,90.2 81.2,90.2 		"/>
		<polygon class="st3" points="81.2,90.2 48.7,90.2 48.3,95.5 81.2,95.5 		"/>
		<polygon class="st3" points="81.2,95.5 48.7,95.5 48.3,100.9 81.2,100.9 		"/>
		<polygon class="st3" points="81.2,100.9 48.7,100.9 48.3,106.2 81.2,106.2 		"/>
	</g>
	<rect x="14.2" y="21.9" class="st3" width="68.7" height="4"/>
	<line class="st3" x1="82.9" y1="25.9" x2="82.9" y2="96.9"/>
	<line class="st3" x1="82.1" y1="26" x2="82.1" y2="74.8"/>
	<rect x="82.4" y="96.8" class="st4" width="0.9" height="1.8"/>
	<rect x="81.6" y="74.4" class="st4" width="0.9" height="1.8"/>
	<g>
		<g>
			<polygon class="st3" points="217.7,25.4 185.2,25.4 184.8,30.7 217.7,30.7 			"/>
			<polygon class="st3" points="217.7,30.7 185.2,30.7 184.8,36.1 217.7,36.1 			"/>
			<polygon class="st3" points="217.7,36.1 185.2,36.1 184.8,41.4 217.7,41.4 			"/>
			<polygon class="st3" points="217.7,41.4 185.2,41.4 184.8,46.8 217.7,46.8 			"/>
			<polygon class="st3" points="217.7,46.8 185.2,46.8 184.8,52.1 217.7,52.1 			"/>
			<polygon class="st3" points="217.7,52.1 185.2,52.1 184.8,57.4 217.7,57.4 			"/>
			<polygon class="st3" points="217.7,57.4 185.2,57.4 184.8,62.8 217.7,62.8 			"/>
			<polygon class="st3" points="217.7,62.8 185.2,62.8 184.8,68.1 217.7,68.1 			"/>
			<polygon class="st3" points="217.7,68.1 185.2,68.1 184.8,73.5 217.7,73.5 			"/>
			<polygon class="st3" points="217.7,73.5 185.2,73.5 184.8,78.8 217.7,78.8 			"/>
			<polygon class="st3" points="217.7,78.8 185.2,78.8 184.8,84.2 217.7,84.2 			"/>
			<polygon class="st3" points="217.7,84.2 185.2,84.2 184.8,89.5 217.7,89.5 			"/>
			<polygon class="st3" points="217.7,89.5 185.2,89.5 184.8,94.8 217.7,94.8 			"/>
			<polygon class="st3" points="217.7,94.8 185.2,94.8 184.8,100.2 217.7,100.2 			"/>
			<polygon class="st3" points="217.7,100.2 185.2,100.2 184.8,105.5 217.7,105.5 			"/>
		</g>
		<g>
			<polygon class="st3" points="251.1,25.4 218.6,25.4 218.2,30.7 251.1,30.7 			"/>
			<polygon class="st3" points="251.1,30.7 218.6,30.7 218.2,36.1 251.1,36.1 			"/>
			<polygon class="st3" points="251.1,36.1 218.6,36.1 218.2,41.4 251.1,41.4 			"/>
			<polygon class="st3" points="251.1,41.4 218.6,41.4 218.2,46.8 251.1,46.8 			"/>
			<polygon class="st3" points="251.1,46.8 218.6,46.8 218.2,52.1 251.1,52.1 			"/>
			<polygon class="st3" points="251.1,52.1 218.6,52.1 218.2,57.4 251.1,57.4 			"/>
			<polygon class="st3" points="251.1,57.4 218.6,57.4 218.2,62.8 251.1,62.8 			"/>
			<polygon class="st3" points="251.1,62.8 218.6,62.8 218.2,68.1 251.1,68.1 			"/>
			<polygon class="st3" points="251.1,68.1 218.6,68.1 218.2,73.5 251.1,73.5 			"/>
			<polygon class="st3" points="251.1,73.5 218.6,73.5 218.2,78.8 251.1,78.8 			"/>
			<polygon class="st3" points="251.1,78.8 218.6,78.8 218.2,84.2 251.1,84.2 			"/>
			<polygon class="st3" points="251.1,84.2 218.6,84.2 218.2,89.5 251.1,89.5 			"/>
			<polygon class="st3" points="251.1,89.5 218.6,89.5 218.2,94.8 251.1,94.8 			"/>
			<polygon class="st3" points="251.1,94.8 218.6,94.8 218.2,100.2 251.1,100.2 			"/>
			<polygon class="st3" points="251.1,100.2 218.6,100.2 218.2,105.5 251.1,105.5 			"/>
		</g>
		<rect x="184" y="21.2" class="st3" width="68.7" height="4"/>
		<line class="st3" x1="252.7" y1="25.3" x2="252.7" y2="96.3"/>
		<line class="st3" x1="252" y1="25.4" x2="252" y2="74.1"/>
		<rect x="252.3" y="96.1" class="st4" width="0.9" height="1.8"/>
		<rect x="251.5" y="73.7" class="st4" width="0.9" height="1.8"/>
	</g>
</g>
<g>
	<g>
		<polygon class="st5" points="43.3,208.2 43.3,176.7 233.6,176.7 233.8,210 228.4,208.9 228.5,185.3 49,185.3 49,207.9 		"/>
		<polyline class="st6" points="43.4,210.3 43.4,173.7 233.8,173.7 233.8,211.2 		"/>
		<rect x="43.4" y="176.7" class="st7" width="190.2" height="3"/>
		<polyline class="st6" points="49,209.9 49,185.3 228.5,185.3 228.5,211.6 		"/>
	</g>
	<rect x="36.7" y="172" class="st8" width="199.8" height="4.7"/>
	<polygon class="st2" points="236.6,172 36.7,172 51.7,150.8 221.6,150.8 	"/>
</g>
<g>
	<path class="st7" d="M214,149.2l3.1,3.9c0.7,0.9,0.6,2.2-0.3,3l-7.2,5.7l-16-5.8l7-4.4c1-0.6,1.3-2,0.6-3l-1.9-2.7L214,149.2z"/>
	<polygon class="st2" points="180,91.2 245.4,102 245.4,157.1 243.5,157.6 178,142.3 178,91.8 	"/>
	<g>
		<polygon class="st7" points="178,142.3 243.5,157.6 243.5,102.6 178,91.8 		"/>
		<polygon class="st9" points="179.8,141.2 241.7,155.9 241.7,103.7 179.8,93.5 		"/>
	</g>
</g>
<g>
	<polygon class="st7" points="148,153.4 123.8,153.4 125.8,145.9 125.8,141.6 146,141.6 146,146.3 	"/>
	<rect x="98.8" y="91.7" class="st7" width="73.6" height="50.6"/>
	<rect x="100.6" y="93.2" class="st2" width="70" height="47.7"/>
</g>
<g>
	<path class="st7" d="M57.9,149.2l-3.1,3.9c-0.7,0.9-0.6,2.2,0.3,3l7.2,5.7l16-5.8l-7-4.4c-1-0.6-1.3-2-0.6-3l1.9-2.7L57.9,149.2z"
		/>
	<polygon class="st2" points="91.9,91.2 26.5,102 26.5,157.1 28.5,157.6 93.9,142.3 93.9,91.8 	"/>
	<g>
		<polygon class="st7" points="93.9,142.3 28.5,157.6 28.5,102.6 93.9,91.8 		"/>
		<polygon class="st9" points="92.1,141.2 30.2,155.9 30.2,103.7 92.1,93.5 		"/>
	</g>
</g>
<g>
	<g>
		
			<ellipse transform="matrix(0.7713 -0.6365 0.6365 0.7713 -27.3831 152.9855)" class="st10" cx="199.2" cy="114.6" rx="8.9" ry="10.9"/>
		<g>
			<path class="st2" d="M204.7,113.4l-3.7-0.7c0,0,0.3-1.1,0.5-2.6c0.1-1.4-0.3-1.8-1.4-2c-1.1-0.2,0,1-0.6,2.1
				c-0.4,0.9-1.8,1.6-2.3,1.8v6.6l5.5,1.1c1.9,0.1,0.7-1.5,0.7-1.5c1.4,0,0.6-1.6,0.6-1.6c1.4,0.1,0.4-1.5,0.4-1.5
				C205.8,114.8,204.7,113.4,204.7,113.4z"/>
			<polygon class="st2" points="193.3,117.6 196.4,118.2 196.4,111.8 193.3,111.2 			"/>
		</g>
	</g>
	<g>
		
			<ellipse transform="matrix(0.7713 -0.6365 0.6365 0.7713 -25.0366 168.9109)" class="st11" cx="222.5" cy="119.3" rx="8.9" ry="10.9"/>
		<g>
			<path class="st7" d="M217,120.5l3.7,0.7c0,0-0.3,1.1-0.5,2.6c-0.1,1.4,0.3,1.8,1.4,2c1.1,0.2,0-1,0.6-2.1
				c0.4-0.9,1.8-1.6,2.3-1.8v-6.6l-5.5-1.1c-1.9-0.1-0.7,1.5-0.7,1.5c-1.4,0-0.6,1.6-0.6,1.6c-1.4-0.1-0.4,1.5-0.4,1.5
				C215.9,119.1,217,120.5,217,120.5z"/>
			<polygon class="st7" points="228.4,116.3 225.3,115.7 225.3,122.1 228.4,122.7 			"/>
		</g>
	</g>
	<g>
		<polygon class="st2" points="185.7,137.7 193.9,132.5 198.9,136.7 207.8,128.4 211.1,137.9 215.1,135.4 218.1,138.7 227.1,134.1 
			232,148.6 		"/>
		<polygon class="st7" points="185.7,137.7 192.3,135.1 199.1,139 206.9,134.1 211.3,140.3 215.1,138.2 218.1,140.3 225.9,137.4 
			232,148.6 		"/>
	</g>
	<line class="st6" x1="194.1" y1="100.9" x2="205.3" y2="102.7"/>
	<line class="st6" x1="217.8" y1="104.5" x2="228.9" y2="106.3"/>
</g>
<g>
	<rect x="107.3" y="102.3" class="st12" width="17" height="2.8"/>
	<rect x="107.3" y="107.3" class="st12" width="8.6" height="1.5"/>
	<g>
		<rect x="107.8" y="125.4" class="st13" width="9.1" height="8"/>
		<rect x="121.4" y="119.3" class="st13" width="9.1" height="14.1"/>
		<rect x="135" y="111.3" class="st13" width="9.1" height="22.2"/>
		<rect x="148.6" y="98.1" class="st13" width="9.1" height="35.3"/>
	</g>
	<g>
		<ellipse class="st2" cx="163.4" cy="113.9" rx="3.5" ry="3.5"/>
		<g>
			<path class="st14" d="M165.4,113h-1.3c0,0,0.1-0.4,0.2-1c0-0.5-0.1-0.6-0.5-0.6s0,0.4-0.2,0.8c-0.2,0.3-0.6,0.7-0.8,0.8v2.4h2
				c0.7-0.1,0.2-0.6,0.2-0.6c0.5-0.1,0.2-0.6,0.2-0.6c0.5-0.1,0.1-0.6,0.1-0.6C165.8,113.5,165.4,113,165.4,113z"/>
			<rect x="161.3" y="113.1" class="st14" width="1.1" height="2.3"/>
		</g>
	</g>
	<g>
		<ellipse class="st2" cx="163.4" cy="129.4" rx="3.5" ry="3.5"/>
		<g>
			<path class="st14" d="M161.5,130.2h1.3c0,0-0.1,0.4-0.2,1c0,0.5,0.1,0.6,0.5,0.6s0-0.4,0.2-0.8c0.2-0.3,0.6-0.7,0.8-0.8v-2.4h-2
				c-0.7,0.1-0.2,0.6-0.2,0.6c-0.5,0.1-0.2,0.6-0.2,0.6c-0.5,0.1-0.1,0.6-0.1,0.6C161.1,129.8,161.5,130.2,161.5,130.2z"/>
			<rect x="164.5" y="127.9" class="st14" width="1.1" height="2.3"/>
		</g>
	</g>
</g>
<g>
	<g>
		<path class="st2" d="M75,113.1l-36.8,7.4c-1,0.2-1.8-0.3-1.8-1.2v-6.7c0-0.8,0.8-1.7,1.8-1.9l36.8-6.9c0.9-0.2,1.6,0.3,1.6,1.1
			v6.3C76.6,112.2,75.9,113,75,113.1z"/>
		<path class="st2" d="M45.6,114.2c0-1.7-1.6-2.7-3.5-2.4c-2,0.4-3.6,2.1-3.6,3.7c0,1.7,1.6,2.8,3.6,2.4
			C44,117.5,45.6,115.9,45.6,114.2z"/>
		<line class="st6" x1="49" y1="112" x2="64.3" y2="109.1"/>
		<line class="st6" x1="49" y1="113.4" x2="64.3" y2="110.4"/>
		<line class="st6" x1="49" y1="115" x2="71.8" y2="110.6"/>
	</g>
	<g>
		<path class="st2" d="M75,140.4l-36.8,8.9c-1,0.2-1.8-0.3-1.8-1.1v-6.7c0-0.8,0.8-1.7,1.8-1.9l36.8-8.4c0.9-0.2,1.6,0.3,1.6,1.1
			v6.3C76.6,139.4,75.9,140.2,75,140.4z"/>
		<path class="st2" d="M45.6,142.7c0-1.7-1.6-2.7-3.5-2.2c-2,0.5-3.6,2.2-3.6,3.9s1.6,2.7,3.6,2.2C44,146.1,45.6,144.4,45.6,142.7z"
			/>
		<line class="st6" x1="49" y1="140.4" x2="64.3" y2="136.8"/>
		<line class="st6" x1="49" y1="141.7" x2="64.3" y2="138.1"/>
		<line class="st6" x1="49" y1="143.4" x2="71.8" y2="138"/>
	</g>
	<g>
		<path class="st15" d="M78.5,105.3c0-1.7-1.6-2.9-3.5-2.5s-3.5,2.1-3.5,3.8s1.6,2.9,3.5,2.5C77,108.8,78.5,107.1,78.5,105.3z"/>
	</g>
	<g>
		<path class="st2" d="M84,124.4l-35.8,7.9c-0.9,0.2-1.7-0.3-1.7-1.1v-6.6c0-0.8,0.8-1.7,1.7-1.9l35.8-7.4c0.8-0.2,1.5,0.3,1.5,1.1
			v6.2C85.5,123.5,84.8,124.3,84,124.4z"/>
		<path class="st2" d="M55.3,126c0-1.7-1.5-2.7-3.4-2.3c-1.9,0.4-3.5,2.1-3.5,3.8c0,1.7,1.6,2.7,3.5,2.3
			C53.8,129.3,55.3,127.6,55.3,126z"/>
		<line class="st6" x1="58.7" y1="123.8" x2="73.5" y2="120.6"/>
		<line class="st6" x1="58.7" y1="125.1" x2="73.5" y2="121.9"/>
		<line class="st6" x1="58.7" y1="126.7" x2="80.8" y2="122"/>
	</g>
	<g>
		<path class="st15" d="M86.9,116.6c0-1.7-1.5-2.8-3.4-2.4s-3.4,2.1-3.4,3.9c0,1.7,1.5,2.8,3.4,2.4S86.9,118.3,86.9,116.6z"/>
	</g>
	<g>
		<path class="st15" d="M78.8,131.3c0-1.7-1.6-2.8-3.5-2.4c-1.9,0.4-3.5,2.2-3.5,4s1.6,2.8,3.5,2.4
			C77.3,134.9,78.8,133.1,78.8,131.3z"/>
	</g>
</g>
<g>
	<path class="st2" d="M124.5,158.9c0,0-0.9-1-2-0.9s-1.2,0-0.6,2.9s1.7,5.4,2.3,5.4s1-0.5,1-0.5l0.9,1.9h21.6c0,0,3.2-5.7,2.8-8.5
		s-2.6-0.9-2.6-0.9L124.5,158.9z"/>
	<path class="st7" d="M128.3,164.5c0,0-2.4-1.4-3.5-3.9c-1.1-2.4-1-4.4-1-4.4s-2.5-3.3-0.5-8.4c2-5.1,3.3-6.3,4.1-6.1
		s0.8,0.2,0.8,0.2s2.6-5.8,6.6-5.8s9.4,3,12.1,6c2.7,3.1,4.1,8,3.5,9s-1.5,1.3-1.5,1.3s-0.2,5.4-1.9,7.7s-3.8,4.5-3.8,4.5l-14.4,0.5
		L128.3,164.5z"/>
	<g>
		<path class="st2" d="M94.8,176.5c0,0,0.7-2.5,0.4-4.3c-0.4-1.8-2-4.9-0.9-7.2s2.2-2,1.6-0.5c-0.4,1-0.2,2.5-0.2,2.5
			s1.6-2.2,2.3-2.3c0.7-0.2,2,0,2,0s0.5-0.9,1.1-0.9s1.8,0,1.8,0s2-2.3,3-1.8c1.1,0.5,3.2,2.9,2.7,4s-2-0.5-2-0.5l-0.7-0.9
			c0,0-0.9,2-1.1,3.4s0,2.2,0,2.2l0.7,0.5c0,0,2.1-0.7,3.2-1.1c1.1-0.4,2.3,0.9,1.4,1.4s-3,1.8-3.4,2.3s-2.1,1.1-2.1,1.1l-1.2,0.4
			l-2.5,4.7C100.9,179.4,96.6,175.1,94.8,176.5z"/>
		<path class="st6" d="M102.8,163.7c0,0-0.9,0.5-1.2,2.2"/>
		<path class="st6" d="M100,164.6c0,0-0.7,0.5-1.4,1.6"/>
	</g>
	<path class="st16" d="M100.9,177.1c0,0-1.8-2.3-3.9-2.5s-3.2,0.4-3.5,1.1s-1.4,1.4-1.4,1.4s-5.5,3.8-8.2,6.5s-5.7,5.1-5.5,7.6
		s5.5,3.3,7.3,2.3c1.8-0.9,4.8-4.2,6-6.3C92.9,185,100.9,177.1,100.9,177.1z"/>
	<path class="st16" d="M152.5,169.7c0,0-6.4-4.9-11.2-6.7s-10.8-0.7-14.2,1.3c-3.4,2-8.2,5.1-8.2,5.1L152.5,169.7z"/>
	<g>
		<path class="st2" d="M180.1,182.7c0,0-0.7-2.5-0.4-4.3s2-4.9,0.9-7.2s-2.3-2-1.6-0.5c0.6,1.3,0.2,2.5,0.2,2.5s-1.6-2.2-2.3-2.3
			c-0.7-0.2-2,0-2,0s-0.5-0.9-1.1-0.9s-1.8,0-1.8,0s-2-2.3-3-1.8c-1.1,0.5-3.2,2.9-2.7,4s2-0.5,2-0.5l0.7-0.9c0,0,0.9,2,1.1,3.4
			c0.2,1.4,0,2.2,0,2.2l-0.7,0.5c0,0-2.1-0.7-3.2-1.1c-1.1-0.4-2.3,0.9-1.4,1.4c0.9,0.5,3,1.8,3.4,2.3s2.1,1.1,2.1,1.1l1.2,0.4
			l2.5,4.7C174.1,185.6,178.3,181.2,180.1,182.7z"/>
		<path class="st2" d="M172.1,169.8c0,0,0.9,0.5,1.2,2.2"/>
		<path class="st2" d="M175,170.7c0,0,0.7,0.5,1.4,1.6"/>
	</g>
	<path class="st16" d="M175.3,183.4c0,0,0.4-0.9,2-1.6s3.5,0,3.5,0l1.1,2.3c0,0-1.1,0.9,3,3.4s5.7,7.4,5.7,9.6
		c0,2.2-5.9-2.9-9.4-5.8C177.6,188.4,175.3,183.4,175.3,183.4z"/>
	<g>
		<path class="st16" d="M153.5,169.8c0,0-10.5-2.9-17-3.3c-6.6-0.4-15.6,2-16.8,2.2c-1.2,0.2-11.7,1.6-12.8,2.2
			c-1.1,0.5-19.5,15-19.5,15s-2.8,0.5-6.4,1.6c-3.5,1.1-4.3,4-4.3,4s1.1,8.3,3.5,9.4s4.6,0,6.7-0.9s18.3-6.5,18.3-6.5l2.3,13.5h52.3
			l3.2-14.3c0,0,18.4,14.4,21.1,14.6c2.7,0.2,6.2-1.6,7.6-4.3c1.4-2.7-2-8.7-3.2-10.5s-4.8-3.8-7.4-5.6s-13.3-13.9-14.7-15
			S153.5,169.8,153.5,169.8z"/>
		<path class="st17" d="M163.5,181.1c0,0,5.5-7.2-1.3-7.2c-6.8-0.1-11.3,3.8-11.3,3.8s-16.5-3.8-24.8-3.8s2,3.8,4.2,7.6
			s-9.7-3.8-14.7-4.6c-3.6-0.6-5,1.5-5.4,5.8l-6.4-4.3c0,0-14.3,14.9-16,15.7s-5.7-2.2-5.7,1.1s3.5,5.7,5,4.8
			c1.4-0.8,17.4-7.7,17.4-7.7l5.7,11.6l1.7,0.6c0.1,0.3,0.1,0.5,0.1,0.5l1.3,0.1l1.8,0.7v-0.6l43.2,1.7l3.5-14.4
			c0,0,14.5,7.9,17.4,10.5c2.8,2.5,5.7,1.4,6.7-0.4S163.5,181.1,163.5,181.1z"/>
		<path class="st6" d="M141.9,176.7c0.6,0.3,1.2,0.6,1.5,0.9"/>
		<path class="st6" d="M129.2,170.6c0,0,7.3,3.4,11.6,5.6"/>
		<path class="st6" d="M138.3,174c0,0,5,2.2,7.3,4.2"/>
		<polyline class="st6" points="165.5,184.4 163.1,192.8 168.1,183.7 		"/>
		<line class="st6" x1="166.6" y1="180.3" x2="166.1" y2="182.4"/>
		<polyline class="st6" points="103.2,184.5 105.3,193.5 100.3,185.7 		"/>
		<line class="st6" x1="102.5" y1="181.2" x2="102.9" y2="182.9"/>
		<path class="st6" d="M81.6,188.9c1.4-1.1,3.3-2.4,5.8-3"/>
		<path class="st6" d="M79.4,191.2c0,0,0.4-0.5,1.1-1.2"/>
	</g>
	<g>
		<path class="st15" d="M107.7,225.6l-4.2-21.6c-0.2-1.2,0.7-2.4,1.9-2.4h57.8c1.2,0,2.2,1.1,1.9,2.4l-4.2,21.6"/>
		<polyline class="st7" points="109.9,225.6 105.7,201.6 162.9,201.6 158.6,225.6 		"/>
	</g>
</g>
</svg>
